<?xml version="1.0" encoding="UTF-8" standalone="no"?>
<!-- Created with Inkscape (http://www.inkscape.org/) -->

<svg
   version="1.1"
   id="svg1"
   width="845.33331"
   height="60"
   viewBox="0 0 845.33331 60"
   sodipodi:docname="footerscroll.svg"
   inkscape:version="1.4.3 (0d15f75042, 2025-12-25)"
   xml:space="preserve"
   inkscape:export-filename="footerscroll.pdf"
   inkscape:export-xdpi="600"
   inkscape:export-ydpi="600"
   xmlns:inkscape="http://www.inkscape.org/namespaces/inkscape"
   xmlns:sodipodi="http://sodipodi.sourceforge.net/DTD/sodipodi-0.dtd"
   xmlns="http://www.w3.org/2000/svg"
   xmlns:svg="http://www.w3.org/2000/svg"><defs
     id="defs1"><clipPath
       clipPathUnits="userSpaceOnUse"
       id="clipPath28"><path
         d="M 0,0 H 612 V 792 H 0 Z"
         transform="translate(-291.80121,-47.486799)"
         id="path28" /></clipPath><clipPath
       clipPathUnits="userSpaceOnUse"
       id="clipPath26"><path
         d="M 0,0 H 612 V 792 H 0 Z"
         transform="translate(-322.72751,-36.398101)"
         id="path26" /></clipPath></defs><sodipodi:namedview
     id="namedview1"
     pagecolor="#ffffff"
     bordercolor="#000000"
     borderopacity="0.25"
     inkscape:showpageshadow="2"
     inkscape:pageopacity="0.0"
     inkscape:pagecheckerboard="0"
     inkscape:deskcolor="#d1d1d1"
     inkscape:zoom="5.7042587"
     inkscape:cx="427.13701"
     inkscape:cy="33.396101"
     inkscape:window-width="1920"
     inkscape:window-height="990"
     inkscape:window-x="0"
     inkscape:window-y="0"
     inkscape:window-maximized="1"
     inkscape:current-layer="g1"
     showgrid="false"><inkscape:page
       x="0"
       y="0"
       inkscape:label="1"
       id="page1"
       width="845.33331"
       height="60"
       margin="0"
       bleed="0" /></sodipodi:namedview><g
     id="g1"
     inkscape:groupmode="layer"
     inkscape:label="1"><path
       style="baseline-shift:baseline;display:inline;overflow:visible;vector-effect:none;fill:#c95000;fill-opacity:1;enable-background:accumulate;stop-color:#000000"
       d="M 440.33268,12.691196 V 14.02518 H 734.66666 V 12.691196 Z"
       id="path2" /><path
       style="baseline-shift:baseline;display:inline;overflow:visible;vector-effect:none;fill:#c95000;fill-opacity:1;enable-background:accumulate;stop-color:#000000"
       d="M 110.66666,12.691196 V 14.02518 H 405.00065 V 12.691196 Z"
       id="path3" /><path
       id="path4"
       d="m 0,0 c 1.91,-5.978 7.515,-10.322 14.119,-10.322 6.604,0 12.208,4.344 14.119,10.322 H 27.174 C 25.301,-5.416 20.164,-9.322 14.119,-9.322 8.074,-9.322 2.936,-5.416 1.064,0 Z"
       style="fill:#c95000;fill-opacity:1;fill-rule:nonzero;stroke:none"
       transform="matrix(1.3333333,0,0,-1.3333333,403.84145,12.691872)"
       clip-path="url(#clipPath28)" /><path
       id="path2-7"
       style="fill:#c95000;fill-opacity:1;stroke-width:0.97958"
       d="M 384.00781 12.691406 C 384.63742 16.56996 385.82489 20.240972 387.59961 23.800781 C 388.33704 25.279895 388.68119 25.895626 389.47852 27.164062 C 395.17333 36.223436 404.26795 42.54979 414.69727 44.707031 C 416.29552 45.037617 417.57563 45.217302 419.92969 45.439453 C 420.82806 45.524235 424.85153 45.477864 426.08398 45.369141 C 434.14809 44.657747 441.73952 41.511775 447.87891 36.337891 C 455.08456 30.265449 459.80231 21.919957 461.32031 12.691406 L 460.62305 12.691406 C 459.69429 18.167078 457.75645 23.055988 454.70898 27.640625 C 451.79877 32.01881 448.04506 35.733121 443.60742 38.626953 C 438.55953 41.918701 432.83381 43.953257 426.73047 44.625 C 425.59243 44.749944 421.1464 44.856474 420.26367 44.779297 C 417.47126 44.53519 415.64631 44.241647 413.33789 43.669922 C 406.90975 42.077854 401.22225 38.968318 396.31836 34.365234 C 390.11407 28.541541 386.14119 21.108208 384.71094 12.691406 L 384.00781 12.691406 z M 385.50195 12.691406 C 385.95963 15.45092 386.70849 18.06448 387.77148 20.652344 C 391.9168 30.744352 400.26591 38.580852 410.59961 42.076172 C 413.98922 43.222701 417.01738 43.782646 421.13281 44.027344 C 422.70427 44.120776 425.4584 43.999425 427.42578 43.748047 C 431.05071 43.284887 434.27009 42.399568 437.67773 40.931641 C 446.62051 37.07933 453.82093 29.745438 457.54297 20.695312 C 458.61112 18.098111 459.37793 15.418719 459.83984 12.691406 L 456.03516 12.691406 C 456.15926 12.750285 456.44442 12.809136 457.05078 12.927734 C 458.35726 13.183265 458.60868 13.281254 458.64648 13.546875 C 458.71373 14.019235 458.36147 14.073814 457.06055 13.794922 C 455.78349 13.52114 455.74848 13.525954 455.62891 13.990234 L 455.5293 14.376953 L 456.45312 14.603516 C 456.9606 14.727901 457.57107 14.902274 457.81055 14.990234 C 458.19426 15.131226 458.24609 15.177701 458.24609 15.382812 C 458.24609 15.883884 458.00351 15.892852 456.35156 15.457031 C 455.83402 15.320512 455.39239 15.226497 455.37109 15.248047 C 455.34741 15.278845 455.27939 15.464675 455.21875 15.666016 L 455.10547 16.042969 L 455.82617 16.259766 C 457.04181 16.623383 457.11674 16.64932 457.4375 16.810547 C 457.76307 16.974195 457.85162 17.240165 457.64844 17.443359 C 457.4846 17.607173 457.15339 17.559674 456.01758 17.210938 C 455.42331 17.028473 454.91457 16.878906 454.88867 16.878906 L 454.88672 16.880859 C 454.88585 16.881153 454.88177 16.880423 454.88086 16.880859 C 454.82441 16.915511 454.70509 17.203882 454.63281 17.492188 C 454.58828 17.669649 454.64735 17.705687 455.48242 18 C 456.77235 18.45461 457.16797 18.664375 457.16797 18.896484 C 457.16797 19.150909 457.019 19.285156 456.73438 19.285156 C 456.54771 19.285156 455.45441 18.913202 454.42383 18.5 C 454.3235 18.459778 454.2486 18.547871 454.11914 18.859375 L 453.94922 19.269531 L 454.875 19.654297 C 456.44742 20.308945 456.68243 20.504528 456.38867 20.90625 C 456.28116 21.05329 456.23936 21.056051 455.86914 20.957031 C 455.6482 20.897952 455.05818 20.667694 454.55664 20.445312 C 453.56335 20.004876 453.62709 19.998565 453.39062 20.564453 L 453.27344 20.847656 L 454.37109 21.382812 C 455.62851 21.99677 455.83137 22.167006 455.68945 22.478516 C 455.54118 22.803913 455.22778 22.740451 454.01562 22.142578 C 453.41098 21.844338 452.90788 21.61187 452.89648 21.625 C 452.83048 21.701494 452.53571 22.332614 452.53711 22.390625 L 452.53711 22.392578 L 452.53711 22.394531 L 452.53906 22.394531 C 452.55365 22.408188 452.95659 22.63254 453.43555 22.892578 C 453.91452 23.152603 454.42794 23.456413 454.57617 23.568359 C 455.02676 23.908592 454.87944 24.420007 454.36328 24.306641 C 454.23091 24.277567 453.66271 23.993057 453.10156 23.675781 C 452.54046 23.35851 452.07536 23.109444 452.06836 23.121094 C 451.90117 23.391897 451.6996 23.777216 451.69336 23.837891 L 451.69336 23.839844 L 451.69336 23.841797 L 451.69531 23.84375 C 451.72396 23.895591 452.03949 24.117081 452.41992 24.347656 C 453.66443 25.101945 453.94657 25.331965 453.91797 25.570312 C 453.88655 25.830681 453.68985 25.960341 453.42773 25.894531 C 453.31776 25.866927 452.76875 25.559372 452.20703 25.210938 C 451.64534 24.862493 451.17622 24.589709 451.16602 24.605469 C 451.15592 24.621271 451.04857 24.789702 450.92773 24.978516 L 450.70898 25.320312 L 451.38867 25.773438 C 452.39665 26.446147 452.9375 26.900483 452.9375 27.070312 C 452.9375 27.153411 452.86173 27.289587 452.76953 27.373047 C 452.60842 27.518651 452.59008 27.517952 452.29297 27.376953 C 452.1229 27.296247 451.63061 26.978874 451.19727 26.671875 C 450.76392 26.364868 450.36475 26.088361 450.31055 26.056641 C 450.25018 26.021289 450.11519 26.139954 449.96289 26.361328 L 449.71484 26.720703 L 450.55859 27.351562 C 451.63241 28.151353 451.89341 28.418571 451.82031 28.648438 C 451.78998 28.743994 451.69216 28.861666 451.60156 28.910156 C 451.39014 29.023308 451.00759 28.803914 450.01758 28 C 449.61972 27.676928 449.26186 27.412109 449.22266 27.412109 L 449.2207 27.412109 C 449.17616 27.420756 449.03014 27.563202 448.89258 27.734375 L 448.63477 28.054688 L 449.42578 28.705078 C 450.27425 29.403169 450.69922 29.841468 450.69922 30.015625 C 450.69922 30.151863 450.43224 30.398438 450.28516 30.398438 C 450.14305 30.398437 449.4438 29.869815 448.69922 29.199219 L 448.11328 28.671875 L 447.81641 29.001953 L 447.51758 29.332031 L 448.38281 30.142578 C 448.85861 30.588529 449.29757 31.048786 449.35938 31.164062 C 449.50638 31.438842 449.36718 31.724609 449.08594 31.724609 C 448.84737 31.724609 448.55906 31.501203 447.625 30.587891 L 446.91602 29.894531 L 446.64258 30.234375 C 446.32289 30.632181 446.25046 30.490413 447.40234 31.701172 C 448.12971 32.465707 448.25697 32.723504 448.02734 32.953125 C 447.79373 33.186752 447.56865 33.047478 446.63672 32.09375 L 445.69922 31.132812 L 445.38672 31.439453 L 445.07422 31.744141 L 445.80859 32.582031 C 446.21293 33.042148 446.60955 33.539418 446.68945 33.6875 C 446.8293 33.94553 446.82913 33.964002 446.68164 34.126953 C 446.59701 34.220485 446.46668 34.296875 446.39258 34.296875 C 446.24911 34.296875 445.62062 33.676788 444.90039 32.824219 C 444.67462 32.556941 444.46562 32.335377 444.41602 32.310547 L 444.41406 32.310547 L 444.41211 32.308594 L 444.41016 32.308594 L 444.4082 32.308594 C 444.37153 32.317408 444.21187 32.436162 444.04883 32.578125 L 443.74219 32.845703 L 444.28516 33.507812 C 444.58298 33.87273 444.95633 34.370834 445.11523 34.613281 C 445.39101 35.034052 445.39777 35.063097 445.27148 35.255859 C 445.1987 35.366887 445.06993 35.457031 444.98633 35.457031 C 444.80375 35.457031 444.18376 34.808243 443.57812 33.984375 C 443.335 33.653663 443.11524 33.384766 443.08984 33.384766 C 443.05732 33.39073 442.90493 33.487411 442.74609 33.605469 C 442.58213 33.727339 442.43512 33.836296 442.41992 33.847656 C 442.40454 33.859 442.69112 34.291892 443.05664 34.810547 C 443.91484 36.028283 443.9718 36.152126 443.77539 36.369141 C 443.69266 36.460613 443.55927 36.535156 443.48047 36.535156 C 443.28892 36.535156 442.86258 36.051606 442.24609 35.134766 C 441.96698 34.719644 441.71977 34.378906 441.69727 34.378906 L 441.69531 34.378906 C 441.62466 34.391305 441.05404 34.771234 441 34.839844 L 440.99805 34.841797 L 440.99805 34.84375 L 440.99609 34.845703 L 440.99609 34.847656 C 440.99609 34.864817 441.20213 35.199688 441.45508 35.591797 C 442.05944 36.528631 442.34229 37.07719 442.30859 37.248047 C 442.29346 37.324436 442.20282 37.438673 442.10742 37.501953 C 441.95447 37.60332 441.90778 37.595539 441.7168 37.445312 C 441.59761 37.351569 441.23124 36.838948 440.90234 36.304688 C 440.57344 35.77042 440.2949 35.320068 440.2832 35.304688 L 440.28125 35.302734 L 440.2793 35.302734 L 440.27734 35.302734 C 440.2392 35.305722 440.07221 35.389 439.88281 35.5 L 439.50195 35.722656 L 439.79688 36.232422 C 440.25945 37.035414 440.74805 38.014415 440.74805 38.138672 C 440.74805 38.28474 440.48143 38.525391 440.32031 38.525391 C 440.16018 38.525391 439.79784 38.014137 439.29492 37.074219 C 438.74854 36.053095 438.81161 36.102771 438.37695 36.345703 C 438.19082 36.44973 438.04448 36.554984 438.0293 36.595703 L 438.0293 36.597656 L 438.02734 36.599609 L 438.02734 36.601562 L 438.02734 36.603516 L 438.02734 36.605469 L 438.0293 36.605469 L 438.0293 36.607422 C 438.04359 36.636554 438.28795 37.130786 438.57227 37.705078 C 439.08971 38.75041 439.17451 39.069632 438.98828 39.255859 C 438.6549 39.589245 438.34427 39.236255 437.64062 37.730469 C 437.23654 36.865762 437.24703 36.873501 436.66797 37.167969 L 436.44531 37.28125 L 436.90234 38.318359 C 437.4222 39.502318 437.50786 39.850552 437.31836 40.007812 C 437.10934 40.181287 436.83087 40.083362 436.65039 39.773438 C 436.55868 39.616021 436.30637 39.076276 436.08984 38.572266 C 435.6655 37.584533 435.67982 37.59495 435.12891 37.824219 C 434.87699 37.928995 434.86462 37.952496 434.94922 38.169922 C 435.30927 39.096431 435.55709 39.786724 435.65039 40.128906 C 435.75053 40.496227 435.74652 40.540596 435.59961 40.6875 C 435.20064 41.086461 434.99533 40.803334 434.32422 38.919922 C 434.20611 38.588496 434.0745 38.314322 434.01953 38.28125 C 434.01866 38.280834 434.0145 38.277623 434.01367 38.277344 L 434.01172 38.277344 L 434.00977 38.277344 C 433.81955 38.277344 433.31646 38.462697 433.28516 38.541016 L 433.2832 38.542969 L 433.2832 38.544922 L 433.2832 38.546875 L 433.2832 38.548828 C 433.2832 38.592488 433.43278 39.095278 433.61523 39.666016 C 434.04482 41.009909 434.04129 41.429688 433.60352 41.429688 C 433.33893 41.429687 433.20294 41.176451 432.82031 39.972656 C 432.61099 39.314058 432.42209 38.775391 432.40039 38.775391 C 432.25133 38.775391 431.69929 38.949829 431.63086 39.013672 C 431.62999 39.014673 431.62559 39.018595 431.625 39.019531 L 431.625 39.021484 L 431.625 39.023438 C 431.625 39.058486 431.75442 39.597773 431.91406 40.220703 C 432.07374 40.843629 432.20508 41.440388 432.20508 41.546875 C 432.20508 41.791428 432.02019 41.947179 431.77344 41.912109 C 431.51508 41.875398 431.36104 41.523203 431.04492 40.261719 L 430.7832 39.220703 L 430.375 39.304688 C 430.16065 39.348596 429.98294 39.426972 429.9668 39.482422 L 429.9668 39.484375 C 429.96671 39.485259 429.96484 39.489364 429.96484 39.490234 C 429.96484 39.546001 430.05784 40.023331 430.17188 40.550781 C 430.48113 41.981211 430.44468 42.341797 429.98633 42.341797 C 429.72424 42.341797 429.59354 42.012635 429.32422 40.667969 L 429.11133 39.597656 L 428.72852 39.652344 C 428.51885 39.682196 428.32593 39.730846 428.29883 39.759766 C 428.29844 39.760404 428.29723 39.762848 428.29688 39.763672 C 428.27746 39.825066 428.32176 40.225131 428.40039 40.681641 C 428.66594 42.223088 428.59569 42.724903 428.125 42.658203 C 427.87426 42.622646 427.76752 42.288981 427.57812 40.945312 L 427.42969 39.894531 L 427.01758 39.923828 C 426.7982 39.939396 426.60511 39.964492 426.57812 39.980469 L 426.57617 39.980469 L 426.57617 39.982422 C 426.55957 39.998309 426.58757 40.364895 426.63867 40.796875 C 426.76036 41.829508 426.75658 42.696546 426.63086 42.822266 C 426.49623 42.956836 426.27105 42.946832 426.125 42.800781 C 426.00311 42.67891 425.87128 41.911672 425.77148 40.744141 L 425.7168 40.101562 L 425.25977 40.101562 L 424.80273 40.101562 L 424.85742 40.621094 C 424.92982 41.310095 424.94245 42.794578 424.87695 42.900391 C 424.781 43.055656 424.49322 43.074343 424.32227 42.935547 C 424.17344 42.814764 424.14222 42.650405 424.07422 41.59375 C 424.03162 40.932325 423.99692 40.346063 423.99609 40.289062 C 423.99492 40.219499 423.85086 40.185321 423.55859 40.185547 L 423.12305 40.185547 L 423.12305 41.5 C 423.12305 42.90838 423.07673 43.087891 422.70898 43.087891 C 422.3413 43.087891 422.29297 42.908644 422.29297 41.5 L 422.29297 40.185547 L 421.86523 40.185547 L 421.43945 40.185547 L 421.38672 41.076172 C 421.3181 42.260003 421.26281 42.779393 421.19141 42.890625 C 421.0905 43.048245 420.79864 43.093525 420.63867 42.976562 C 420.49788 42.873511 420.48864 42.75659 420.52734 41.482422 L 420.57031 40.101562 L 420.125 40.101562 C 419.75696 40.101562 419.67975 40.12593 419.67969 40.246094 C 419.6795 40.629576 419.49918 42.252879 419.42578 42.527344 C 419.33181 42.879006 419.03098 43.022422 418.79688 42.828125 C 418.68167 42.732343 418.66939 42.58546 418.71289 41.802734 C 418.7409 41.300333 418.78866 40.679354 418.81836 40.421875 L 418.87305 39.953125 L 418.44336 39.923828 C 417.94606 39.889681 418.00762 39.767429 417.80859 41.179688 C 417.64413 42.346789 417.52269 42.671875 417.25391 42.671875 C 416.96545 42.671875 416.86107 42.517477 416.86133 42.095703 C 416.86163 41.76025 417.03953 40.445038 417.15039 39.962891 C 417.19473 39.770025 417.14857 39.743854 416.60352 39.652344 L 416.30664 39.601562 L 416.08398 40.734375 C 415.8294 42.036082 415.73224 42.288342 415.4668 42.326172 C 414.99442 42.393412 414.9379 42.041164 415.2168 40.740234 C 415.49057 39.463158 415.48574 39.430123 415.02148 39.310547 L 414.63477 39.210938 L 414.41016 40.132812 C 414.28579 40.640288 414.11144 41.250759 414.02344 41.490234 C 413.88393 41.870014 413.83407 41.925781 413.63672 41.925781 C 413.3618 41.925781 413.21094 41.790109 413.21094 41.541016 C 413.21094 41.438541 413.34452 40.844851 413.50586 40.220703 C 413.66737 39.59655 413.78172 39.068918 413.76172 39.048828 C 413.73236 39.026597 413.54902 38.959081 413.34766 38.898438 L 412.9707 38.785156 L 412.75391 39.505859 C 412.39031 40.721506 412.36435 40.796425 412.20312 41.117188 C 412.03945 41.442748 411.77349 41.533271 411.57031 41.330078 C 411.40638 41.166154 411.45214 40.836296 411.80078 39.71875 C 411.98325 39.133899 412.13281 38.624541 412.13281 38.587891 C 412.12457 38.519522 411.8593 38.399208 411.52148 38.314453 C 411.34402 38.269921 411.30798 38.327045 411.01367 39.162109 C 410.55081 40.475414 410.35102 40.847656 410.10547 40.847656 C 409.99479 40.847656 409.84835 40.769718 409.78125 40.673828 C 409.63617 40.466664 409.70509 40.182072 410.23047 38.833984 C 410.40918 38.375427 410.54716 37.990456 410.53516 37.978516 C 410.52314 37.966516 410.33843 37.880572 410.125 37.789062 L 409.73633 37.623047 L 409.46289 38.302734 C 409.31244 38.676453 409.05821 39.243198 408.89844 39.5625 C 408.58979 40.179289 408.41444 40.291959 408.11133 40.070312 C 407.95963 39.959413 407.95619 39.920763 408.05469 39.548828 C 408.1132 39.327898 408.34218 38.738095 408.56445 38.236328 C 409.00455 37.242856 409.01151 37.306897 408.44531 37.070312 L 408.16016 36.951172 L 407.62695 38.048828 C 407.01736 39.305862 406.84743 39.513358 406.53516 39.371094 C 406.20976 39.222828 406.27125 38.909406 406.86914 37.697266 C 407.16739 37.092606 407.40177 36.587512 407.38867 36.576172 C 407.31341 36.511255 406.70001 36.224546 406.625 36.216797 L 406.62305 36.216797 L 406.62109 36.216797 L 406.61914 36.21875 C 406.60553 36.233335 406.38111 36.636272 406.12109 37.115234 C 405.86106 37.594195 405.55726 38.10761 405.44531 38.255859 C 405.22304 38.550208 404.92641 38.611025 404.75 38.398438 C 404.59316 38.209438 404.74044 37.810375 405.37305 36.708984 C 405.67176 36.188941 405.90673 35.7578 405.89453 35.75 C 405.63403 35.577947 405.25155 35.375 405.18945 35.375 L 405.1875 35.375 L 405.18555 35.375 C 405.12646 35.403648 404.90045 35.719182 404.66992 36.099609 C 403.92139 37.334762 403.68244 37.626466 403.44336 37.597656 C 403.18317 37.56626 403.05334 37.369536 403.11914 37.107422 C 403.14674 36.997434 403.45427 36.448414 403.80273 35.886719 C 404.15116 35.325012 404.4239 34.857726 404.4082 34.847656 C 404.39238 34.837555 404.22397 34.730227 404.03516 34.609375 L 403.69141 34.388672 L 403.23828 35.068359 C 402.56556 36.076341 402.11319 36.619141 401.94336 36.619141 C 401.86027 36.619141 401.72402 36.543452 401.64062 36.451172 C 401.49381 36.29005 401.49375 36.271703 401.63477 35.974609 C 401.71547 35.804546 402.03285 35.310296 402.33984 34.876953 C 402.64685 34.443604 402.92187 34.048387 402.95117 33.998047 C 402.95164 33.997253 402.95079 33.994984 402.95117 33.994141 L 402.95312 33.992188 C 402.96713 33.934902 402.83974 33.787474 402.6543 33.654297 L 402.30273 33.402344 L 401.79297 34.078125 C 401.09782 34.998119 400.61213 35.541016 400.48242 35.541016 C 400.42291 35.541016 400.28666 35.469392 400.17969 35.382812 C 399.99162 35.230489 399.98823 35.216188 400.11719 34.947266 C 400.19052 34.794384 400.55511 34.282848 400.92578 33.810547 C 401.2965 33.338247 401.59961 32.923835 401.59961 32.890625 C 401.59104 32.851914 401.4509 32.710564 401.28125 32.574219 L 400.96289 32.318359 L 400.19727 33.226562 C 399.77634 33.725558 399.34143 34.192945 399.23047 34.265625 C 399.04545 34.386411 399.01045 34.386302 398.82031 34.261719 C 398.70626 34.186999 398.61328 34.064894 398.61328 33.990234 C 398.61328 33.829881 399.04859 33.245683 399.79688 32.400391 L 400.33594 31.791016 L 400.00977 31.496094 L 399.68359 31.199219 L 398.75195 32.167969 C 398.25623 32.683367 397.8024 33.106777 397.7207 33.132812 L 397.71875 33.134766 L 397.7168 33.134766 L 397.71484 33.134766 C 397.48998 33.134766 397.28711 32.956141 397.28711 32.759766 C 397.28711 32.548503 397.90008 31.786468 398.68359 31.025391 L 399.10547 30.617188 L 398.79688 30.345703 C 398.63281 30.200655 398.47579 30.079628 398.43945 30.070312 L 398.4375 30.070312 L 398.43555 30.070312 C 398.40627 30.068411 397.96467 30.458538 397.45312 30.9375 C 396.5312 31.800703 396.28568 31.93609 396.05859 31.708984 C 395.82495 31.475367 395.96424 31.248342 396.91797 30.316406 L 397.87891 29.378906 L 397.57031 29.064453 L 397.26367 28.75 L 396.42578 29.488281 C 395.96476 29.894391 395.46857 30.292244 395.32227 30.371094 C 395.0681 30.507987 395.0472 30.506347 394.88477 30.359375 C 394.79125 30.27474 394.71484 30.144462 394.71484 30.070312 C 394.71484 29.926835 395.33492 29.300308 396.1875 28.580078 C 396.45478 28.354294 396.67627 28.145369 396.70117 28.095703 L 396.70117 28.09375 L 396.70312 28.091797 L 396.70312 28.089844 L 396.70312 28.087891 L 396.70312 28.085938 C 396.69432 28.049273 396.57554 27.891556 396.43359 27.728516 L 396.16602 27.421875 L 395.50391 27.958984 C 395.13897 28.254218 394.642 28.629004 394.40039 28.791016 C 393.97945 29.073278 393.95278 29.078918 393.75781 28.951172 C 393.3419 28.678645 393.53307 28.40881 394.87109 27.384766 C 395.21842 27.118959 395.53692 26.868085 395.57812 26.828125 C 395.64106 26.767068 395.54322 26.597095 395.16016 26.095703 C 395.14712 26.078628 394.77089 26.324659 394.32422 26.642578 C 393.87755 26.960508 393.35822 27.309334 393.16797 27.417969 C 392.82836 27.61187 392.81777 27.6122 392.64844 27.458984 C 392.55361 27.373155 392.47656 27.239016 392.47656 27.160156 C 392.47656 26.96861 392.96013 26.540311 393.87695 25.923828 C 394.29209 25.64471 394.63281 25.399583 394.63281 25.376953 C 394.63281 25.315088 394.22698 24.715169 394.16211 24.677734 L 394.16016 24.675781 L 394.1582 24.675781 C 394.13704 24.675781 393.80191 24.881948 393.41406 25.134766 C 392.49633 25.73296 391.93623 26.022461 391.76367 25.988281 C 391.68729 25.973147 391.57126 25.87992 391.50586 25.78125 C 391.39733 25.617495 391.40803 25.579315 391.62109 25.347656 C 391.74944 25.208096 392.26385 24.846392 392.76562 24.542969 C 393.2674 24.239536 393.69183 23.980427 393.70703 23.966797 L 393.70703 23.964844 L 393.70898 23.964844 L 393.70898 23.962891 L 393.70898 23.960938 C 393.706 23.921133 393.62271 23.751908 393.51172 23.5625 L 393.28906 23.181641 L 392.7793 23.476562 C 391.97629 23.939136 390.99728 24.425781 390.87305 24.425781 C 390.72697 24.425781 390.48633 24.159167 390.48633 23.998047 C 390.48633 23.832341 391.00897 23.468524 392.01953 22.931641 C 392.47567 22.689295 392.85909 22.484362 392.87109 22.476562 L 392.87109 22.474609 L 392.87305 22.474609 C 392.86782 22.418184 392.50159 21.73502 392.45312 21.691406 L 392.45117 21.691406 L 392.44922 21.689453 C 392.44172 21.689531 391.95094 21.932088 391.35938 22.228516 C 390.29027 22.764212 389.94631 22.858426 389.75586 22.667969 C 389.42247 22.334591 389.77545 22.022013 391.28125 21.318359 C 392.14568 20.914403 392.13933 20.927125 391.8457 20.349609 L 391.73242 20.126953 L 390.67578 20.585938 C 390.09459 20.837425 389.50547 21.061244 389.36523 21.083984 C 389.06579 21.13257 388.88283 20.965184 388.92383 20.679688 C 388.95634 20.452876 389.29728 20.249888 390.44336 19.771484 C 390.89949 19.581066 391.30199 19.398238 391.33789 19.367188 L 391.33984 19.367188 L 391.3418 19.365234 C 391.36874 19.320879 391.32511 19.126822 391.23828 18.923828 L 391.07227 18.537109 L 390.55078 18.734375 C 390.26415 18.842735 389.88579 18.992046 389.70898 19.066406 C 389.53214 19.140775 389.1841 19.255373 388.93555 19.320312 C 388.51242 19.43083 388.47176 19.426815 388.32227 19.277344 C 387.94969 18.904763 388.21027 18.687586 389.6582 18.160156 C 390.25042 17.944426 390.73438 17.753545 390.73438 17.734375 C 390.73438 17.555905 390.54299 16.99753 390.47266 16.962891 L 390.4707 16.962891 L 390.46875 16.962891 L 390.4668 16.962891 C 390.42133 16.962891 389.91646 17.110506 389.3457 17.292969 C 388.00184 17.722607 387.58203 17.720963 387.58203 17.283203 C 387.58203 17.018632 387.83528 16.882621 389.03906 16.5 C 389.69763 16.290666 390.23633 16.101838 390.23633 16.080078 C 390.23633 15.926035 390.05035 15.341059 389.99219 15.304688 L 389.99023 15.302734 L 389.98828 15.302734 C 389.95324 15.302734 389.41394 15.434099 388.79102 15.59375 C 388.16808 15.753401 387.57366 15.882812 387.4707 15.882812 C 387.06755 15.882813 386.93881 15.404067 387.28125 15.179688 C 387.38877 15.109226 387.99655 14.917211 388.63281 14.753906 L 389.79102 14.457031 L 389.70703 14.050781 C 389.6634 13.837815 389.58494 13.662523 389.5293 13.646484 L 389.52734 13.644531 C 389.52646 13.644443 389.52236 13.644531 389.52148 13.644531 C 389.46574 13.644531 388.9884 13.737519 388.46094 13.851562 C 387.03051 14.160832 386.66992 14.124378 386.66992 13.666016 C 386.66992 13.403952 386.99911 13.27322 388.34375 13.003906 L 389.41406 12.789062 L 389.40039 12.691406 L 385.50195 12.691406 z M 390.19727 12.691406 C 391.21444 17.916224 393.49177 22.851688 396.92383 27.128906 C 399.98474 30.943535 403.89673 34.026803 408.44336 36.208984 C 412.16358 37.994526 416.03642 39.020183 420.32227 39.355469 C 421.61418 39.456534 425.01336 39.388432 426.31641 39.234375 C 430.52231 38.737096 434.23525 37.605406 437.89648 35.708984 C 446.76457 31.115566 453.15557 22.653483 455.08984 12.939453 C 455.10635 12.85658 455.12085 12.774331 455.13672 12.691406 L 454.15625 12.691406 C 454.32386 12.945376 454.32717 13.30923 454.07422 13.546875 C 453.82336 13.782581 453.33396 13.789052 453.10547 13.560547 C 452.86376 13.318845 452.88955 12.948764 453.07617 12.691406 L 451.97852 12.691406 C 451.85867 13.230505 451.71868 13.81726 451.55469 14.474609 C 450.99617 16.713516 449.53713 19.992821 448.05078 22.351562 C 446.37877 25.004918 443.82977 27.832853 441.20312 29.949219 C 438.62168 32.029192 434.61829 34.124388 431.62305 34.962891 C 431.09848 35.109748 430.61252 35.260125 430.54102 35.296875 C 430.27378 35.434211 428.22204 35.862519 427.02148 36.03125 C 426.33727 36.127418 425.25385 36.242429 424.61523 36.287109 C 418.42626 36.7197 411.90931 35.063211 406.63867 31.71875 C 405.09647 30.740157 403.6175 29.575598 402.10938 28.150391 C 399.34878 25.541644 397.4803 23.044252 395.84766 19.78125 C 394.80238 17.692265 394.28532 16.303058 393.54492 13.603516 C 393.46676 13.318548 393.39151 13.013082 393.32227 12.691406 L 392.27344 12.691406 C 392.45011 12.975287 392.42778 13.336775 392.20898 13.541016 L 392.20703 13.541016 C 391.8755 13.850471 391.60328 13.861071 391.31836 13.576172 C 391.15266 13.410644 391.06836 13.243017 391.06836 13.082031 C 391.06836 12.931545 391.11192 12.799073 391.18555 12.691406 L 390.19727 12.691406 z M 394.96875 12.691406 C 395.25221 14.027997 395.34861 14.358133 395.68164 15.316406 C 396.86133 18.710897 398.5191 21.712924 400.65039 24.308594 C 402.31023 26.330026 403.81754 27.755267 405.92578 29.298828 C 408.41389 31.120497 410.81822 32.341918 413.95898 33.382812 C 416.20395 34.126825 418.24538 34.52468 420.7168 34.699219 C 422.14792 34.800429 422.70496 34.801944 424.24219 34.708984 C 426.26018 34.587018 427.03675 34.470219 429.93359 33.845703 C 430.57712 33.706975 432.42142 33.073912 433.5625 32.601562 C 435.29763 31.883292 437.41673 30.717991 438.96484 29.626953 C 443.36303 26.527334 446.57307 22.572672 448.80859 17.505859 C 449.28986 16.415052 450.0707 14.020244 450.39062 12.691406 L 449.31836 12.691406 C 449.15349 12.757743 448.90488 12.837389 448.54297 12.947266 C 447.61316 13.229563 447.2616 13.285864 447.1875 13.166016 L 447.18555 13.166016 C 447.17526 13.135678 447.20254 12.954146 447.25391 12.691406 L 446.45898 12.691406 C 446.276 13.395824 446.07043 14.065639 445.8457 14.691406 C 445.3807 15.986243 444.26697 18.27093 443.5332 19.433594 C 441.9839 21.888576 439.83423 24.233288 437.54297 25.966797 C 434.13712 28.543552 430.15986 30.184691 425.89844 30.771484 L 425.89648 30.771484 C 424.76439 30.92732 421.52475 30.999468 420.46875 30.892578 C 414.96532 30.335505 409.95387 28.12032 406.07812 24.529297 C 402.48412 21.1993 400.04549 17.177911 398.86523 12.691406 L 398.08984 12.691406 C 398.1466 12.967588 398.16637 13.122119 398.15234 13.15625 L 398.15234 13.158203 C 398.0722 13.287869 397.67303 13.220062 396.70898 12.910156 C 396.45101 12.827223 396.24478 12.754466 396.08984 12.691406 L 394.96875 12.691406 z M 399.65234 12.691406 C 399.95634 13.792379 400.34651 14.876719 400.83008 15.966797 C 403.08261 21.044634 406.912 25.083202 411.89844 27.642578 C 413.81741 28.627517 416.04231 29.387021 418.11523 29.765625 C 419.07678 29.941253 419.63558 30.013346 421.38086 30.183594 C 421.98405 30.242437 424.67343 30.143209 425.60742 30.027344 C 428.28789 29.694827 430.75748 28.95688 433.14062 27.779297 C 439.41525 24.678792 443.84512 19.284464 445.66016 12.691406 L 441.51172 12.691406 C 440.76946 14.896592 439.63971 16.976807 438.14648 18.828125 C 437.41973 19.729135 436.0432 21.111913 435.18945 21.798828 C 433.36166 23.269488 431.0342 24.555291 429.09375 25.166016 C 428.77444 25.266518 428.28933 25.419369 428.01562 25.505859 C 427.39992 25.700332 426.08999 25.964567 425.1543 26.083984 C 424.39901 26.180405 421.79013 26.255739 421.17383 26.199219 C 419.56087 26.051214 417.57009 25.630476 416.10938 25.128906 C 414.96136 24.734715 412.88249 23.720257 411.89258 23.070312 C 408.09361 20.575982 405.14085 16.775573 403.81445 12.691406 L 399.65234 12.691406 z M 404.92578 12.691406 C 406.09681 15.907726 408.35548 19.083235 410.97266 21.105469 C 413.89674 23.364882 416.83789 24.583434 420.50977 25.054688 C 421.76206 25.215416 424.40288 25.153172 425.69336 24.931641 C 427.76143 24.576622 429.14998 24.129328 431.00195 23.222656 C 435.37842 21.080047 438.75582 17.240373 440.39453 12.691406 L 439.64258 12.691406 C 438.73534 15.122224 437.33624 17.30049 435.47852 19.158203 C 432.70735 21.929382 429.09591 23.740097 425.23828 24.292969 C 424.34077 24.421586 422.33101 24.515104 421.67188 24.458984 C 419.72274 24.292905 418.50892 24.059091 416.94727 23.546875 C 412.37203 22.046209 408.51481 18.6621 406.36914 14.267578 C 406.11273 13.742436 405.88531 13.219812 405.68555 12.691406 L 404.92578 12.691406 z M 402.57031 12.994141 C 402.64681 12.993671 402.72355 12.999407 402.80078 13.009766 C 403.17718 13.060253 403.67383 13.517965 403.67383 13.814453 C 403.67383 14.234405 403.20231 14.774224 402.5957 15.048828 C 401.97978 15.327635 401.49733 15.262078 401.08203 14.845703 C 400.40938 14.17133 401.42281 13.00119 402.57031 12.994141 z M 442.7832 13.048828 C 443.18206 13.051131 443.43251 13.103033 443.7168 13.244141 C 444.70928 13.73669 444.73723 14.860538 443.76367 15.130859 C 443.58701 15.179939 443.42309 15.215737 443.40039 15.210938 C 443.37758 15.205927 443.2249 15.174698 443.06055 15.142578 C 442.18109 14.970809 441.53932 14.218253 441.74414 13.597656 C 441.88187 13.180259 442.13659 13.044728 442.7832 13.048828 z M 402.38281 13.478516 C 402.04732 13.478516 401.58359 13.793085 401.47852 14.091797 C 401.40632 14.297132 401.42435 14.34918 401.62695 14.523438 C 401.97893 14.826192 402.37589 14.775555 402.82422 14.367188 C 403.21873 14.007863 402.95614 13.478516 402.38281 13.478516 z M 442.90625 13.492188 C 442.77234 13.491568 442.64197 13.523157 442.53125 13.595703 C 442.1354 13.855085 442.3306 14.395362 442.9043 14.632812 C 443.17876 14.746423 443.56868 14.675443 443.76953 14.474609 C 444.15258 14.091551 443.48655 13.49487 442.90625 13.492188 z M 398.19336 13.644531 C 398.19465 13.644375 398.19611 13.644531 398.19727 13.644531 C 398.31237 13.644531 398.39123 13.77391 398.51367 14.164062 C 398.60325 14.449402 398.77746 14.933012 398.90039 15.240234 C 399.01929 15.537866 399.09521 15.819805 399.07422 15.878906 L 399.07227 15.880859 L 399.07227 15.882812 C 398.99812 16.002743 398.61258 15.973845 397.61914 15.771484 C 396.58295 15.560467 396.50755 15.523131 396.63281 15.289062 C 396.82152 14.936441 398.02974 13.664372 398.19336 13.644531 z M 447.10352 13.660156 C 447.24398 13.660537 447.45865 13.847695 447.81055 14.246094 C 448.76788 15.329892 448.81499 15.399211 448.69336 15.519531 C 448.6335 15.578764 448.15789 15.703325 447.63672 15.796875 C 446.59713 15.983425 446.33503 16.002366 446.26953 15.896484 L 446.26953 15.894531 C 446.25467 15.835428 446.36535 15.443463 446.52344 15.005859 C 446.68665 14.55414 446.85574 14.062311 446.89844 13.914062 C 446.94657 13.746545 447.00741 13.659896 447.10352 13.660156 z M 392.2832 14.558594 C 392.45426 14.556688 392.61659 14.642355 392.75977 14.8125 C 393.04239 15.148248 393.03657 15.46211 392.74219 15.744141 C 392.37209 16.098714 391.92942 16.016702 391.6875 15.548828 C 391.52967 15.243683 391.5983 14.938346 391.875 14.720703 C 392.01101 14.613717 392.15016 14.560076 392.2832 14.558594 z M 453.08008 14.566406 C 453.20562 14.570558 453.33431 14.624307 453.4668 14.728516 C 453.64323 14.867203 453.68555 14.970314 453.68555 15.261719 C 453.68555 15.55312 453.6431 15.656234 453.4668 15.794922 C 453.21553 15.992627 452.98262 16.007845 452.69336 15.847656 C 452.29662 15.627909 452.25329 15.145155 452.59961 14.798828 C 452.76059 14.637861 452.91867 14.561069 453.08008 14.566406 z M 403.64844 15.369141 C 404.07611 15.355376 404.43538 15.538511 404.61133 15.898438 C 404.74499 16.171972 404.74746 16.232623 404.64062 16.488281 C 404.57521 16.644876 404.36282 16.926046 404.16797 17.113281 C 403.58478 17.673685 402.868 17.79426 402.30859 17.427734 C 401.68521 17.01927 401.95151 16.088436 402.82812 15.611328 C 403.1099 15.457967 403.39184 15.377399 403.64844 15.369141 z M 441.45898 15.382812 C 442.16675 15.341316 443.13874 15.79588 443.31836 16.462891 C 443.43011 16.877916 443.31331 17.219793 442.98828 17.439453 C 442.67147 17.653618 442.2725 17.674171 441.78906 17.501953 C 440.91223 17.189596 440.45704 16.429271 440.75586 15.773438 C 440.87 15.522945 441.13727 15.401675 441.45898 15.382812 z M 403.50977 15.873047 C 403.41918 15.877045 403.32018 15.89491 403.21289 15.931641 C 402.64986 16.12439 402.4175 16.62858 402.73242 16.976562 C 402.91254 17.175614 403.3146 17.170012 403.6543 16.962891 C 404.33695 16.546671 404.14387 15.845061 403.50977 15.873047 z M 441.91406 15.896484 C 441.84346 15.891446 441.76824 15.892107 441.69141 15.898438 C 441.42577 15.920322 441.35892 15.966239 441.29102 16.160156 C 441.18287 16.469536 441.35902 16.788918 441.74414 16.982422 C 442.29388 17.258651 442.73828 17.127151 442.73828 16.6875 C 442.73828 16.23757 442.40826 15.931753 441.91406 15.896484 z M 399.18555 16.298828 C 399.18962 16.298213 399.19347 16.298828 399.19727 16.298828 L 399.19922 16.298828 C 399.20013 16.299297 399.20406 16.302037 399.20508 16.302734 C 399.3437 16.417232 400.27344 18.254268 400.27344 18.423828 C 400.27344 18.487129 400.22095 18.539062 400.15625 18.539062 C 400.09156 18.539062 399.98863 18.552199 399.92773 18.568359 C 399.7933 18.604154 398.03785 18.474489 397.89062 18.417969 C 397.69636 18.343424 397.78206 18.11352 398.27734 17.390625 C 398.79482 16.635377 399.05924 16.317904 399.18555 16.298828 z M 446.13281 16.324219 C 446.1811 16.32514 446.23367 16.360296 446.3125 16.431641 C 446.6115 16.702238 447.55815 18.131365 447.53125 18.271484 C 447.51607 18.350281 447.38445 18.431154 447.21484 18.464844 C 447.05543 18.496594 446.55791 18.536468 446.10938 18.554688 C 444.92487 18.602802 444.91947 18.593104 445.45508 17.515625 C 445.69356 17.03588 445.88867 16.608163 445.88867 16.564453 C 445.88867 16.520803 445.94633 16.438359 446.01562 16.380859 C 446.0608 16.34339 446.09525 16.323502 446.13281 16.324219 z M 393.01953 16.712891 C 393.24079 16.714736 393.45659 16.856119 393.59766 17.128906 C 393.7563 17.435727 393.6874 17.740894 393.41016 17.958984 C 393.11639 18.190051 392.83823 18.164416 392.55469 17.880859 C 392.25404 17.580198 392.24596 17.303147 392.52734 16.96875 C 392.67347 16.795079 392.84744 16.711455 393.01953 16.712891 z M 452.36328 16.714844 C 452.52003 16.716982 452.68114 16.780746 452.81836 16.917969 C 453.07678 17.176545 453.0845 17.547994 452.83594 17.826172 C 452.39223 18.322755 451.69531 18.088611 451.69531 17.443359 C 451.69531 17.000063 452.01844 16.710139 452.36328 16.714844 z M 405.07031 17.542969 C 405.41689 17.542969 405.85243 17.79748 405.97852 18.074219 C 406.17057 18.495747 405.73833 19.301785 405.10547 19.703125 C 404.64541 19.994934 404.17444 20.025656 403.7832 19.787109 C 403.42721 19.569899 403.31867 19.340676 403.38477 18.949219 C 403.50124 18.259759 404.36078 17.542969 405.07031 17.542969 z M 440.18945 17.59375 C 441.55526 17.626254 442.53519 19.057201 441.64648 19.720703 C 441.18972 20.061741 440.50009 19.959798 439.9082 19.462891 C 439.46413 19.090066 439.30807 18.763977 439.35938 18.308594 C 439.41952 17.775069 439.64399 17.58081 440.18945 17.59375 z M 404.93555 18.054688 C 404.84025 18.053129 404.73755 18.096345 404.55469 18.193359 C 404.21027 18.376067 403.92383 18.733106 403.92383 18.980469 C 403.92383 19.049949 404.02044 19.184777 404.14062 19.279297 C 404.26081 19.373792 404.42365 19.451172 404.50195 19.451172 C 404.73747 19.451172 405.1992 19.092491 405.34961 18.792969 C 405.51456 18.464468 405.44209 18.253342 405.11328 18.103516 C 405.04752 18.073551 404.99272 18.055622 404.93555 18.054688 z M 440.3457 18.097656 C 440.10777 18.112475 439.95684 18.271222 439.93359 18.548828 C 439.91233 18.800795 439.9545 18.883743 440.20703 19.105469 C 440.42933 19.300601 440.58415 19.367188 440.82031 19.367188 C 441.68833 19.367188 441.52334 18.39117 440.61133 18.130859 C 440.51394 18.103064 440.42502 18.092717 440.3457 18.097656 z M 393.84961 18.787109 C 394.11502 18.787109 394.55078 19.198811 394.55078 19.449219 C 394.55078 19.664754 394.40509 19.952783 394.22656 20.089844 C 393.8331 20.391946 393.22461 20.029277 393.22461 19.492188 C 393.22461 19.130089 393.52875 18.787109 393.84961 18.787109 z M 451.4043 18.802734 C 451.44615 18.802451 451.49252 18.809438 451.54688 18.820312 C 451.93825 18.89859 452.10938 19.094197 452.10938 19.466797 C 452.10938 19.698798 452.05263 19.847772 451.90625 19.994141 C 451.77793 20.122476 451.60689 20.197266 451.44531 20.197266 C 451.103 20.197266 450.7832 19.874904 450.7832 19.53125 C 450.7832 19.353341 450.86194 19.192749 451.03516 19.019531 C 451.19282 18.861845 451.27873 18.803584 451.4043 18.802734 z M 444.81836 18.875 C 444.85182 18.871286 444.89112 18.886012 444.94141 18.916016 C 445.1171 19.020899 446.05469 20.740065 446.05469 20.957031 C 446.05469 21.096411 445.97406 21.109016 445.08008 21.097656 C 443.91151 21.082746 443.65236 21.048551 443.59766 20.90625 C 443.5973 20.905322 443.5979 20.903448 443.59766 20.902344 C 443.58992 20.823137 443.8013 20.409458 444.08008 19.966797 C 444.36786 19.509855 444.64672 19.067172 444.69922 18.982422 C 444.74109 18.914534 444.77533 18.879775 444.81836 18.875 z M 400.47266 18.884766 C 400.55816 18.881364 400.65167 18.969903 400.73633 19.134766 C 400.81394 19.285856 401.08158 19.719403 401.33008 20.097656 C 401.57471 20.469987 401.75644 20.822389 401.74023 20.890625 L 401.74023 20.892578 C 401.71719 20.952597 401.57811 21.027351 401.43164 21.056641 C 401.28514 21.085941 400.74153 21.109375 400.22266 21.109375 C 399.29435 21.109375 399.2793 21.10703 399.2793 20.919922 C 399.2793 20.654664 400.28284 18.918939 400.45508 18.886719 C 400.46069 18.885667 400.46696 18.884992 400.47266 18.884766 z M 438.55273 19.607422 C 439.1954 19.633888 439.97968 20.126181 440.20898 20.726562 C 440.37464 21.160356 440.27094 21.691083 439.98047 21.894531 C 439.80521 22.017381 439.18574 22.058494 438.92188 21.964844 C 438.32913 21.754517 437.76172 21.035094 437.76172 20.496094 C 437.76172 20.141586 437.9433 19.742909 438.13867 19.667969 C 438.26328 19.620152 438.40443 19.601314 438.55273 19.607422 z M 406.73828 19.611328 C 406.95724 19.6226 407.16435 19.698242 407.33594 19.851562 C 407.5514 20.043923 407.59789 20.146698 407.58789 20.402344 C 407.57188 20.828547 407.16854 21.516496 406.77539 21.789062 C 405.87896 22.410532 404.81355 21.890286 405.08008 20.960938 C 405.31797 20.131554 406.08139 19.577513 406.73828 19.611328 z M 406.51562 20.128906 C 405.9324 20.158519 405.35603 20.96735 405.74023 21.351562 C 405.83543 21.446739 405.99697 21.523604 406.09961 21.523438 C 406.6074 21.522596 407.18773 20.79997 407.00391 20.396484 C 406.95504 20.289277 406.81574 20.176644 406.69531 20.146484 C 406.63587 20.131567 406.57596 20.125843 406.51562 20.128906 z M 438.69531 20.128906 C 438.51428 20.128606 438.41296 20.219319 438.33594 20.421875 C 438.21971 20.727617 438.40991 21.134588 438.77539 21.357422 C 439.1234 21.569712 439.37539 21.567955 439.59375 21.349609 C 439.93481 21.008544 439.60639 20.366442 438.99609 20.183594 C 438.87572 20.147527 438.7776 20.129043 438.69531 20.128906 z M 394.85352 20.837891 C 395.36429 20.822668 395.80658 21.476843 395.35938 21.96875 C 395.11417 22.238461 394.89207 22.289991 394.61523 22.140625 C 394.17196 21.901462 394.07864 21.353462 394.42578 21.027344 C 394.56131 20.900018 394.7105 20.842153 394.85352 20.837891 z M 450.51172 20.851562 C 450.67637 20.857403 450.83631 20.914427 450.94727 21.025391 C 451.18576 21.263769 451.16809 21.726464 450.91016 21.984375 C 450.29772 22.596833 449.4213 21.761679 449.95898 21.078125 C 450.08235 20.921276 450.30003 20.844054 450.51172 20.851562 z M 443.3125 21.287109 C 443.46159 21.29115 443.62284 21.605358 443.99219 22.587891 C 444.28755 23.373379 444.32451 23.538383 444.22461 23.601562 C 444.07729 23.69475 444.12244 23.698126 443.06836 23.509766 C 441.88791 23.298785 441.82422 23.280503 441.82422 23.138672 C 441.82422 22.985977 443.13462 21.326656 443.2832 21.291016 C 443.2931 21.288643 443.30256 21.28684 443.3125 21.287109 z M 402.04883 21.300781 C 402.12632 21.295088 402.2006 21.361037 402.28906 21.482422 C 402.3888 21.619267 402.70489 22.02227 402.99023 22.376953 C 403.2711 22.726094 403.50067 23.063307 403.50781 23.134766 L 403.50781 23.136719 C 403.50781 23.249402 403.3861 23.28554 402.19727 23.513672 C 401.95553 23.560112 401.59169 23.597656 401.38867 23.597656 C 400.91738 23.597656 400.91945 23.568198 401.41797 22.361328 C 401.72282 21.623325 401.89015 21.312438 402.04883 21.300781 z M 436.68945 21.416016 C 436.88979 21.412636 437.12723 21.49092 437.42383 21.652344 C 438.20374 22.076793 438.54613 22.759903 438.30078 23.402344 C 438.22454 23.60198 438.09934 23.797148 438.02344 23.835938 C 437.78055 23.960157 437.47739 23.995924 437.24414 23.927734 C 436.17017 23.614437 435.57225 22.34925 436.17578 21.673828 C 436.32675 21.504843 436.48911 21.419395 436.68945 21.416016 z M 408.56836 21.441406 C 408.73637 21.442855 408.90295 21.482011 409.05859 21.5625 C 409.32838 21.702022 409.39648 21.837675 409.39648 22.238281 C 409.39648 22.847566 408.91397 23.606096 408.36914 23.853516 C 407.99058 24.025456 407.9005 24.032758 407.50977 23.919922 C 407.1135 23.805479 406.96271 23.522452 407.00781 22.978516 C 407.07948 22.114358 407.84031 21.435126 408.56836 21.441406 z M 408.41016 21.980469 C 408.13897 21.976101 407.83729 22.158126 407.65625 22.455078 C 407.44316 22.803099 407.44571 23.05509 407.66406 23.273438 C 408.00516 23.614513 408.64724 23.286076 408.83008 22.675781 C 408.94551 22.290574 408.88641 22.125687 408.5918 22.013672 C 408.53447 21.991878 408.47274 21.981477 408.41016 21.980469 z M 436.87695 21.984375 C 436.33842 22.001648 436.2676 22.848837 436.95117 23.265625 C 437.29338 23.474291 437.46888 23.474479 437.67773 23.265625 C 438.00427 22.939076 437.77338 22.329688 437.22266 22.068359 C 437.09258 22.006634 436.97668 21.981176 436.87695 21.984375 z M 396.01953 22.775391 C 396.17189 22.778692 396.32779 22.849578 396.47461 22.990234 C 396.78186 23.284751 396.78715 23.660126 396.48828 23.958984 C 396.21234 24.235099 395.96138 24.236073 395.63672 23.962891 C 395.30686 23.685406 395.28427 23.270442 395.58398 22.970703 C 395.71856 22.83615 395.86718 22.772089 396.01953 22.775391 z M 449.35938 22.789062 C 449.70379 22.80086 449.95555 23.053726 449.95117 23.416016 C 449.94827 23.75052 449.84138 23.934536 449.56445 24.082031 C 449.33164 24.206071 449.2162 24.200047 448.9375 24.048828 C 448.40583 23.760355 448.59175 22.900631 449.20703 22.800781 C 449.25959 22.792251 449.31017 22.787377 449.35938 22.789062 z M 434.63086 22.992188 C 435.30695 22.977211 436.26826 23.865986 436.26758 24.628906 C 436.2672 25.034887 436.01737 25.478536 435.72461 25.589844 C 435.21906 25.782058 434.62448 25.489464 434.17773 24.828125 C 433.73673 24.175229 433.82368 23.334673 434.36133 23.056641 C 434.44261 23.01461 434.53428 22.994327 434.63086 22.992188 z M 410.52148 23.023438 C 410.78917 23.025667 411.09353 23.108496 411.23047 23.232422 C 411.75074 23.703272 411.22219 25.222245 410.42188 25.556641 C 409.90838 25.771198 409.48888 25.658909 409.23242 25.238281 C 409.14112 25.088456 409.06616 24.853642 409.06641 24.716797 C 409.06761 24.124048 409.75041 23.180098 410.27344 23.048828 C 410.34719 23.030318 410.43225 23.022694 410.52148 23.023438 z M 441.53516 23.498047 C 441.54605 23.497675 441.55528 23.499371 441.5625 23.503906 C 441.68351 23.60271 442.23038 25.411632 442.23633 25.732422 C 442.23851 25.882455 442.19502 25.920116 442.01172 25.916016 C 441.60205 25.908024 439.98007 25.387736 439.88477 25.234375 C 439.80828 25.111351 439.92021 24.965251 440.62305 24.263672 C 441.14922 23.73845 441.42989 23.501643 441.53516 23.498047 z M 403.82617 23.544922 C 403.94635 23.525251 404.13789 23.689042 404.75195 24.300781 C 405.53516 25.081134 405.57222 25.135134 405.43555 25.265625 C 405.35593 25.341638 404.87008 25.520394 404.35547 25.662109 C 403.17944 25.985993 403.09161 25.987768 403.09961 25.691406 C 403.11063 25.275697 403.6259 23.658783 403.77734 23.564453 C 403.79261 23.554943 403.809 23.547732 403.82617 23.544922 z M 434.86328 23.599609 C 434.69568 23.597736 434.54842 23.683336 434.45117 23.857422 C 434.34078 24.055148 434.34244 24.111874 434.48047 24.417969 C 434.56481 24.604958 434.75121 24.832228 434.89258 24.923828 C 435.21715 25.134003 435.42062 25.108188 435.62891 24.828125 C 435.84265 24.54073 435.76878 24.243396 435.39453 23.869141 C 435.21738 23.691989 435.03089 23.601483 434.86328 23.599609 z M 410.37891 23.609375 C 410.19006 23.606395 410.10056 23.665435 409.90625 23.886719 C 409.54678 24.296059 409.54107 24.891789 409.89453 25.03125 C 410.05252 25.093591 410.39783 25.022624 410.55078 24.896484 C 410.61546 24.843138 410.73812 24.641516 410.82422 24.447266 C 410.95922 24.142473 410.96655 24.061462 410.87305 23.865234 C 410.78919 23.689357 410.69734 23.632571 410.4668 23.613281 C 410.43512 23.610623 410.40588 23.609801 410.37891 23.609375 z M 432.57227 24.3125 C 432.63357 24.313677 432.69346 24.323741 432.74609 24.34375 C 433.39031 24.588682 433.94584 25.363645 433.94531 26.013672 C 433.94496 26.446102 433.70389 26.885344 433.40234 27 C 433.11558 27.108997 433.04693 27.101079 432.65234 26.921875 C 431.89335 26.577113 431.42606 25.32461 431.82812 24.710938 C 431.98571 24.470484 432.30662 24.307399 432.57227 24.3125 z M 412.81641 24.333984 C 413.0217 24.339581 413.21986 24.421036 413.38477 24.585938 C 413.59239 24.793519 413.62578 24.891241 413.625 25.269531 C 413.62362 26.016094 413.17441 26.776643 412.60547 26.992188 C 412.18569 27.151251 411.82158 27.036999 411.57422 26.669922 C 411.32937 26.306482 411.33256 25.830936 411.58398 25.291016 C 411.87165 24.673222 412.36477 24.321671 412.81641 24.333984 z M 397.25977 24.591797 C 397.4865 24.591797 397.85793 24.866062 397.95703 25.105469 C 398.07098 25.380523 397.94089 25.791494 397.69727 25.921875 C 397.22869 26.172646 396.56075 25.730752 396.65625 25.232422 C 396.71055 24.949424 397.04724 24.591797 397.25977 24.591797 z M 447.97656 24.648438 C 448.19955 24.634032 448.42976 24.728459 448.57617 24.9375 C 448.77381 25.219639 448.73823 25.488344 448.4668 25.759766 C 448.16219 26.064439 447.81935 26.078507 447.51758 25.798828 C 447.26949 25.568856 447.24275 25.354303 447.41992 25.011719 C 447.53681 24.78564 447.75358 24.662843 447.97656 24.648438 z M 432.66992 24.923828 C 432.41049 24.923828 432.20508 25.170217 432.20508 25.480469 C 432.20508 25.807429 432.38916 26.206677 432.59766 26.328125 C 432.815 26.454725 433.17112 26.43435 433.31836 26.287109 C 433.68772 25.917744 433.21517 24.923828 432.66992 24.923828 z M 412.67773 24.929688 C 412.5213 24.930039 412.37155 25.005415 412.2168 25.160156 C 411.94095 25.436094 411.8211 25.922423 411.95703 26.220703 C 412.03853 26.400058 412.09667 26.422541 412.40039 26.400391 C 412.69169 26.379145 412.78159 26.328719 412.93945 26.09375 C 413.18634 25.726057 413.2026 25.134937 412.96875 25.009766 C 412.86773 24.955704 412.7716 24.929477 412.67773 24.929688 z M 430.11719 25.361328 C 430.34221 25.342526 430.58793 25.460786 430.86914 25.714844 C 431.29946 26.103617 431.57348 26.744765 431.51758 27.238281 C 431.48425 27.534084 431.41189 27.672138 431.17773 27.886719 C 430.82134 28.213386 430.52078 28.237419 430.125 27.970703 C 429.40471 27.485197 429.08985 26.424216 429.49023 25.830078 C 429.68844 25.535962 429.89216 25.38013 430.11719 25.361328 z M 415.12891 25.382812 C 415.23054 25.381077 415.33498 25.397806 415.43945 25.4375 C 415.82547 25.584173 415.97284 25.89123 415.96484 26.523438 C 415.95677 27.092186 415.70174 27.685787 415.35742 27.935547 C 415.23716 28.022769 414.97644 28.112436 414.77734 28.134766 C 414.47398 28.168814 414.37778 28.141732 414.19141 27.96875 C 413.36871 27.205207 414.14646 25.399588 415.12891 25.382812 z M 439.41406 25.505859 C 439.41487 25.505746 439.41925 25.505859 439.41992 25.505859 C 439.46277 25.505859 439.53312 25.57258 439.57812 25.65625 C 439.67622 25.839557 439.91797 27.292935 439.91797 27.701172 C 439.91797 28.083831 439.8502 28.078406 438.68164 27.595703 C 437.58321 27.141983 437.43282 26.994236 437.80273 26.724609 C 437.9396 26.62487 438.34259 26.308767 438.69727 26.023438 C 439.04086 25.747024 439.35565 25.519823 439.41406 25.505859 z M 405.90234 25.546875 C 406.01485 25.54987 406.20909 25.680627 406.62305 26.013672 C 406.98498 26.304858 407.39439 26.624859 407.53125 26.724609 C 407.8991 26.992717 407.74893 27.145097 406.71875 27.554688 C 405.54756 28.020337 405.44182 28.044898 405.38672 27.855469 C 405.31073 27.593679 405.69085 25.655273 405.83594 25.564453 C 405.85478 25.55265 405.87638 25.546184 405.90234 25.546875 z M 430.27344 25.970703 C 430.25204 25.970883 430.23102 25.973263 430.21094 25.978516 C 429.66946 26.120065 429.68344 27.064706 430.23242 27.449219 C 430.33406 27.520358 430.48079 27.578125 430.55859 27.578125 C 430.74816 27.578125 431.04297 27.190442 431.04297 26.941406 C 431.04297 26.514816 430.59441 25.968 430.27344 25.970703 z M 415.0332 26.013672 C 414.76291 26.016246 414.4905 26.267095 414.36914 26.634766 C 414.26972 26.93603 414.32036 27.206795 414.51953 27.433594 C 414.7035 27.643083 414.93293 27.611971 415.20312 27.341797 C 415.6716 26.873318 415.60227 26.077058 415.08789 26.017578 C 415.06994 26.015501 415.05122 26.0135 415.0332 26.013672 z M 427.73242 26.134766 C 427.93014 26.130596 428.1347 26.208196 428.31641 26.378906 C 429.04891 27.067103 429.17345 28.221372 428.57422 28.763672 C 428.48396 28.845339 428.28478 28.932058 428.13086 28.955078 C 427.32543 29.075643 426.57385 27.733268 426.92773 26.806641 C 427.09117 26.378684 427.40289 26.141715 427.73242 26.134766 z M 417.49023 26.185547 C 417.55059 26.180528 417.61453 26.181199 417.67969 26.185547 C 418.2471 26.223426 418.39648 26.477696 418.39648 27.412109 C 418.39648 28.198421 418.30688 28.417725 417.85156 28.753906 C 416.9 29.456484 416.01697 28.269673 416.54688 27 C 416.76121 26.486438 417.06773 26.220681 417.49023 26.185547 z M 398.69727 26.400391 C 398.79656 26.397051 398.89733 26.419532 398.99219 26.46875 C 399.4648 26.713926 399.56768 27.090703 399.27344 27.503906 C 399.13507 27.698264 399.04035 27.744141 398.7832 27.744141 C 398.52908 27.744141 398.42115 27.69171 398.25 27.488281 C 398.00288 27.194566 397.98741 27.080398 398.15625 26.753906 C 398.26914 26.535582 398.47882 26.407739 398.69727 26.400391 z M 446.55859 26.412109 C 446.97656 26.408805 447.34184 26.722271 447.26562 27.103516 C 447.23702 27.246552 447.13356 27.44791 447.03516 27.552734 C 446.68082 27.929938 445.88867 27.662018 445.88867 27.164062 C 445.88867 26.925968 446.10244 26.53135 446.26562 26.46875 C 446.36299 26.431386 446.46214 26.412872 446.55859 26.412109 z M 420.2168 26.582031 C 420.47705 26.592114 420.68011 26.763617 420.85352 27.103516 C 421.22315 27.828037 421.06056 28.842006 420.50977 29.248047 C 420.01044 29.616162 419.37678 29.439792 419.13672 28.865234 C 418.82556 28.120524 419.09989 27.048324 419.68164 26.736328 C 419.88339 26.628133 420.06064 26.575981 420.2168 26.582031 z M 425.27344 26.582031 C 425.49066 26.582031 425.61308 26.65331 425.83984 26.904297 C 426.18686 27.288394 426.34561 27.720927 426.34961 28.287109 C 426.35205 28.765689 426.12556 29.159971 425.73242 29.363281 C 425.43436 29.517359 425.34571 29.515163 425.00586 29.347656 C 424.47253 29.084809 424.13218 28.134188 424.32031 27.435547 C 424.44066 26.988616 424.89369 26.582031 425.27344 26.582031 z M 417.57227 26.748047 C 417.06194 26.746187 416.63648 27.635582 416.99023 28.140625 C 417.16385 28.388486 417.5253 28.380824 417.76562 28.125 C 418.09357 27.776194 418.07175 26.909513 417.73242 26.779297 C 417.67859 26.758639 417.62506 26.748239 417.57227 26.748047 z M 422.75586 26.75 C 423.28847 26.749443 423.6795 27.399483 423.6875 28.304688 C 423.69337 28.885719 423.56136 29.138617 423.08203 29.464844 C 422.70371 29.722366 422.46186 29.699006 422.09961 29.371094 C 421.78483 29.086155 421.65148 28.742667 421.64648 28.205078 C 421.63941 27.324471 422.07694 26.750727 422.75586 26.75 z M 427.81836 26.759766 C 427.25724 26.748205 427.12493 27.606401 427.625 28.179688 C 427.7847 28.362675 428.1225 28.366517 428.32031 28.1875 C 428.68618 27.856405 428.36092 26.820672 427.87305 26.763672 C 427.85406 26.761452 427.83646 26.760139 427.81836 26.759766 z M 425.31445 27.207031 C 425.131 27.209338 424.91592 27.322268 424.82812 27.486328 C 424.6303 27.855958 424.7797 28.53082 425.10938 28.759766 C 425.42119 28.9763 425.90039 28.598845 425.90039 28.138672 C 425.90039 27.827003 425.67556 27.348561 425.48047 27.244141 C 425.4321 27.218252 425.3756 27.206262 425.31445 27.207031 z M 420.05273 27.255859 C 419.99798 27.258755 419.94 27.26738 419.87695 27.283203 C 419.45589 27.388877 419.30685 28.288566 419.64844 28.666016 L 419.64844 28.667969 C 419.82653 28.86439 420.10649 28.865575 420.3457 28.671875 C 420.48054 28.562817 420.54171 28.408197 420.56641 28.111328 C 420.61516 27.529041 420.43599 27.235589 420.05273 27.255859 z M 408.11328 27.275391 C 408.18788 27.26942 408.59734 27.483511 409.04102 27.761719 C 409.49901 28.04889 409.944 28.326576 410.0293 28.378906 C 410.28603 28.536381 410.08591 28.725569 409.10938 29.25 C 408.61393 29.516062 408.14024 29.734375 408.05664 29.734375 C 407.9187 29.734375 407.90353 29.653121 407.9043 28.84375 C 407.90536 27.815505 407.96861 27.331334 408.10938 27.277344 L 408.11133 27.277344 L 408.11328 27.275391 z M 437.20898 27.275391 C 437.21362 27.275005 437.21762 27.274755 437.2207 27.275391 L 437.22266 27.277344 C 437.36326 27.331347 437.4269 27.815505 437.42773 28.84375 C 437.42863 29.713769 437.42429 29.733331 437.24219 29.732422 C 436.99812 29.730473 435.27704 28.764007 435.21094 28.591797 C 435.17993 28.511042 435.21995 28.424684 435.31055 28.371094 C 435.39259 28.322566 435.83303 28.04889 436.29102 27.761719 C 436.72037 27.492486 437.11633 27.283095 437.20898 27.275391 z M 422.75586 27.363281 C 422.57788 27.369481 422.34171 27.498291 422.21875 27.673828 C 421.99773 27.989397 422.07165 28.548209 422.375 28.851562 C 422.69984 29.176398 423.24805 28.817286 423.24805 28.279297 C 423.24805 27.93286 423.04213 27.446016 422.86719 27.378906 C 422.83427 27.366275 422.79693 27.361851 422.75586 27.363281 z M 400.23438 28.037109 C 400.34847 28.035737 400.46821 28.08551 400.61133 28.181641 C 400.98042 28.429533 401.04947 28.898764 400.76172 29.205078 C 400.509 29.47405 400.08659 29.471354 399.81445 29.199219 C 399.55576 28.940388 399.54802 28.568653 399.79688 28.294922 C 399.95218 28.124097 400.08769 28.038873 400.23438 28.037109 z M 445.125 28.089844 C 445.68581 28.125554 445.94559 28.773149 445.51953 29.199219 C 445.26068 29.458044 444.88897 29.465646 444.61523 29.216797 C 444.31155 28.940713 444.28222 28.727539 444.50195 28.400391 C 444.65462 28.173032 444.75497 28.112867 445.00977 28.091797 C 445.04972 28.08849 445.08761 28.087463 445.125 28.089844 z M 410.58984 28.740234 C 410.59356 28.739594 410.59787 28.740234 410.60156 28.740234 C 410.66056 28.740234 411.07654 28.926616 411.52539 29.154297 C 411.97423 29.381979 412.38415 29.56797 412.43555 29.568359 C 412.48701 29.568751 412.57521 29.626062 412.63281 29.695312 C 412.77629 29.868187 412.61481 30.032967 411.6582 30.695312 C 410.8851 31.230538 410.69886 31.306009 410.5918 31.132812 C 410.52214 31.019906 410.41334 29.190302 410.46094 28.925781 C 410.47813 28.829538 410.53414 28.749833 410.58984 28.740234 z M 434.72852 28.740234 C 434.73194 28.739756 434.73377 28.740234 434.73633 28.740234 C 434.89181 28.740234 434.91465 29.019032 434.84375 30.103516 C 434.80273 30.731059 434.73872 31.134355 434.66992 31.203125 C 434.5805 31.292558 434.42365 31.217367 433.77734 30.777344 C 432.94413 30.210082 432.61914 29.94149 432.61914 29.818359 L 432.61914 29.816406 L 432.61914 29.814453 C 432.61961 29.813581 432.62235 29.811525 432.62305 29.810547 C 432.73594 29.67838 434.51982 28.769438 434.72852 28.740234 z M 401.875 29.576172 C 401.98776 29.575771 402.1111 29.61358 402.25781 29.689453 C 402.66064 29.897758 402.72819 30.43979 402.39258 30.775391 C 402.13066 31.037267 401.84358 31.033035 401.52344 30.763672 C 401.19358 30.486189 401.17292 30.071213 401.47266 29.771484 C 401.60365 29.640461 401.73002 29.576687 401.875 29.576172 z M 443.34375 29.580078 C 443.47763 29.579447 443.62711 29.632063 443.79492 29.734375 C 444.02395 29.873864 444.06445 29.946454 444.06445 30.216797 C 444.06445 30.440207 444.00784 30.586814 443.87695 30.708984 C 443.62306 30.945999 443.31972 31.000719 443.05664 30.855469 C 442.75284 30.687687 442.63317 30.318199 442.78711 30.021484 C 442.93948 29.727778 443.12062 29.58113 443.34375 29.580078 z M 432.10156 29.943359 C 432.16425 29.938216 432.20309 29.949188 432.22852 29.974609 C 432.29631 30.042377 432.27238 30.359534 432.13477 31.166016 C 431.92458 32.397998 431.85054 32.542954 431.53906 32.332031 C 431.0599 32.007558 429.96484 30.950922 429.96484 30.8125 C 429.96484 30.700691 430.09859 30.621086 430.48438 30.5 C 430.7697 30.410429 431.25837 30.234174 431.57031 30.109375 C 431.83059 30.00523 431.99708 29.951931 432.10156 29.943359 z M 413.14648 29.96875 C 413.26116 29.960729 413.5263 30.034169 413.94922 30.191406 C 414.3752 30.349775 414.86976 30.518706 415.04688 30.566406 C 415.54797 30.701345 415.47216 30.879367 414.58203 31.654297 C 413.64664 32.468643 413.58987 32.503366 413.46875 32.357422 C 413.32618 32.185633 412.99717 30.120305 413.08984 29.990234 L 413.08984 29.988281 L 413.0918 29.988281 C 413.10233 29.977746 413.12002 29.970601 413.14648 29.96875 z M 415.86133 30.859375 C 415.92706 30.84632 416.21724 30.896941 416.53516 30.976562 C 416.87429 31.06154 417.36762 31.175326 417.63281 31.228516 C 417.89801 31.281718 418.13596 31.376173 418.16016 31.439453 C 418.21285 31.576827 418.05123 31.78973 417.24219 32.650391 C 416.91671 32.996648 416.61031 33.283291 416.54688 33.300781 C 416.54598 33.300923 416.54178 33.300781 416.54102 33.300781 C 416.41072 33.300781 416.32836 33.109764 416.04102 32.146484 C 415.77827 31.266054 415.73066 30.938031 415.85156 30.863281 L 415.85352 30.863281 C 415.8552 30.862706 415.85914 30.85981 415.86133 30.859375 z M 429.47852 30.861328 C 429.6076 30.941104 429.55371 31.256791 429.23633 32.263672 C 429.0232 32.939801 428.87936 33.265873 428.78906 33.283203 L 428.78711 33.283203 C 428.60322 33.288681 427.13063 31.655773 427.16406 31.480469 C 427.17713 31.412663 427.29904 31.329102 427.43555 31.294922 C 428.74276 30.967658 429.41882 30.824468 429.47852 30.861328 z M 441.63086 30.998047 C 441.80955 30.991231 441.9931 31.071105 442.1543 31.244141 C 442.39826 31.505952 442.36934 31.857209 442.08008 32.146484 C 441.94675 32.279825 441.76885 32.387393 441.68555 32.386719 C 441.43681 32.384711 441.13447 32.194652 441 31.955078 C 440.88496 31.75027 440.88679 31.704665 441.02539 31.447266 C 441.18019 31.159831 441.40112 31.006811 441.63086 30.998047 z M 403.58984 31 C 403.70656 30.995316 403.83637 31.025874 403.97461 31.091797 C 404.46346 31.324916 404.53102 31.892934 404.10938 32.224609 C 403.82689 32.446821 403.57123 32.430977 403.26562 32.173828 C 402.97893 31.932582 402.94214 31.682924 403.13672 31.306641 C 403.23768 31.111369 403.39532 31.007807 403.58984 31 z M 418.68555 31.447266 C 418.79177 31.43794 419.13644 31.468766 419.51562 31.521484 C 419.94898 31.5817 420.45268 31.64165 420.63477 31.65625 C 420.87467 31.675498 420.97364 31.724035 420.99414 31.832031 C 421.01954 31.966018 420.2515 33.127537 419.81836 33.611328 C 419.72661 33.713512 419.60735 33.798828 419.55273 33.798828 L 419.55078 33.798828 C 419.42434 33.773853 418.69555 32.172896 418.63086 31.775391 C 418.60556 31.622256 418.61695 31.478688 418.65625 31.455078 L 418.6582 31.453125 C 418.66389 31.451215 418.67417 31.448265 418.68555 31.447266 z M 426.55469 31.462891 C 426.7243 31.46596 426.70034 31.51704 426.71484 31.619141 C 426.73919 31.790331 426.06594 33.466034 425.88086 33.695312 C 425.83768 33.748793 425.77911 33.793497 425.74609 33.798828 C 425.74505 33.798918 425.74122 33.798828 425.74023 33.798828 C 425.54522 33.798828 424.29834 32.047586 424.33984 31.832031 C 424.36246 31.71464 424.52639 31.671427 425.23828 31.591797 C 426.02214 31.504139 426.38507 31.459821 426.55469 31.462891 z M 422.64844 31.744141 C 423.64745 31.724706 423.84006 31.740794 423.88086 31.847656 C 423.91284 31.986417 423.12667 33.488706 422.84766 33.818359 C 422.7801 33.898164 422.68065 33.964844 422.62695 33.964844 L 422.625 33.964844 C 422.6239 33.964627 422.62034 33.96332 422.61914 33.962891 C 422.45571 33.882947 421.47852 32.173578 421.4707 31.945312 C 421.46515 31.771636 421.49715 31.766571 422.64844 31.744141 z M 439.75 32.3125 C 439.86475 32.30504 439.98324 32.335166 440.10938 32.402344 C 440.54388 32.633759 440.60776 32.991256 440.2832 33.376953 C 440.00573 33.706752 439.59075 33.729414 439.29102 33.429688 C 439.01409 33.152683 439.02527 32.81198 439.32031 32.529297 C 439.46113 32.394387 439.60247 32.322092 439.75 32.3125 z M 405.54297 32.314453 C 406.09916 32.340111 406.44923 32.935005 406.08008 33.404297 C 405.73966 33.837052 405.00953 33.657076 404.87109 33.105469 C 404.80238 32.831657 405.03858 32.403714 405.29297 32.339844 C 405.37928 32.318184 405.46351 32.310788 405.54297 32.314453 z M 437.85547 33.470703 C 438.00082 33.47427 438.15226 33.529643 438.29102 33.654297 C 438.60617 33.93749 438.61192 34.282622 438.30469 34.589844 C 438.02858 34.866073 437.60869 34.865755 437.34766 34.587891 C 436.89218 34.103073 437.33636 33.457964 437.85547 33.470703 z M 407.4707 33.472656 C 407.62578 33.472945 407.78845 33.524509 407.93359 33.638672 C 408.21255 33.857979 408.23998 34.375275 407.98633 34.628906 C 407.58461 35.030628 406.82617 34.689365 406.82617 34.107422 C 406.82617 33.721305 407.12952 33.472021 407.4707 33.472656 z M 409.43359 34.462891 C 409.62058 34.450894 409.81459 34.535281 409.99414 34.714844 C 410.20432 34.92506 410.23706 35.009127 410.19336 35.226562 C 410.16465 35.369991 410.08076 35.555792 410.00586 35.638672 C 409.91869 35.734991 409.75331 35.789062 409.54688 35.789062 C 408.90209 35.789062 408.58045 35.105131 409.01953 34.666016 C 409.14593 34.539633 409.28816 34.472221 409.43359 34.462891 z M 435.74609 34.462891 C 435.75422 34.462056 435.76171 34.462891 435.76953 34.462891 C 436.40621 34.462891 436.74351 35.156875 436.31445 35.585938 C 436.1739 35.726544 436.01812 35.789062 435.8125 35.789062 C 435.4504 35.789062 435.10742 35.484902 435.10742 35.164062 C 435.10742 34.906915 435.49426 34.488769 435.74609 34.462891 z M 433.73438 35.332031 C 433.93853 35.319379 434.12936 35.410948 434.2793 35.601562 C 434.51045 35.895327 434.48472 36.175425 434.20117 36.458984 C 433.94663 36.713536 433.68386 36.760804 433.40625 36.601562 C 432.88788 36.304164 432.9116 35.693084 433.45117 35.414062 C 433.54706 35.364481 433.64158 35.337782 433.73438 35.332031 z M 411.57031 35.375 C 412.21512 35.375 412.53481 36.058933 412.0957 36.498047 C 411.67453 36.919234 410.93945 36.610079 410.93945 36.011719 C 410.93945 35.600582 411.16339 35.375 411.57031 35.375 z M 431.5957 36.037109 C 431.85924 36.037109 432.28711 36.459813 432.28711 36.71875 C 432.28711 36.826144 432.23176 36.993164 432.16406 37.089844 C 431.77478 37.645614 430.87695 37.353575 430.87695 36.671875 C 430.87695 36.416419 431.30691 36.037109 431.5957 36.037109 z M 413.70898 36.042969 C 413.8797 36.048404 414.05859 36.125006 414.21289 36.279297 C 414.49903 36.56547 414.5214 36.843669 414.2832 37.146484 L 414.28516 37.146484 C 414.14647 37.322807 414.04333 37.365234 413.75195 37.365234 C 413.46054 37.365234 413.35743 37.322796 413.21875 37.146484 C 413.01566 36.888396 413.00303 36.693987 413.16797 36.375 C 413.2855 36.147744 413.4895 36.03598 413.70898 36.042969 z M 429.42969 36.617188 C 429.58793 36.620394 429.74279 36.677689 429.86133 36.804688 C 430.17095 37.136232 430.18138 37.410413 429.89648 37.695312 C 429.42474 38.167051 428.7207 37.899957 428.7207 37.25 C 428.7207 36.868807 429.08156 36.610132 429.42969 36.617188 z M 415.92773 36.619141 C 416.52454 36.619141 416.8449 37.366391 416.41992 37.765625 C 415.97671 38.18203 415.28516 37.873774 415.28516 37.259766 C 415.28516 36.874863 415.54235 36.619141 415.92773 36.619141 z M 427.22656 37.027344 C 427.44406 37.040064 427.65414 37.14796 427.76953 37.371094 C 427.94385 37.708245 427.92177 37.843865 427.64844 38.117188 C 427.18491 38.58073 426.48242 38.307367 426.48242 37.664062 C 426.48242 37.248284 426.86406 37.006143 427.22656 37.027344 z M 418.19141 37.033203 C 418.78437 37.033203 419.07001 37.734684 418.64844 38.15625 C 418.22091 38.583767 417.49219 38.267127 417.49219 37.654297 C 417.49219 37.258472 417.7461 37.033203 418.19141 37.033203 z M 424.98633 37.269531 C 425.2031 37.282065 425.41296 37.390138 425.52734 37.611328 C 425.70645 37.957714 425.68508 38.092272 425.41016 38.367188 C 424.95287 38.824492 424.24219 38.541368 424.24219 37.902344 C 424.24219 37.490367 424.62504 37.248642 424.98633 37.269531 z M 420.38086 37.277344 C 420.59179 37.272717 420.80042 37.348082 420.91992 37.5 C 421.13546 37.774035 421.14266 38.205127 420.93555 38.392578 C 420.84997 38.470022 420.65147 38.554508 420.49414 38.580078 C 419.86736 38.681768 419.43962 37.827985 419.92188 37.4375 C 420.05041 37.333432 420.2168 37.280943 420.38086 37.277344 z M 422.66797 37.361328 C 422.8587 37.364342 423.04989 37.426412 423.16211 37.546875 C 423.38131 37.782278 423.38623 38.280811 423.17383 38.474609 C 423.08766 38.551799 422.88591 38.637919 422.72461 38.664062 C 422.48212 38.703413 422.39255 38.673822 422.2168 38.498047 C 421.9488 38.230291 421.92727 37.77392 422.16992 37.53125 C 422.28677 37.41443 422.47724 37.358314 422.66797 37.361328 z " /></g></svg>
