<?xml version="1.0" encoding="UTF-8" standalone="no"?>
<!-- Created with Inkscape (http://www.inkscape.org/) -->

<svg
   version="1.1"
   id="svg1"
   width="845.33331"
   height="60"
   viewBox="0 0 845.33331 60"
   sodipodi:docname="footerscroll.svg"
   inkscape:version="1.4.2 (ebf0e940d0, 2025-05-08)"
   xml:space="preserve"
   inkscape:export-filename="footerscroll.pdf"
   inkscape:export-xdpi="600"
   inkscape:export-ydpi="600"
   xmlns:inkscape="http://www.inkscape.org/namespaces/inkscape"
   xmlns:sodipodi="http://sodipodi.sourceforge.net/DTD/sodipodi-0.dtd"
   xmlns="http://www.w3.org/2000/svg"
   xmlns:svg="http://www.w3.org/2000/svg"><defs
     id="defs1"><clipPath
       clipPathUnits="userSpaceOnUse"
       id="clipPath28"><path
         d="M 0,0 H 612 V 792 H 0 Z"
         transform="translate(-291.80121,-47.486799)"
         id="path28" /></clipPath><clipPath
       clipPathUnits="userSpaceOnUse"
       id="clipPath26"><path
         d="M 0,0 H 612 V 792 H 0 Z"
         transform="translate(-322.72751,-36.398101)"
         id="path26" /></clipPath></defs><sodipodi:namedview
     id="namedview1"
     pagecolor="#ffffff"
     bordercolor="#000000"
     borderopacity="0.25"
     inkscape:showpageshadow="2"
     inkscape:pageopacity="0.0"
     inkscape:pagecheckerboard="0"
     inkscape:deskcolor="#d1d1d1"
     inkscape:zoom="1.00838"
     inkscape:cx="422.95562"
     inkscape:cy="-111.06924"
     inkscape:window-width="1920"
     inkscape:window-height="990"
     inkscape:window-x="0"
     inkscape:window-y="0"
     inkscape:window-maximized="1"
     inkscape:current-layer="g1"
     showgrid="false"><inkscape:page
       x="0"
       y="0"
       inkscape:label="1"
       id="page1"
       width="845.33331"
       height="60"
       margin="0"
       bleed="0" /></sodipodi:namedview><g
     id="g1"
     inkscape:groupmode="layer"
     inkscape:label="1"><path
       style="baseline-shift:baseline;display:inline;overflow:visible;vector-effect:none;fill:#8f431b;fill-opacity:1;enable-background:accumulate;stop-color:#000000"
       d="M 440.33268,12.691196 V 14.02518 H 734.66666 V 12.691196 Z"
       id="path2" /><path
       style="baseline-shift:baseline;display:inline;overflow:visible;vector-effect:none;fill:#8f431b;fill-opacity:1;enable-background:accumulate;stop-color:#000000"
       d="M 110.66666,12.691196 V 14.02518 H 405.00065 V 12.691196 Z"
       id="path3" /><path
       id="path4"
       d="m 0,0 c 1.91,-5.978 7.515,-10.322 14.119,-10.322 6.604,0 12.208,4.344 14.119,10.322 H 27.174 C 25.301,-5.416 20.164,-9.322 14.119,-9.322 8.074,-9.322 2.936,-5.416 1.064,0 Z"
       style="fill:#8f431b;fill-opacity:1;fill-rule:nonzero;stroke:none"
       transform="matrix(1.3333333,0,0,-1.3333333,403.84145,12.691872)"
       clip-path="url(#clipPath28)" /><path
       id="path5"
       style="fill:#8f431b;fill-opacity:1;stroke-width:0.141948"
       d="M 391.9668 13.324219 C 392.27617 13.630858 392.28007 13.72392 392.13672 13.839844 C 392.01322 13.939724 391.73062 14.267397 391.50977 14.566406 C 391.0558 15.181027 391.0679 15.200882 392.15234 15.607422 C 392.50366 15.739126 392.81268 15.86103 392.83789 15.878906 C 392.86309 15.896776 392.72331 16.418716 392.52734 17.039062 C 392.03376 18.601537 391.72656 20.838971 391.72656 22.878906 L 391.72656 24.601562 L 392.18945 24.892578 C 393.10346 25.467752 396.07996 26.859561 397.18555 27.228516 C 397.80656 27.435758 398.65574 27.640603 399.07227 27.683594 L 399.83008 27.761719 L 399.72656 28.414062 C 399.57817 29.34975 399.58502 29.781748 399.74805 29.761719 C 399.82615 29.752119 400.2539 29.703522 400.69922 29.654297 L 401.50781 29.564453 L 401.5918 30.097656 C 401.78383 31.321544 402.63599 33.602276 403.63867 35.582031 L 404.70898 37.697266 L 406.91211 37.617188 C 409.23498 37.534168 411.44767 37.170349 412.75195 36.65625 C 413.45269 36.380043 413.47282 36.379795 413.54102 36.640625 C 413.57952 36.787822 413.74953 37.211161 413.91992 37.582031 L 414.23047 38.257812 L 414.97461 37.667969 L 415.7207 37.080078 L 416.81836 38.193359 C 418.11461 39.509398 419.18842 40.346318 421.15625 41.568359 C 421.95059 42.06164 422.61832 42.467583 422.63867 42.472656 C 422.65897 42.477756 423.24777 42.128 423.94727 41.695312 C 426.24176 40.275996 428.09246 38.782105 429.11523 37.523438 C 429.39431 37.18 429.5637 37.074371 429.68945 37.167969 C 429.78765 37.241089 430.15069 37.513843 430.49414 37.773438 L 431.11719 38.246094 L 431.36133 37.703125 C 431.49535 37.404491 431.66554 36.992657 431.73828 36.789062 L 431.86914 36.419922 L 432.85156 36.748047 C 434.33475 37.24549 436.1426 37.525586 438.44922 37.615234 L 440.5293 37.697266 L 440.97461 36.931641 C 442.24477 34.749526 443.46907 31.685027 443.63672 30.269531 L 443.71875 29.572266 L 444.78125 29.662109 C 445.77949 29.746489 445.83833 29.734901 445.76562 29.480469 C 445.72312 29.331617 445.64612 28.884648 445.5957 28.486328 L 445.50391 27.761719 L 446.2168 27.677734 C 447.6482 27.508207 451.20991 26.061072 453.1543 24.859375 L 453.61719 24.574219 L 453.61719 23.103516 C 453.61719 21.159878 453.27527 18.634191 452.81641 17.181641 C 452.61266 16.536676 452.4491 15.982552 452.45312 15.949219 L 452.45312 15.947266 L 452.45508 15.947266 L 452.45508 15.945312 L 452.45703 15.943359 L 452.45898 15.941406 C 452.50699 15.893207 452.87794 15.720743 453.32227 15.542969 C 453.77424 15.362138 454.14992 15.166222 454.18359 15.097656 C 454.18396 15.096616 454.18341 15.094724 454.18359 15.09375 L 454.18359 15.091797 L 454.18359 15.089844 C 454.17561 15.023216 453.91753 14.682902 453.60352 14.326172 L 453.02344 13.667969 L 453.37305 13.324219 L 445.52148 13.324219 C 445.33096 13.404792 445.11425 13.494395 444.88672 13.587891 C 443.30781 14.236689 442.2787 14.35458 441.47852 13.978516 C 441.38514 13.93463 441.24507 13.84758 441.07812 13.728516 A 19.709835 19.709835 0 0 1 440.35547 15.388672 C 442.83075 15.772758 444.49915 16.512164 445.88086 17.804688 C 447.04144 18.890348 448.54391 21.247108 448.25781 21.533203 C 448.09684 21.694169 445.15884 21.590127 444.35156 21.394531 C 442.65229 20.982826 440.86728 19.862616 439.67773 18.460938 C 439.46726 18.212931 439.2499 17.945765 439.03516 17.673828 A 19.709835 19.709835 0 0 1 437.97656 19.107422 C 439.14579 19.667711 439.45063 20.444166 439.71094 22.396484 C 439.79424 23.021054 439.89527 23.644626 439.93555 23.78125 C 440.00185 24.006082 439.84608 24.123428 439.68945 23.966797 C 439.65475 23.932117 439.05483 23.832999 438.35547 23.746094 C 436.51652 23.517576 435.69353 23.162915 435.09766 21.990234 A 19.709835 19.709835 0 0 1 433.64062 23.066406 C 435.73375 24.772757 436.86764 26.395406 437.36328 28.353516 C 437.57849 29.203684 437.6584 32.237715 437.48047 32.396484 L 437.47852 32.398438 L 437.47656 32.400391 L 437.47461 32.400391 L 437.47266 32.400391 L 437.4707 32.400391 C 437.4121 32.398591 436.98014 32.190867 436.51172 31.9375 C 433.35135 30.228092 431.94024 28.196865 431.35938 24.382812 A 19.709835 19.709835 0 0 1 429.71094 25.101562 C 430.43771 26.179993 430.32503 26.989475 429.60352 28.794922 C 429.27812 29.609183 428.97512 30.273596 428.92969 30.271484 L 428.92773 30.271484 C 428.87549 30.262609 428.58669 30.039827 428.2793 29.771484 C 426.10086 27.869867 426.08396 27.85156 425.85742 27.072266 C 425.74642 26.690446 425.69464 26.483171 425.7207 26.166016 A 19.709835 19.709835 0 0 1 423.97656 26.359375 C 424.87862 28.684496 425.05909 30.116677 424.75586 31.871094 C 424.52295 33.218659 423.70953 35.095264 423 35.921875 L 422.60156 36.388672 L 422.05859 35.539062 C 420.74141 33.480669 420.22258 31.401619 420.51758 29.361328 C 420.66412 28.34778 420.853 27.616978 421.3418 26.359375 A 19.709835 19.709835 0 0 1 419.53906 26.154297 C 419.59907 27.179961 419.28852 27.822815 418.52734 28.5 C 417.61531 29.311397 416.45466 30.275391 416.38867 30.275391 C 416.35777 30.275391 416.06563 29.609183 415.74023 28.794922 C 415.02468 27.004388 414.90725 26.185406 415.62695 25.103516 A 19.709835 19.709835 0 0 1 413.9707 24.380859 C 413.44864 27.624284 412.34814 29.570259 410.27344 31.041016 C 409.49772 31.590926 408.04848 32.404297 407.84375 32.404297 L 407.8418 32.404297 L 407.83984 32.404297 L 407.83984 32.402344 L 407.83789 32.402344 L 407.83594 32.400391 L 407.83398 32.398438 C 407.79596 32.338885 407.76055 31.933589 407.75391 31.447266 C 407.71021 28.269203 408.2893 26.488871 409.9707 24.630859 C 410.22884 24.345607 410.93629 23.725838 411.71289 23.080078 A 19.709835 19.709835 0 0 1 410.24023 21.992188 C 409.68473 23.076284 408.79022 23.509657 406.94141 23.75 C 406.29217 23.8344 405.66176 23.941952 405.54102 23.988281 C 405.47705 24.012827 405.43124 24.017617 405.4043 24.001953 C 405.36004 23.971152 405.36667 23.868802 405.41211 23.660156 C 405.46141 23.433739 405.59108 22.654312 405.69922 21.927734 C 405.93304 20.356801 406.27989 19.638111 407.35547 19.107422 A 19.709835 19.709835 0 0 1 406.29102 17.664062 C 404.75568 19.559237 403.52028 20.488159 401.80469 21.123047 C 400.91183 21.453465 400.4549 21.528225 398.9668 21.582031 C 398.00617 21.61677 397.17482 21.600117 397.09961 21.548828 L 397.09766 21.548828 C 396.79822 21.241253 398.27835 18.914278 399.5 17.771484 C 400.87778 16.482639 402.46436 15.77953 404.97852 15.388672 A 19.709835 19.709835 0 0 1 404.24219 13.693359 C 403.26559 14.35879 402.56365 14.375308 401.45117 13.958984 C 401.03771 13.804255 400.37561 13.538726 399.86133 13.324219 L 391.9668 13.324219 z M 398.02344 14.076172 C 398.77116 14.083219 399.61992 14.247645 400.64062 14.572266 L 402.10156 15.037109 L 401.06641 15.550781 C 398.89534 16.626717 397.2718 18.571298 396.13281 21.460938 L 395.85938 22.158203 L 396.75 22.3125 C 399.52598 22.795915 402.43482 22.232069 404.38086 20.833984 C 404.86167 20.488561 405.11953 20.334742 405.18164 20.349609 L 405.18359 20.349609 L 405.18555 20.351562 L 405.1875 20.351562 L 405.1875 20.353516 L 405.18945 20.355469 L 405.19141 20.357422 L 405.19141 20.359375 L 405.19141 20.361328 C 405.19561 20.379887 405.18246 20.414913 405.15039 20.466797 C 405.10669 20.537457 404.94876 21.197959 404.80078 21.933594 C 404.1734 25.052375 402.75352 26.448358 400.11328 26.542969 C 399.16309 26.577019 398.59883 26.50816 397.54688 26.230469 C 396.73546 26.016279 395.49147 25.522088 394.42383 24.988281 L 392.65039 24.099609 L 392.60156 23.533203 C 392.52986 22.6763 392.83322 20.073177 393.15039 18.822266 C 393.4759 17.538514 394.08515 16.2344 394.70508 15.488281 C 394.94374 15.201045 395.53 14.769043 396.00977 14.529297 C 396.62848 14.220126 397.27571 14.069124 398.02344 14.076172 z M 447.3418 14.076172 C 449.70399 14.066565 451.23969 15.512858 452.10156 18.496094 C 452.45374 19.715092 452.76563 22.001559 452.76562 23.369141 L 452.76562 24.117188 L 450.95508 24.990234 C 448.54435 26.150993 447.49147 26.461331 445.73828 26.53125 C 444.53251 26.57933 444.20249 26.542619 443.54688 26.283203 C 442.63297 25.921594 441.60306 24.947667 441.15625 24.023438 C 440.83526 23.359466 440.15235 20.522224 440.26172 20.345703 L 440.26172 20.34375 L 440.26367 20.341797 L 440.26562 20.341797 L 440.26758 20.339844 L 440.26953 20.339844 L 440.27148 20.339844 L 440.27344 20.339844 C 440.32774 20.339844 440.48344 20.463134 440.62109 20.615234 C 441.05509 21.094802 443.13299 22.024324 444.31836 22.269531 C 445.17683 22.447112 445.85385 22.485126 447.08789 22.421875 C 448.9213 22.327905 449.35742 22.237734 449.35742 21.957031 C 449.35742 21.850447 449.10353 21.213226 448.79297 20.541016 C 447.69674 18.168254 446.23907 16.554081 444.30859 15.574219 L 443.26367 15.042969 L 444.69727 14.568359 C 445.67383 14.24454 446.5544 14.079374 447.3418 14.076172 z M 436.36328 24.1875 C 436.36527 24.187176 436.36706 24.187671 436.36914 24.1875 C 436.40035 24.184935 436.4518 24.200952 436.52344 24.228516 C 436.67287 24.286016 437.29709 24.428484 437.91016 24.544922 C 440.00328 24.942465 441.34697 25.799867 442.09375 27.214844 C 442.44337 27.877307 442.47309 28.061835 442.46484 29.566406 C 442.45404 31.523624 442.12273 32.693668 440.86914 35.207031 L 440.07227 36.804688 L 439.21484 36.785156 C 438.74313 36.774776 437.81399 36.710759 437.15039 36.642578 C 434.58084 36.378564 432.61355 35.659717 431.42383 34.546875 C 430.41145 33.599919 430.15393 33.006255 430.08789 31.482422 C 430.03749 30.320682 430.07724 30.071593 430.52539 28.734375 L 431.01758 27.263672 L 431.45312 28.166016 C 432.37099 30.065627 433.9519 31.564993 436.19727 32.667969 C 437.78381 33.447311 438.07975 33.51006 438.20312 33.089844 C 438.43856 32.288024 438.45629 29.350235 438.23242 28.300781 C 437.99572 27.190944 437.35316 25.673629 436.81445 24.955078 C 436.47215 24.498513 436.32689 24.278838 436.33789 24.208984 C 436.33815 24.207934 436.33755 24.206053 436.33789 24.205078 L 436.33984 24.203125 L 436.33984 24.201172 L 436.3418 24.199219 L 436.34375 24.197266 L 436.3457 24.195312 L 436.34766 24.193359 L 436.34961 24.191406 L 436.35156 24.191406 C 436.35478 24.190106 436.3593 24.188149 436.36328 24.1875 z M 408.83984 24.222656 C 408.8431 24.22222 408.84662 24.222846 408.84961 24.222656 C 408.86181 24.221883 408.87568 24.228475 408.88281 24.234375 C 408.88346 24.235325 408.88616 24.23918 408.88672 24.240234 C 408.91559 24.312182 408.77125 24.587879 408.43359 25.111328 C 407.45073 26.635138 407.03452 27.934189 406.95117 29.732422 C 406.87797 31.311587 406.988 32.913872 407.19336 33.246094 C 407.29096 33.403969 407.49258 33.367729 408.28516 33.052734 C 410.74986 32.073181 412.77154 30.34588 413.6875 28.435547 C 414.05528 27.66852 414.27428 27.309522 414.375 27.314453 C 414.37723 27.314754 414.38266 27.315729 414.38477 27.316406 L 414.38672 27.316406 L 414.38867 27.318359 L 414.39062 27.320312 C 414.39165 27.320971 414.39549 27.323455 414.39648 27.324219 C 414.42543 27.350256 414.4405 27.424031 414.44141 27.542969 C 414.44223 27.679594 414.6331 28.334441 414.86523 28.998047 C 415.62411 31.167557 415.39977 32.913812 414.19141 34.257812 C 413.00068 35.582178 410.90514 36.357152 407.69727 36.658203 C 405.04893 36.906745 405.39001 37.078268 404.39453 34.994141 C 403.28746 32.67642 402.93061 31.510922 402.83789 29.912109 C 402.73909 28.208354 402.99925 27.293463 403.84961 26.347656 C 404.68561 25.417833 405.65812 24.913995 407.23828 24.595703 C 407.95883 24.450564 408.66491 24.287017 408.80664 24.232422 C 408.81947 24.227481 408.83009 24.223966 408.83984 24.222656 z M 419.57227 28.712891 C 419.59867 28.712749 419.59922 29.35044 419.57422 30.128906 C 419.52022 31.835001 419.74817 32.86058 420.5332 34.462891 C 421.08985 35.599071 422.42866 37.513672 422.66602 37.513672 C 422.89807 37.513672 424.22763 35.610399 424.79688 34.462891 C 425.56027 32.92402 425.83442 31.668085 425.76562 30.039062 L 425.71094 28.736328 L 426.23242 29.148438 C 427.28479 29.981932 428.35716 31.148594 428.73633 31.873047 C 429.07599 32.521988 429.12457 32.780141 429.12695 33.894531 C 429.12895 35.022318 429.08108 35.271474 428.71484 36.017578 C 428.11175 37.245886 426.34885 39.015062 424.45508 40.291016 C 423.59144 40.872897 422.78497 41.348077 422.66406 41.347656 C 422.54315 41.347351 421.74073 40.870648 420.87891 40.287109 C 418.98778 39.006625 417.22768 37.238121 416.62891 36.017578 C 416.30538 35.358109 416.20363 34.932048 416.16406 34.076172 C 416.08256 32.315657 416.67033 31.288629 418.93359 29.246094 C 419.25799 28.953328 419.5458 28.713062 419.57227 28.712891 z " /></g></svg>
