<?xml version="1.0" encoding="UTF-8" standalone="no"?>
<!-- Created with Inkscape (http://www.inkscape.org/) -->

<svg
   version="1.1"
   id="svg1"
   width="845.33331"
   height="60"
   viewBox="0 0 845.33331 60"
   sodipodi:docname="footerscroll.svg"
   inkscape:version="1.4 (86a8ad7, 2024-10-11)"
   xml:space="preserve"
   inkscape:export-filename="footerscroll.pdf"
   inkscape:export-xdpi="600"
   inkscape:export-ydpi="600"
   xmlns:inkscape="http://www.inkscape.org/namespaces/inkscape"
   xmlns:sodipodi="http://sodipodi.sourceforge.net/DTD/sodipodi-0.dtd"
   xmlns="http://www.w3.org/2000/svg"
   xmlns:svg="http://www.w3.org/2000/svg"><defs
     id="defs1"><clipPath
       clipPathUnits="userSpaceOnUse"
       id="clipPath28"><path
         d="M 0,0 H 612 V 792 H 0 Z"
         transform="translate(-291.80121,-47.486799)"
         id="path28" /></clipPath><clipPath
       clipPathUnits="userSpaceOnUse"
       id="clipPath26"><path
         d="M 0,0 H 612 V 792 H 0 Z"
         transform="translate(-322.72751,-36.398101)"
         id="path26" /></clipPath></defs><sodipodi:namedview
     id="namedview1"
     pagecolor="#ffffff"
     bordercolor="#000000"
     borderopacity="0.25"
     inkscape:showpageshadow="2"
     inkscape:pageopacity="0.0"
     inkscape:pagecheckerboard="0"
     inkscape:deskcolor="#d1d1d1"
     inkscape:zoom="2.0167601"
     inkscape:cx="426.92237"
     inkscape:cy="12.644042"
     inkscape:window-width="1920"
     inkscape:window-height="991"
     inkscape:window-x="-9"
     inkscape:window-y="-9"
     inkscape:window-maximized="1"
     inkscape:current-layer="g1"
     showgrid="false"><inkscape:page
       x="0"
       y="0"
       inkscape:label="1"
       id="page1"
       width="845.33331"
       height="60"
       margin="0"
       bleed="0" /></sodipodi:namedview><g
     id="g1"
     inkscape:groupmode="layer"
     inkscape:label="1"><path
       style="baseline-shift:baseline;display:inline;overflow:visible;vector-effect:none;fill:#a00909;fill-opacity:1;enable-background:accumulate;stop-color:#000000"
       d="M 440.33268,12.691196 V 14.02518 H 734.66666 V 12.691196 Z"
       id="path2" /><path
       style="baseline-shift:baseline;display:inline;overflow:visible;vector-effect:none;fill:#a00909;fill-opacity:1;enable-background:accumulate;stop-color:#000000"
       d="M 110.66666,12.691196 V 14.02518 H 405.00065 V 12.691196 Z"
       id="path3" /><path
       id="path4"
       d="m 0,0 c 1.91,-5.978 7.515,-10.322 14.119,-10.322 6.604,0 12.208,4.344 14.119,10.322 H 27.174 C 25.301,-5.416 20.164,-9.322 14.119,-9.322 8.074,-9.322 2.936,-5.416 1.064,0 Z"
       style="fill:#a00909;fill-opacity:1;fill-rule:nonzero;stroke:none"
       transform="matrix(1.3333333,0,0,-1.3333333,403.84145,12.691872)"
       clip-path="url(#clipPath28)" /><path
       id="path5-8"
       style="fill:#a00909;fill-opacity:1;stroke-width:0.274637"
       d="M 387.44727 12.796875 C 387.45302 12.829322 387.45698 12.876871 387.46289 12.908203 C 388.75923 19.784451 391.95857 26.061334 396.76758 31.169922 C 402.38879 37.141305 409.48965 40.835595 417.86523 42.146484 C 420.18855 42.510114 426.78147 42.292326 429.45703 41.763672 C 438.64043 39.949149 447.29661 34.179488 452.29297 26.542969 C 454.42651 23.282047 456.47583 19.089844 455.93555 19.089844 C 455.81284 19.089844 454.48562 19.274318 452.98828 19.5 C 450.03153 19.945654 446.35715 20.038391 445.79492 19.681641 C 445.52401 19.509738 445.6649 18.990145 446.40625 17.421875 C 446.93615 16.3009 447.58571 14.518294 447.84961 13.460938 C 447.93598 13.114838 447.95337 13.08712 448.0293 12.796875 L 447.19922 12.796875 C 446.94259 13.84188 446.60669 14.685143 446.44531 14.671875 C 446.28123 14.658329 445.1788 14.32057 443.99609 13.921875 C 442.33625 13.362319 441.96827 13.217883 441.95312 12.796875 L 440.92773 12.796875 C 440.58686 13.83822 440.16286 14.867248 439.64258 15.873047 C 437.29101 20.419062 432.58343 24.099908 427.4375 25.416016 C 424.65279 26.128256 420.53135 26.121884 417.78516 25.402344 C 411.52171 23.761231 406.40689 18.91354 404.36328 12.796875 L 403.32031 12.796875 C 403.17374 13.306203 402.58381 13.48889 401.1582 13.953125 C 399.90422 14.361476 398.81679 14.695312 398.74414 14.695312 C 398.61832 14.695312 398.36604 13.860565 398.11914 12.796875 L 397.30273 12.796875 C 397.37865 13.087085 397.39606 13.114922 397.48242 13.460938 C 397.74632 14.518294 398.39375 16.296834 398.92188 17.414062 C 399.45 18.531301 399.8077 19.520188 399.7168 19.611328 C 399.5197 19.808976 394.8098 19.915182 393.82812 19.744141 C 393.45051 19.678352 392.30865 19.492578 391.28906 19.332031 C 390.26947 19.171484 389.43555 18.946377 389.43555 18.832031 C 389.43555 18.298107 392.83293 14.788488 395.05664 12.796875 L 393.27344 12.796875 L 392.04492 13.945312 C 390.62909 15.269019 389.41184 16.255229 389.33984 16.138672 C 389.18197 15.883233 388.87212 14.360091 388.59961 12.796875 L 387.44727 12.796875 z M 389.52148 12.796875 L 389.78516 14.390625 L 391.12109 13.263672 C 391.32509 13.091662 391.45704 12.952458 391.62109 12.796875 L 389.52148 12.796875 z M 395.95703 12.796875 C 395.70625 12.969457 395.4137 13.192562 395.04297 13.511719 C 393.24037 15.063536 390.43905 18.263274 390.67578 18.5 C 390.76617 18.590399 391.79131 18.80966 392.95312 18.986328 C 394.9995 19.297478 399.04688 19.476216 399.04688 19.255859 C 399.04688 19.196143 398.68809 18.301028 398.25 17.265625 C 397.81191 16.230212 397.30445 14.826206 397.12109 14.146484 C 396.96603 13.571686 396.8337 13.089183 396.75195 12.796875 L 395.95703 12.796875 z M 398.78125 12.796875 C 398.95657 13.394038 399.22665 13.871135 399.40039 13.869141 C 399.68082 13.865767 400.41719 13.641508 402.51758 12.921875 C 402.5704 12.903776 402.60642 12.859627 402.63281 12.796875 L 400.76953 12.796875 C 399.97899 13.066029 399.72635 13.082826 399.58594 12.796875 L 398.78125 12.796875 z M 442.83789 12.796875 C 443.03348 12.970211 443.40009 13.130301 444.08789 13.345703 C 446.14289 13.989281 446.22653 13.979101 446.54883 12.796875 L 445.73047 12.796875 C 445.55095 13.056953 445.22072 13.041644 444.50586 12.796875 L 442.83789 12.796875 z M 448.5 12.796875 C 448.48774 12.883559 448.48242 12.986297 448.48242 13.105469 C 448.48242 13.512322 447.47191 16.337013 446.36719 19.021484 C 446.26449 19.271012 446.62781 19.365802 447.69727 19.365234 C 449.52372 19.364269 453.98339 18.832489 454.48242 18.556641 C 454.89472 18.328728 452.3664 15.325457 450.09766 13.347656 C 449.8214 13.10682 449.60832 12.939701 449.41406 12.796875 L 448.5 12.796875 z M 450.26758 12.796875 C 451.5992 13.952563 453.27258 15.548146 454.20117 16.646484 C 455.20882 17.838333 456.09663 18.814041 456.17383 18.814453 C 456.337 18.815294 457.34245 15.306416 457.86523 12.910156 C 457.8719 12.879607 457.87634 12.828953 457.88281 12.796875 L 456.73633 12.796875 C 456.67145 13.154418 456.61302 13.501163 456.53906 13.873047 C 456.31375 15.005917 456.04487 16.012508 455.94336 16.111328 C 455.84181 16.210083 454.61482 15.211394 453.2168 13.890625 L 452.06055 12.796875 L 450.26758 12.796875 z M 453.67969 12.796875 C 453.81639 12.932124 453.96418 13.073934 454.13086 13.21875 L 455.48438 14.394531 L 455.81641 12.828125 C 455.8193 12.814467 455.81941 12.810372 455.82227 12.796875 L 453.67969 12.796875 z M 396.0625 13.597656 C 396.16854 13.597656 396.58575 14.555929 396.98828 15.726562 C 397.39081 16.897205 397.78182 18.008454 397.85742 18.197266 C 398.02521 18.616268 394.89529 18.627666 393.04688 18.214844 L 391.85156 17.949219 L 392.49023 17.214844 C 393.8527 15.64946 395.87883 13.597656 396.0625 13.597656 z M 449.31836 13.597656 C 449.43721 13.597656 450.41215 14.551043 451.48633 15.716797 C 453.35754 17.747557 453.41382 17.847234 452.81445 18.080078 C 452.47038 18.213741 451.08666 18.390236 449.74023 18.472656 C 447.57489 18.605177 447.31219 18.571254 447.46094 18.183594 C 447.55345 17.942539 447.96025 16.812635 448.36523 15.671875 C 448.7702 14.531115 449.1995 13.597656 449.31836 13.597656 z M 403.98633 14.15625 L 404.84961 15.867188 C 405.32379 16.808694 405.94266 17.874138 406.22461 18.234375 C 406.50656 18.594601 406.73633 18.982032 406.73633 19.095703 C 406.73633 19.209364 405.87741 19.995955 404.82812 20.84375 C 403.77882 21.691534 402.87079 22.386719 402.80859 22.386719 C 402.42831 22.386719 399.32227 16.999408 399.32227 16.339844 C 399.32227 16.049557 399.83705 15.791859 402.62891 14.691406 L 403.98633 14.15625 z M 441.3457 14.15625 L 442.70312 14.691406 C 445.49437 15.791621 446.00977 16.049567 446.00977 16.339844 C 446.00977 16.783982 444.71153 19.258962 443.60742 20.921875 C 443.07307 21.726656 442.56065 22.379394 442.46875 22.371094 C 442.30675 22.35623 439.40999 20.015466 438.80664 19.412109 C 438.59108 19.196558 438.70188 18.818959 439.20508 18.058594 C 439.58894 17.47853 440.22832 16.362894 440.625 15.580078 L 441.3457 14.15625 z M 403.40039 15.101562 C 403.01262 15.123769 402.43888 15.300063 401.69531 15.628906 C 400.84266 16.005989 400.14453 16.44985 400.14453 16.615234 C 400.14453 17.043969 401.18117 19.025376 402.12305 20.400391 L 402.92578 21.572266 L 404.15625 20.6875 C 406.07627 19.308655 406.07335 19.319466 404.97266 17.441406 C 404.43208 16.519062 403.99023 15.643791 403.99023 15.496094 C 403.99023 15.209835 403.78816 15.079356 403.40039 15.101562 z M 441.92969 15.101562 C 441.54192 15.079356 441.3418 15.209835 441.3418 15.496094 C 441.3418 15.643791 440.89597 16.526195 440.35156 17.455078 C 439.80716 18.383951 439.46669 19.247076 439.5957 19.373047 C 439.72471 19.499029 440.38668 20.043831 441.06641 20.583984 L 442.30273 21.564453 L 442.91797 20.808594 C 443.65547 19.901613 445.18555 17.083178 445.18555 16.632812 C 445.18555 16.45683 444.48741 16.005989 443.63477 15.628906 C 442.8912 15.300063 442.31746 15.123769 441.92969 15.101562 z M 402.98438 15.794922 C 403.13293 15.794922 405.13669 19.144171 405.0293 19.212891 C 404.98619 19.240491 404.59591 19.533073 404.16016 19.863281 C 403.7244 20.193489 403.28485 20.462891 403.18555 20.462891 C 402.96626 20.462891 400.85984 16.906359 401.00391 16.779297 C 401.17055 16.632348 402.85541 15.794922 402.98438 15.794922 z M 442.34766 15.794922 C 442.46946 15.794922 444.15265 16.625516 444.31445 16.765625 C 444.36385 16.8084 443.93577 17.658929 443.36328 18.654297 C 442.79079 19.649664 442.24108 20.462891 442.14258 20.462891 C 442.04407 20.462891 441.60762 20.193489 441.17188 19.863281 C 440.73611 19.533073 440.34388 19.240501 440.30078 19.212891 C 440.19341 19.144154 442.19912 15.794922 442.34766 15.794922 z M 394.95898 16.111328 C 394.83082 16.126126 394.70445 16.182265 394.59766 16.289062 C 394.43669 16.450014 394.3799 16.774993 394.4707 17.011719 C 394.72105 17.664121 395.75195 17.56208 395.75195 16.884766 C 395.75195 16.398922 395.34347 16.066936 394.95898 16.111328 z M 450.26758 16.207031 C 449.90139 16.207031 449.68735 16.419097 449.62695 16.845703 C 449.55153 17.378171 449.64331 17.471944 450.17578 17.396484 C 451.00256 17.279366 451.08549 16.207031 450.26758 16.207031 z M 402.51367 16.560547 C 402.42961 16.572326 402.34272 16.62285 402.23828 16.699219 C 401.79574 17.022804 401.81177 17.131377 402.48828 18.341797 C 403.24875 19.702415 403.34923 19.77551 403.94727 19.396484 C 404.24173 19.209873 404.15531 18.877854 403.51562 17.757812 C 402.98529 16.829228 402.76587 16.525209 402.51367 16.560547 z M 442.81836 16.560547 C 442.56616 16.525209 442.34675 16.829228 441.81641 17.757812 C 441.17673 18.877853 441.08835 19.209873 441.38281 19.396484 C 441.98085 19.77551 442.08328 19.702415 442.84375 18.341797 C 443.52026 17.131377 443.53629 17.022804 443.09375 16.699219 C 442.98931 16.622851 442.90242 16.572326 442.81836 16.560547 z M 400.08203 19.861328 L 401.08984 21.382812 C 401.64497 22.219158 402.90046 23.767402 403.87891 24.824219 L 405.6582 26.746094 L 404.34375 27.330078 C 403.62086 27.650944 401.91609 28.199075 400.55664 28.548828 C 397.5599 29.319819 395.47656 29.641426 395.47656 29.332031 C 395.47656 28.335448 398.02191 22.908527 399.55273 20.642578 L 400.08203 19.861328 z M 445.24414 19.871094 L 445.85352 20.785156 C 447.40508 23.113053 449.85547 28.335795 449.85547 29.314453 C 449.85547 29.618825 449.19906 29.553033 446.55859 28.986328 C 444.2288 28.486305 442.60055 27.987004 440.67773 27.183594 L 439.66016 26.759766 L 441.44727 24.832031 C 442.42917 23.771478 443.68497 22.220304 444.23828 21.386719 L 445.24414 19.871094 z M 437.76172 20.126953 L 439.375 21.523438 C 441.88005 23.6936 441.84112 23.497934 440.08008 25.107422 C 439.22881 25.885432 437.99972 26.889269 437.34766 27.337891 C 436.69561 27.786525 436.05939 28.150684 435.93555 28.146484 C 435.81171 28.142768 435.13535 27.162489 434.43164 25.96875 L 433.15234 23.798828 L 434.26172 23.064453 C 434.87236 22.66035 435.90929 21.834229 436.56641 21.228516 L 437.76172 20.126953 z M 407.55078 20.128906 L 408.96484 21.400391 C 409.74253 22.099597 410.73476 22.882775 411.16797 23.138672 C 411.60119 23.39458 411.95508 23.718228 411.95508 23.859375 C 411.95508 24.000511 411.42907 25.022484 410.78711 26.130859 C 410.14514 27.239222 409.49675 28.146209 409.3457 28.146484 C 408.67049 28.148269 403.37072 23.671282 403.73438 23.40625 C 403.79957 23.358741 404.68604 22.601904 405.70312 21.724609 L 407.55078 20.128906 z M 392.18945 20.837891 C 392.80912 20.849798 393.65012 20.879901 394.5625 20.925781 L 397.87891 21.09375 L 396.33398 24.068359 C 395.48435 25.704732 394.72824 27.045728 394.65234 27.048828 C 394.33937 27.061481 390.93828 21.065626 391.14258 20.861328 C 391.17038 20.833518 391.56979 20.825983 392.18945 20.837891 z M 453.14453 20.839844 C 453.76568 20.829424 454.16722 20.839091 454.19727 20.869141 C 454.25739 20.929251 453.78978 21.942885 453.16016 23.123047 C 452.53053 24.30322 451.68491 25.668298 451.2793 26.15625 L 450.54102 27.044922 L 448.99609 24.068359 L 447.45117 21.09375 L 450.76953 20.925781 C 451.68192 20.879901 452.52338 20.850264 453.14453 20.839844 z M 407.38086 21.013672 C 406.87321 21.013672 404.74755 23.428619 404.95703 23.767578 C 405.21808 24.18996 407.10044 25.896908 408.20312 26.710938 C 408.66349 27.050809 409.13017 27.330078 409.24023 27.330078 C 409.3503 27.330078 409.88458 26.618337 410.42773 25.75 L 411.41602 24.171875 L 410.65625 23.625 C 410.23804 23.324167 409.38671 22.612831 408.76562 22.044922 C 408.14452 21.477023 407.52133 21.013672 407.38086 21.013672 z M 437.94922 21.013672 C 437.80939 21.013672 437.18751 21.477023 436.56641 22.044922 C 435.94531 22.612831 435.08063 23.334025 434.64648 23.646484 L 433.85742 24.214844 L 434.89258 25.771484 C 435.4614 26.628206 436.0091 27.330078 436.10938 27.330078 C 436.34514 27.330078 437.57358 26.406795 439.375 24.876953 L 440.80859 23.658203 L 439.50586 22.335938 C 438.78924 21.608383 438.08906 21.013672 437.94922 21.013672 z M 400.08789 21.019531 C 399.68637 21.004905 396.30078 27.78334 396.30078 28.601562 C 396.30078 28.993428 401.83702 27.778542 403.8125 26.953125 L 404.82422 26.529297 L 403.43555 25.076172 C 402.67139 24.276633 401.64889 23.037822 401.16406 22.324219 C 400.67921 21.610626 400.19481 21.023731 400.08789 21.019531 z M 445.31641 21.109375 C 445.16933 21.064564 444.65124 21.610949 444.16602 22.324219 C 443.68081 23.0375 442.64732 24.277165 441.86914 25.078125 C 441.09095 25.879086 440.49969 26.572011 440.55469 26.619141 C 440.79852 26.827934 444.38771 27.907657 446.00977 28.259766 C 446.99159 28.472898 448.0716 28.660621 448.41016 28.675781 L 449.02539 28.703125 L 448.33008 26.851562 C 447.51237 24.679127 445.7001 21.226285 445.31641 21.109375 z M 407.38086 21.898438 L 408.92578 23.171875 L 410.4707 24.445312 L 409.94922 25.339844 C 409.66239 25.831243 409.33818 26.287689 409.22852 26.355469 C 409.11887 26.42324 408.42142 25.980056 407.67773 25.371094 C 405.36041 23.473561 405.42106 23.609098 406.46094 22.701172 L 407.38086 21.898438 z M 437.94336 21.904297 L 438.88672 22.697266 L 439.83008 23.492188 L 439.00586 24.1875 C 438.55271 24.570916 437.73525 25.248004 437.1875 25.691406 L 436.19141 26.498047 L 435.52148 25.472656 L 434.85156 24.445312 L 436.39648 23.175781 L 437.94336 21.904297 z M 452.12305 21.998047 C 451.2624 21.988067 449.51902 22.124775 449.35742 22.257812 C 449.31067 22.296291 449.62055 22.957313 450.04492 23.726562 C 450.46931 24.495822 450.84421 25.126806 450.87891 25.128906 C 450.98438 25.135518 452.59466 22.262096 452.59766 22.0625 C 452.59823 22.021356 452.40993 22.001373 452.12305 21.998047 z M 393.20508 22.001953 C 392.91949 22.005516 392.73192 22.023653 392.73242 22.0625 C 392.73384 22.164867 393.11699 22.914134 393.58398 23.728516 L 394.43359 25.210938 L 395.23047 23.753906 C 395.66874 22.952478 395.99513 22.272088 395.95703 22.242188 C 395.79701 22.116863 394.06184 21.991264 393.20508 22.001953 z M 400.01562 22.046875 L 401.75 24.162109 C 402.70463 25.325216 403.44473 26.313202 403.39453 26.357422 C 403.34436 26.401693 402.62375 26.629171 401.79297 26.863281 C 400.96219 27.097391 399.68311 27.376338 398.94922 27.482422 C 397.63976 27.671733 397.618 27.662884 397.80273 27.021484 C 397.90626 26.662005 398.44527 25.397097 399.00195 24.208984 L 400.01562 22.046875 z M 445.31641 22.046875 L 446.32812 24.208984 C 446.8848 25.397097 447.42028 26.646467 447.51758 26.986328 C 447.67175 27.524775 447.59611 27.603034 446.92188 27.589844 C 446.15789 27.574918 442.18412 26.615747 441.96094 26.392578 C 441.89761 26.329239 442.62545 25.325216 443.58008 24.162109 L 445.31641 22.046875 z M 407.2207 22.800781 C 407.07571 22.791391 406.96453 22.863588 406.83008 22.998047 C 406.47153 23.356592 406.57576 23.539052 407.7207 24.546875 C 408.43416 25.174885 409.03529 25.656737 409.05469 25.617188 C 409.07409 25.577587 409.23497 25.351566 409.41406 25.115234 C 409.68519 24.757436 409.5307 24.510029 408.48828 23.638672 C 407.79772 23.061434 407.46236 22.816431 407.2207 22.800781 z M 438.21875 22.818359 C 437.94909 22.773681 437.6029 23.006364 436.8457 23.664062 C 435.8638 24.516892 435.68009 24.814098 435.89062 25.208984 C 436.13888 25.674621 436.1872 25.673422 436.89258 25.167969 C 437.30013 24.875929 437.91487 24.334568 438.25977 23.964844 C 438.80909 23.375977 438.83604 23.24919 438.47461 22.949219 C 438.38899 22.87816 438.30864 22.833252 438.21875 22.818359 z M 432.2793 24.332031 L 432.86328 25.486328 C 433.18437 26.121956 433.74684 27.162481 434.11523 27.796875 L 434.78516 28.949219 L 433.46289 29.619141 C 432.73548 29.987133 431.29332 30.549842 430.25781 30.869141 C 429.22231 31.18845 428.2218 31.449219 428.03516 31.449219 C 427.71158 31.449219 427.27073 29.892365 426.89648 27.427734 L 426.72461 26.289062 L 427.82422 26.103516 C 428.42921 26.001304 429.67914 25.561229 430.60156 25.125 L 432.2793 24.332031 z M 413.04883 24.339844 L 414.7793 25.125 C 415.73115 25.556589 416.96726 25.996496 417.52734 26.101562 C 418.08742 26.206639 418.54676 26.433473 418.54688 26.605469 C 418.54699 26.777476 418.34503 27.937426 418.09766 29.183594 C 417.7557 30.906254 417.53996 31.446606 417.20312 31.441406 C 416.57192 31.431401 412.9297 30.163546 411.63672 29.503906 L 410.54688 28.947266 L 411.2168 27.794922 C 411.58494 27.160956 412.14698 26.125325 412.4668 25.492188 L 413.04883 24.339844 z M 400.14453 24.857422 C 399.54101 24.857422 399.25392 25.503925 399.67188 25.921875 C 400.0439 26.293882 400.60485 26.32278 400.81641 25.980469 C 401.07894 25.555679 400.66091 24.857422 400.14453 24.857422 z M 445.23438 24.857422 C 444.66989 24.857422 444.24254 25.541586 444.52344 25.996094 C 444.81149 26.462155 445.59475 26.109446 445.68555 25.472656 C 445.75088 25.014712 445.63561 24.857422 445.23438 24.857422 z M 413.1543 25.167969 L 412.28516 26.927734 L 411.41797 28.689453 L 412.0293 29.019531 C 412.36598 29.200921 413.44395 29.635736 414.42578 29.986328 C 416.93307 30.881645 417.19975 30.797386 417.62305 28.976562 C 417.81618 28.145781 417.97838 27.342456 417.98438 27.191406 C 417.99049 27.040357 417.34742 26.717021 416.55469 26.472656 C 415.76196 26.228291 414.67154 25.834652 414.13281 25.597656 L 413.1543 25.167969 z M 432.20312 25.21875 L 430.25 25.990234 C 429.17552 26.414276 428.06447 26.766284 427.78125 26.771484 C 427.23118 26.781573 427.24677 27.160006 427.89844 29.580078 C 428.06091 30.183497 428.34891 30.625 428.58008 30.625 C 429.07818 30.625 432.1552 29.583055 433.16602 29.072266 L 433.91602 28.693359 L 433.06055 26.957031 L 432.20312 25.21875 z M 431.75781 26.308594 C 431.99072 26.357063 432.19685 26.620413 432.45703 27.166016 C 433.01893 28.344321 432.94222 28.442348 430.82617 29.21875 C 428.57542 30.044569 428.60757 30.055267 428.30078 28.419922 C 428.11956 27.453971 428.12127 27.453933 429.58203 26.970703 C 430.38547 26.704903 431.25463 26.416648 431.51367 26.330078 C 431.59989 26.301279 431.68018 26.292437 431.75781 26.308594 z M 413.6875 26.322266 C 413.86745 26.391968 414.73133 26.679191 415.60742 26.958984 L 417.20117 27.466797 L 417.02539 28.425781 C 416.9286 28.953301 416.7914 29.479311 416.7207 29.59375 C 416.64997 29.708139 416.44357 29.795409 416.26367 29.787109 C 415.60222 29.758451 412.67017 28.512523 412.57227 28.21875 C 412.41174 27.73716 413.32605 26.182271 413.6875 26.322266 z M 422.72656 26.724609 L 425.54883 26.744141 L 425.91602 29.134766 C 426.22197 31.128759 426.22197 31.563882 425.91602 31.757812 C 425.44116 32.058962 419.89395 32.060339 419.41992 31.759766 C 419.1259 31.57332 419.11656 31.097926 419.37305 29.224609 C 419.54672 27.956195 419.73807 26.869297 419.79688 26.810547 C 419.85562 26.751797 421.17385 26.713819 422.72656 26.724609 z M 405.94727 26.804688 L 407.36133 27.822266 C 408.13894 28.381786 409.85547 29.399685 411.17773 30.083984 L 413.58203 31.328125 L 412.28711 32.425781 C 410.14062 34.245951 408.88827 35.16714 406.9375 36.357422 C 405.91524 36.981155 405.02017 37.490234 404.94727 37.490234 C 404.53043 37.490234 404.98907 31.464094 405.65234 28.234375 L 405.94727 26.804688 z M 439.41797 26.894531 C 439.41797 26.95652 439.60472 27.974274 439.83203 29.158203 C 440.05934 30.342133 440.32603 32.701072 440.42383 34.400391 C 440.52678 36.188933 440.49699 37.483909 440.35352 37.474609 C 439.82672 37.439733 435.65283 34.628367 433.74219 33.021484 L 431.73633 31.333984 L 434.14648 30.087891 C 435.4722 29.401807 437.20139 28.376733 437.98828 27.810547 C 438.77516 27.24436 439.41797 26.832561 439.41797 26.894531 z M 413.69141 27.054688 C 413.52381 27.054687 413.31276 27.247731 413.22266 27.482422 C 413.10485 27.789442 413.38499 28.057262 414.22266 28.4375 C 415.65769 29.088886 416.23831 29.110645 416.46289 28.525391 C 416.55789 28.277204 416.60185 28.052471 416.56055 28.025391 C 416.29531 27.851389 413.94064 27.054688 413.69141 27.054688 z M 431.64062 27.054688 C 431.39138 27.054688 429.03476 27.851389 428.76953 28.025391 C 428.72817 28.052492 428.77189 28.277204 428.86719 28.525391 C 429.09156 29.11009 429.48688 29.094753 431.01562 28.439453 C 431.92597 28.04923 432.22536 27.785858 432.10742 27.478516 C 432.01804 27.24559 431.80824 27.054688 431.64062 27.054688 z M 422.66602 27.330078 C 419.9021 27.330078 420.11735 27.138215 419.80664 29.851562 C 419.67299 31.018654 419.71594 31.1488 420.26953 31.255859 C 421.23603 31.44274 424.38961 31.458643 425.05859 31.279297 C 425.60527 31.132762 425.65238 30.98489 425.52148 29.839844 C 425.21287 27.140106 425.42903 27.330078 422.66602 27.330078 z M 406.36523 27.878906 C 406.21104 27.878906 405.69144 31.71135 405.5 34.263672 C 405.41222 35.434306 405.42363 36.392578 405.52539 36.392578 C 406.04289 36.392578 412.51983 31.817345 412.49023 31.472656 C 412.48265 31.384292 411.74575 30.965558 410.85352 30.542969 C 409.9613 30.120391 408.61162 29.347653 407.85352 28.826172 C 407.09542 28.304683 406.42593 27.878906 406.36523 27.878906 z M 438.98242 27.878906 C 438.93003 27.878906 437.95295 28.487928 436.8125 29.232422 C 435.67205 29.976916 434.30897 30.72882 433.7832 30.902344 C 433.25743 31.075865 432.82812 31.300704 432.82812 31.404297 C 432.82813 31.680903 435.66199 33.882051 437.74609 35.222656 C 438.74144 35.862925 439.65898 36.386472 439.78516 36.388672 C 439.91126 36.390363 439.9386 35.434307 439.8457 34.263672 C 439.64935 31.789169 439.12101 27.878906 438.98242 27.878906 z M 423.75977 28.203125 C 424.71666 28.276939 424.85413 28.638049 424.85938 29.732422 L 424.86328 30.625 L 422.65039 30.625 L 420.4375 30.625 L 420.52148 29.457031 L 420.60547 28.291016 L 422.50391 28.208984 C 423.03057 28.18617 423.4408 28.17852 423.75977 28.203125 z M 404.21875 28.703125 C 404.33822 28.703125 404.28007 29.59825 404.08789 30.693359 C 403.8957 31.788477 403.73256 33.333933 403.72656 34.126953 C 403.72056 34.919962 403.62306 35.568453 403.50977 35.568359 C 402.97189 35.567912 397.67383 31.060701 397.67383 30.603516 C 397.67383 30.503213 398.19447 30.337949 398.83008 30.236328 C 399.4657 30.134688 400.88949 29.747777 401.99414 29.376953 C 403.09879 29.006139 404.09927 28.703125 404.21875 28.703125 z M 441.09375 28.703125 C 441.20279 28.703125 442.4258 29.074185 443.8125 29.527344 C 445.19919 29.980493 446.63208 30.349609 446.99609 30.349609 C 447.36009 30.349609 447.6582 30.457518 447.6582 30.587891 C 447.6582 30.908529 445.39776 32.99381 443.51367 34.412109 C 442.66918 35.047823 441.89637 35.568359 441.79688 35.568359 C 441.69735 35.568359 441.61147 34.919962 441.60547 34.126953 C 441.59948 33.333933 441.43633 31.788477 441.24414 30.693359 C 441.05197 29.59825 440.98471 28.703125 441.09375 28.703125 z M 422.66602 28.839844 C 421.29848 28.839844 421.14761 28.90023 421.06641 29.472656 C 420.98055 30.078284 421.04354 30.100994 422.57617 30.021484 C 423.96555 29.949424 424.17578 29.865601 424.17578 29.388672 C 424.17578 28.905944 423.99343 28.839844 422.66602 28.839844 z M 406.80273 28.957031 L 407.52539 29.4375 C 407.92291 29.702365 408.96718 30.308798 409.84766 30.783203 L 411.44922 31.644531 L 410.12305 32.607422 C 409.39361 33.137175 408.27373 33.896746 407.63477 34.294922 C 406.99581 34.693108 406.39227 35.019531 406.29297 35.019531 C 406.11 35.019531 406.34559 31.517545 406.64062 29.859375 L 406.80273 28.957031 z M 438.5293 28.957031 L 438.68359 29.859375 C 438.76855 30.355943 438.92171 31.719991 439.02344 32.890625 C 439.12507 34.061268 439.10175 35.012206 438.9707 35.003906 C 438.70069 34.987587 438.1 34.606108 435.61328 32.871094 L 433.86719 31.654297 L 435.47461 30.787109 C 436.35948 30.310367 437.40912 29.702365 437.80664 29.4375 L 438.5293 28.957031 z M 442.81836 30.380859 C 442.29026 30.340579 442.31132 30.709666 442.4668 31.654297 C 442.5849 32.371781 442.68827 33.113921 442.69727 33.302734 C 442.72244 33.830617 442.921 33.735412 444.40234 32.486328 L 445.77734 31.328125 L 444.45117 30.859375 C 443.64862 30.57657 443.13522 30.405028 442.81836 30.380859 z M 402.5957 30.402344 C 402.30574 30.420049 401.81977 30.572875 401.04102 30.818359 L 399.55469 31.287109 L 400.87891 32.457031 C 402.28808 33.699181 402.60661 33.85228 402.63281 33.302734 C 402.64182 33.113921 402.74713 32.371781 402.86523 31.654297 C 403.0189 30.720734 403.07898 30.372835 402.5957 30.402344 z M 431.25195 31.46875 C 431.51962 31.46331 431.48705 31.744735 431.34375 32.847656 C 430.97073 35.718667 429.2056 41.611328 428.71875 41.611328 C 428.31303 41.611328 425.42977 37.731339 424.12695 35.433594 C 423.39929 34.150246 422.74162 33.102416 422.66602 33.103516 C 422.59049 33.104947 421.99554 34.069036 421.34375 35.246094 C 420.69196 36.423155 419.42784 38.304972 418.53516 39.427734 C 417.64249 40.550493 416.80263 41.504608 416.66992 41.548828 C 416.17155 41.714958 414.37231 35.917314 414.00195 32.953125 C 413.80487 31.37569 413.80818 31.366763 414.45898 31.550781 C 417.90174 32.524223 418.89663 32.658203 422.66602 32.658203 C 426.43667 32.658203 427.42671 32.523924 430.87695 31.548828 C 431.04014 31.502707 431.16273 31.470563 431.25195 31.46875 z M 407.86914 31.496094 C 407.73768 31.510217 407.61047 31.563357 407.50586 31.667969 C 407.34487 31.828919 407.29162 32.164216 407.38672 32.412109 C 407.60658 32.985065 408.48568 32.833364 408.60742 32.201172 C 408.6894 31.775496 408.26353 31.453724 407.86914 31.496094 z M 437.25586 31.496094 C 437.1244 31.510217 436.99719 31.563357 436.89258 31.667969 C 436.73168 31.828919 436.67638 32.164216 436.77148 32.412109 C 436.99136 32.985065 437.87239 32.833364 437.99414 32.201172 C 438.07612 31.775496 437.65024 31.453724 437.25586 31.496094 z M 430.94141 32.070312 L 429.53711 32.433594 C 428.76493 32.633898 427.15068 32.948889 425.94922 33.132812 C 424.74776 33.316735 423.76367 33.546961 423.76367 33.644531 C 423.76367 33.99776 425.85445 37.223257 427.17773 38.912109 L 428.5332 40.642578 L 428.89648 39.75 C 429.41245 38.485489 430.53123 34.54293 430.75391 33.201172 L 430.94141 32.070312 z M 414.5293 32.208984 C 414.46305 32.219134 414.42578 32.239567 414.42578 32.273438 C 414.42578 32.974219 415.10958 35.721809 415.8457 37.982422 C 416.53079 40.0863 416.74313 40.478611 417.05859 40.216797 C 418.16076 39.302083 422.07827 33.371094 421.58008 33.371094 C 420.7401 33.371094 416.82442 32.726825 415.73047 32.408203 C 415.19235 32.251452 414.72803 32.178534 414.5293 32.208984 z M 415.56836 33.119141 C 415.67119 33.12646 415.80992 33.154123 415.99219 33.193359 C 416.41524 33.284434 417.64699 33.498716 418.73047 33.669922 L 420.70117 33.980469 L 419.9082 35.255859 C 419.47193 35.956716 418.63534 37.080307 418.04883 37.753906 L 416.98242 38.978516 L 416.27734 36.792969 C 415.89007 35.590707 415.49494 34.252823 415.39844 33.818359 C 415.27373 33.256804 415.25987 33.097182 415.56836 33.119141 z M 429.96875 33.167969 C 430.03442 33.233644 429.77094 34.376383 429.38477 35.708984 C 428.42806 39.010378 428.41643 39.028514 427.55664 38.113281 C 427.16425 37.695591 426.32828 36.611385 425.69922 35.705078 L 424.55469 34.058594 L 425.73828 33.851562 C 426.38941 33.737811 427.58003 33.509738 428.38477 33.345703 C 429.1895 33.181675 429.90305 33.102269 429.96875 33.167969 z M 412.88867 33.646484 C 412.97916 33.646484 413.05273 33.874537 413.05273 34.154297 C 413.05273 34.434058 413.37191 35.928783 413.76172 37.474609 C 414.15153 39.020447 414.43086 40.318375 414.38086 40.359375 C 414.23616 40.478071 410.02899 39.030935 408.52148 38.34375 L 407.14844 37.716797 L 407.83203 37.261719 C 408.20736 37.010637 409.46114 36.093143 410.61914 35.224609 C 411.77713 34.356073 412.79817 33.646484 412.88867 33.646484 z M 432.45703 33.683594 C 432.49428 33.628589 433.48905 34.307584 434.66992 35.193359 C 435.8508 36.079143 437.12226 37.003389 437.49414 37.246094 L 438.16992 37.6875 L 437.22656 38.175781 C 436.70727 38.444313 435.23356 39.018359 433.95312 39.451172 C 431.08975 40.419042 430.78331 40.435736 431.02148 39.619141 C 431.12061 39.279281 431.46847 37.827559 431.79492 36.392578 C 432.12139 34.957598 432.41983 33.738604 432.45703 33.683594 z M 417.73242 35.019531 C 417.03601 35.019531 416.66525 35.801646 417.20117 36.140625 C 417.75286 36.489581 418.12187 36.300156 418.22266 35.615234 C 418.28898 35.164502 418.16847 35.019531 417.73242 35.019531 z M 427.61328 35.019531 C 427.32202 35.034005 427.06055 35.206262 427.06055 35.523438 C 427.06055 35.800365 427.1415 36.108297 427.24219 36.208984 C 427.68223 36.649024 428.56882 36.045496 428.34375 35.458984 C 428.22431 35.147752 427.90455 35.005057 427.61328 35.019531 z M 422.66602 35.339844 C 422.8331 35.339844 423.0003 35.599242 423.21484 36.117188 C 423.40224 36.569599 424.15925 37.814591 424.89648 38.884766 C 425.63372 39.95494 426.23633 40.945015 426.23633 41.083984 C 426.23633 41.224829 424.65615 41.335938 422.66602 41.335938 C 420.6759 41.335938 419.0957 41.224829 419.0957 41.083984 C 419.0957 40.945015 419.69831 39.95494 420.43555 38.884766 C 421.17278 37.814591 421.9298 36.5696 422.11719 36.117188 C 422.33173 35.599241 422.49893 35.339844 422.66602 35.339844 z M 412.04688 35.568359 C 411.72583 35.568359 409.48479 37.584303 409.63672 37.736328 C 409.72862 37.828274 410.31785 38.113242 410.94727 38.369141 C 412.26959 38.906732 412.7793 38.971518 412.7793 38.603516 C 412.7793 38.060197 412.17789 35.568359 412.04688 35.568359 z M 433.29492 35.568359 C 433.14041 35.568359 432.55273 37.840019 432.55273 38.4375 C 432.55273 38.672713 432.64452 38.863404 432.75781 38.863281 C 433.05459 38.862959 435.51876 37.910929 435.70508 37.724609 C 435.8472 37.582485 433.59592 35.568359 433.29492 35.568359 z M 422.66797 37.5 C 422.47271 37.512166 421.01758 39.940046 421.01758 40.253906 C 421.01758 40.395613 421.75973 40.511719 422.66602 40.511719 C 423.57233 40.511719 424.31445 40.39294 424.31445 40.248047 C 424.31445 39.919062 422.85786 37.48816 422.66797 37.5 z " /></g></svg>
