<?xml version="1.0" encoding="UTF-8" standalone="no"?>
<!-- Created with Inkscape (http://www.inkscape.org/) -->

<svg
   version="1.1"
   id="svg1"
   width="845.33331"
   height="60"
   viewBox="0 0 845.33331 60"
   sodipodi:docname="footerscroll.svg"
   inkscape:version="1.4.3 (0d15f75042, 2025-12-25)"
   xml:space="preserve"
   inkscape:export-filename="footerscroll.pdf"
   inkscape:export-xdpi="600"
   inkscape:export-ydpi="600"
   xmlns:inkscape="http://www.inkscape.org/namespaces/inkscape"
   xmlns:sodipodi="http://sodipodi.sourceforge.net/DTD/sodipodi-0.dtd"
   xmlns="http://www.w3.org/2000/svg"
   xmlns:svg="http://www.w3.org/2000/svg"><defs
     id="defs1"><clipPath
       clipPathUnits="userSpaceOnUse"
       id="clipPath28"><path
         d="M 0,0 H 612 V 792 H 0 Z"
         transform="translate(-291.80121,-47.486799)"
         id="path28" /></clipPath><clipPath
       clipPathUnits="userSpaceOnUse"
       id="clipPath26"><path
         d="M 0,0 H 612 V 792 H 0 Z"
         transform="translate(-322.72751,-36.398101)"
         id="path26" /></clipPath></defs><sodipodi:namedview
     id="namedview1"
     pagecolor="#ffffff"
     bordercolor="#000000"
     borderopacity="0.25"
     inkscape:showpageshadow="2"
     inkscape:pageopacity="0.0"
     inkscape:pagecheckerboard="0"
     inkscape:deskcolor="#d1d1d1"
     inkscape:zoom="2.8521294"
     inkscape:cx="395.66928"
     inkscape:cy="10.343149"
     inkscape:window-width="1920"
     inkscape:window-height="990"
     inkscape:window-x="0"
     inkscape:window-y="0"
     inkscape:window-maximized="1"
     inkscape:current-layer="g1"
     showgrid="false"><inkscape:page
       x="0"
       y="0"
       inkscape:label="1"
       id="page1"
       width="845.33331"
       height="60"
       margin="0"
       bleed="0" /></sodipodi:namedview><g
     id="g1"
     inkscape:groupmode="layer"
     inkscape:label="1"><path
       style="baseline-shift:baseline;display:inline;overflow:visible;vector-effect:none;fill:#c8a000;fill-opacity:1;enable-background:accumulate;stop-color:#000000"
       d="M 440.33268,12.691196 V 14.02518 H 734.66666 V 12.691196 Z"
       id="path2" /><path
       style="baseline-shift:baseline;display:inline;overflow:visible;vector-effect:none;fill:#c8a000;fill-opacity:1;enable-background:accumulate;stop-color:#000000"
       d="M 110.66666,12.691196 V 14.02518 H 405.00065 V 12.691196 Z"
       id="path3" /><path
       id="path4"
       d="m 0,0 c 1.91,-5.978 7.515,-10.322 14.119,-10.322 6.604,0 12.208,4.344 14.119,10.322 H 27.174 C 25.301,-5.416 20.164,-9.322 14.119,-9.322 8.074,-9.322 2.936,-5.416 1.064,0 Z"
       style="fill:#c8a000;fill-opacity:1;fill-rule:nonzero;stroke:none"
       transform="matrix(1.3333333,0,0,-1.3333333,403.84145,12.691872)"
       clip-path="url(#clipPath28)" /><path
       id="path1"
       style="fill:#c8a000;fill-opacity:1;stroke-width:4.18392"
       d="M 386.07617 14.025391 C 386.46758 15.96256 387.01376 17.867909 387.7168 19.71875 C 392.61362 32.610112 404.04686 41.745893 417.67773 43.662109 C 418.95056 43.842009 421.829 43.918886 424.07422 43.835938 C 437.78234 43.3303 449.48907 35.812039 455.86719 23.417969 C 457.42566 20.389485 458.54547 17.240989 459.22266 14.025391 L 457.25781 14.025391 C 457.24614 14.419467 457.1124 14.988996 456.90039 15.833984 C 456.62784 16.92025 456.32532 17.399976 455.92773 17.378906 C 455.10086 17.333064 452.91974 16.689438 452.63867 16.408203 C 452.44783 16.217058 452.66944 15.001815 452.96875 14.025391 L 451.69141 14.025391 C 450.3456 19.20156 447.56427 23.976943 443.45703 27.900391 C 440.9402 30.304574 438.90782 31.773597 436.1875 33.152344 L 434.34961 34.083984 L 433.20898 31.935547 C 432.09734 29.842325 430.75722 28.412109 429.90625 28.412109 C 428.67841 28.412109 426.49646 32.41844 424.78516 37.816406 C 424.16639 39.768279 423.47118 41.538732 423.24023 41.75 C 422.28411 42.624003 421.68735 41.855493 420.69141 38.470703 C 419.13465 33.179847 416.63945 28.412109 415.42578 28.412109 C 414.53287 28.412109 413.21009 29.803985 412.07812 31.935547 L 410.9375 34.083984 L 409.09961 33.150391 C 403.19294 30.152161 398.00827 24.802781 395.38672 19 C 394.5722 17.197098 393.989 15.620755 393.58594 14.025391 L 392.38477 14.025391 C 392.6793 15.14842 392.85818 16.196088 392.75781 16.359375 C 392.67118 16.500103 391.89073 16.794445 391.02344 17.013672 C 390.15611 17.232899 389.29803 17.412109 389.11719 17.412109 L 389.11523 17.412109 L 389.11328 17.412109 C 388.86031 17.367474 388.03311 15.042311 387.8418 14.025391 L 386.07617 14.025391 z M 390.51367 14.025391 C 390.4622 14.037485 390.40769 14.052428 390.34961 14.070312 C 389.32142 14.387054 389.30653 14.409607 389.57422 15.255859 C 389.82125 16.036831 390.33612 16.176259 391.12305 15.675781 C 391.42835 15.481862 391.51398 15.090291 391.35938 14.601562 C 391.2573 14.278794 391.14235 14.09579 390.96289 14.025391 L 390.51367 14.025391 z M 394.83984 14.025391 C 396.87299 21.411306 401.80665 27.996429 408.50586 31.580078 L 410.50195 32.648438 L 411.04883 31.496094 C 411.81898 29.875227 413.41432 28.054256 414.39062 27.681641 C 415.67057 27.193218 416.88099 27.865491 418.05078 29.716797 C 418.55529 30.515147 418.97999 31.066908 419.08398 31.072266 C 419.08487 31.072225 419.08901 31.072396 419.08984 31.072266 L 419.0918 31.072266 L 419.09375 31.070312 L 419.0957 31.070312 L 419.09766 31.068359 L 419.09961 31.066406 L 419.10156 31.064453 L 419.10156 31.0625 L 419.10352 31.060547 C 419.10557 31.054813 419.10742 31.044311 419.10742 31.035156 C 419.10742 30.83994 418.63609 29.936216 418.06055 29.025391 C 416.95993 27.283571 415.89736 26.74468 414.33398 27.138672 C 413.6179 27.319087 413.45117 27.229965 413.45117 26.669922 C 413.45117 25.945616 414.32058 24.863281 414.90234 24.863281 C 416.09697 24.863281 417.79497 26.064938 418.75977 27.591797 C 419.86302 29.337764 421.74307 34.698103 422.15234 37.267578 C 422.44859 39.127264 422.87131 39.096607 423.18164 37.195312 C 423.61857 34.5164 425.42093 29.342787 426.52734 27.591797 C 427.2265 26.485298 428.04627 25.70181 428.86328 25.359375 C 430.03356 24.868675 431.47478 24.950264 431.48828 25.507812 C 431.49079 25.641053 431.59106 26.119083 431.71094 26.568359 C 431.90752 27.305175 431.83867 27.361643 431 27.150391 C 429.43519 26.756196 428.42811 27.2573 427.27539 29.003906 C 426.67292 29.916772 426.17969 30.833139 426.17969 31.041016 C 426.17969 31.050964 426.18132 31.062108 426.18359 31.068359 L 426.18555 31.070312 L 426.1875 31.072266 L 426.18945 31.074219 L 426.19141 31.076172 L 426.19336 31.078125 C 426.19419 31.078436 426.19832 31.079864 426.19922 31.080078 C 426.20017 31.080195 426.20406 31.080058 426.20508 31.080078 C 426.32454 31.071605 426.81491 30.473211 427.39453 29.609375 C 428.71914 27.635281 429.72738 27.143838 431.0957 27.806641 C 431.89026 28.191546 433.44011 29.998056 434.54102 31.822266 C 434.93138 32.469052 435.02091 32.454491 436.88867 31.462891 C 441.52865 28.999549 446.1693 24.067478 448.64844 18.964844 C 449.4898 17.233084 450.10394 15.652011 450.5332 14.025391 L 445.83398 14.025391 C 445.78046 14.200635 445.70764 14.408698 445.61133 14.650391 C 445.04906 16.061339 444.21289 17.362612 444.21289 16.826172 C 444.21289 16.612358 444.54411 15.684982 444.94922 14.765625 C 445.07699 14.475797 445.1986 14.228944 445.31055 14.025391 L 444.75391 14.025391 C 444.66035 14.245915 444.55676 14.482257 444.44531 14.726562 C 443.94993 15.812594 443.41623 16.693178 443.25977 16.679688 C 443.10316 16.667193 442.44962 16.395277 441.80664 16.074219 C 440.81176 15.577743 440.58355 15.313051 441.0293 14.025391 L 439.67383 14.025391 A 18.582607 18.582607 0 0 1 422.66602 25.121094 A 18.582607 18.582607 0 0 1 405.6582 14.025391 L 404.17188 14.025391 C 404.44533 14.761805 404.61269 15.330103 404.57422 15.419922 L 404.57227 15.421875 L 404.57227 15.423828 L 404.57031 15.425781 L 404.56836 15.427734 C 404.49431 15.493486 403.92511 15.807279 403.30273 16.125 C 402.68031 16.442484 402.04217 16.701425 401.88672 16.701172 C 401.71126 16.682141 400.98921 15.196576 400.50977 14.025391 L 399.97656 14.025391 C 400.08535 14.223767 400.20142 14.459872 400.31836 14.724609 C 401.32552 17.004149 401.09365 17.697392 400.04883 15.53125 C 399.78776 14.990183 399.57772 14.437617 399.4668 14.025391 L 394.83984 14.025391 z M 401.5625 14.025391 C 401.5993 14.126556 401.64648 14.240058 401.70508 14.369141 L 401.70312 14.369141 C 402.14398 15.340171 402.39099 15.445781 403.125 14.978516 C 403.44383 14.776538 403.49204 14.564352 403.2793 14.025391 L 401.5625 14.025391 z M 442.00781 14.025391 C 441.79629 14.563814 441.84429 14.776957 442.16016 14.978516 L 442.16211 14.978516 C 442.90441 15.450698 443.14841 15.336722 443.52734 14.335938 C 443.57025 14.22267 443.60506 14.119697 443.63281 14.025391 L 442.00781 14.025391 z M 454.34375 14.025391 C 453.85162 14.25498 453.62158 15.330994 454.16406 15.681641 C 454.93426 16.179422 455.69629 15.87213 455.81836 15.013672 C 455.88059 14.576333 455.77416 14.21875 455.58203 14.21875 C 455.39658 14.21875 455.02316 14.131695 454.73633 14.025391 L 454.34375 14.025391 z M 398.46484 14.029297 C 398.49452 14.027787 398.52373 14.028261 398.55078 14.029297 C 398.7672 14.037584 398.90251 14.128097 399.01172 14.300781 C 399.44318 14.982855 399.37009 15.221064 398.59961 15.634766 C 398.12001 15.893462 397.89063 15.89742 397.89062 15.648438 C 397.89062 15.446324 398.05148 15.28125 398.24609 15.28125 C 398.44067 15.28125 398.59961 15.1211 398.59961 14.925781 C 398.59961 14.499515 398.23039 14.47847 397.61719 14.869141 C 396.9283 15.307947 398.82139 19.307511 399.61133 19.082031 C 399.92964 18.991073 400.39255 18.857656 400.64062 18.785156 C 400.88867 18.712559 401.36583 19.100114 401.70117 19.646484 C 402.29777 20.61797 402.29225 20.654891 401.42773 21.324219 L 401.42773 21.322266 C 400.14476 22.315434 399.24916 22.207275 400.49219 21.208984 C 401.41192 20.470295 401.45069 20.354254 400.91992 19.912109 C 400.47857 19.544432 400.23761 19.526881 399.92773 19.837891 C 399.70258 20.06381 399.33224 20.248047 399.10547 20.248047 C 398.73127 20.248047 396.47656 15.710269 396.47656 14.957031 C 396.47656 14.782652 396.98439 14.462809 397.60352 14.246094 C 397.98334 14.113346 398.25712 14.039863 398.46484 14.029297 z M 446.73633 14.03125 C 446.95268 14.022933 447.24949 14.096099 447.68359 14.248047 C 448.30274 14.464659 448.81055 14.784605 448.81055 14.958984 C 448.81055 15.133364 448.31068 16.395681 447.70117 17.763672 C 446.66686 20.085563 445.97306 20.743951 445.45117 19.896484 C 445.12168 19.361511 444.57231 19.469741 444.32422 20.119141 C 444.1824 20.49012 444.40685 20.931975 444.95312 21.353516 C 445.52405 21.794125 445.62927 22.009766 445.27344 22.009766 C 444.98172 22.009766 444.36713 21.719404 443.9082 21.365234 C 443.09468 20.737213 443.08909 20.691999 443.66602 19.572266 C 444.23614 18.465785 444.28931 18.444386 445.10156 18.978516 C 446.06227 19.610297 446.04958 19.621929 447.3125 16.908203 C 447.94937 15.540043 448.02728 15.099371 447.67188 14.873047 C 447.42235 14.714196 447.09898 14.581525 446.95312 14.578125 C 446.51883 14.569223 446.65322 15.207114 447.13086 15.423828 C 447.20681 15.458105 447.24753 15.487717 447.25781 15.509766 C 447.25853 15.511902 447.25968 15.517533 447.25977 15.519531 L 447.25977 15.521484 L 447.25977 15.523438 L 447.25977 15.525391 L 447.25977 15.527344 L 447.25781 15.529297 L 447.25586 15.53125 C 447.22433 15.558656 447.09776 15.567686 446.89453 15.542969 C 446.11529 15.448168 445.86655 14.949975 446.27539 14.302734 C 446.38451 14.130095 446.51998 14.039567 446.73633 14.03125 z M 445.96484 15.888672 C 446.08667 15.882997 446.22248 15.932011 446.39258 16.023438 C 446.99661 16.347918 447.00535 16.452492 446.50391 17.425781 C 445.99606 18.411278 445.31169 18.752888 444.82422 18.263672 C 444.70725 18.146178 444.86548 17.514622 445.17578 16.861328 C 445.49955 16.179859 445.69684 15.901157 445.96484 15.888672 z M 399.28711 15.992188 C 399.85491 15.992186 400.82356 17.901624 400.44727 18.279297 C 399.97915 18.749107 399.28652 18.403615 398.79883 17.457031 C 398.23963 16.371861 398.36577 15.992187 399.28711 15.992188 z M 446.14258 16.427734 C 446.03125 16.44265 445.82581 16.683945 445.64258 17.027344 C 445.42545 17.434723 445.39531 17.767578 445.57617 17.767578 C 445.93945 17.767578 446.44298 16.691922 446.19531 16.443359 C 446.18186 16.429869 446.16319 16.424972 446.14258 16.427734 z M 399.12695 16.453125 C 399.00063 16.461221 398.97916 16.715509 399.1582 17.183594 C 399.2808 17.504348 399.53052 17.767578 399.71094 17.767578 C 399.89177 17.767578 399.8617 17.434741 399.64453 17.027344 C 399.43294 16.631595 399.23841 16.445981 399.12695 16.453125 z M 405.39062 17.263672 C 405.40682 17.262531 405.4232 17.263063 405.43945 17.263672 C 405.67582 17.272533 405.91747 17.465774 406.17578 17.835938 C 406.64512 18.508349 406.6334 18.684506 406.06641 19.507812 C 405.42309 20.44153 405.12561 20.943391 405.17188 21.03125 L 405.17383 21.033203 L 405.17578 21.033203 L 405.17578 21.035156 L 405.17773 21.037109 L 405.17969 21.037109 L 405.18164 21.039062 C 405.25394 21.0708 405.56314 20.823952 406.10547 20.310547 L 407.35156 19.130859 L 408.16016 20.269531 C 409.14598 21.658969 408.80717 22.4273 407.05664 22.787109 C 403.75141 23.465618 402.73931 23.515268 402.94141 22.986328 C 403.04995 22.702445 403.47212 21.347774 403.87891 19.976562 C 404.41276 18.1775 404.88863 17.299044 405.39062 17.263672 z M 439.87695 17.277344 C 440.40969 17.283242 440.85858 18.124461 441.4082 19.976562 C 441.81504 21.34779 442.23165 22.689199 442.33398 22.957031 L 442.33594 22.955078 C 442.55315 23.524166 442.09591 23.5245 439.12305 22.951172 C 436.49677 22.444674 436.03076 21.817413 437.12891 20.269531 L 437.9375 19.130859 L 439.18359 20.310547 C 439.72235 20.821253 440.02963 21.069423 440.10352 21.041016 L 440.10547 21.041016 L 440.10742 21.039062 L 440.10938 21.039062 L 440.10938 21.037109 L 440.11133 21.037109 L 440.11328 21.035156 L 440.11523 21.033203 C 440.16547 20.946962 439.85084 20.420939 439.16797 19.431641 C 438.52002 18.493132 438.51495 18.39848 439.08203 17.769531 C 439.37617 17.443334 439.6348 17.274663 439.87695 17.277344 z M 451.99023 17.765625 C 451.99292 17.765373 451.99543 17.765625 451.99805 17.765625 C 452.6257 17.765625 452.71132 18.486446 452.20117 19.476562 C 451.82357 20.20945 451.78228 20.607428 452.05664 20.882812 C 452.60765 21.435842 452.13634 22.378906 451.30859 22.378906 C 450.72341 22.378906 449.54753 23.701256 449.92969 23.929688 C 449.9941 23.968196 450.33151 24.217808 450.67773 24.484375 C 451.22287 24.903859 451.37382 24.877995 451.80273 24.294922 C 452.1734 23.791105 452.40023 23.722071 452.70508 24.023438 C 453.01237 24.327148 452.97242 24.699713 452.54297 25.533203 C 452.24945 26.10318 451.9734 26.566588 451.9043 26.611328 L 451.90234 26.613281 L 451.90039 26.615234 L 451.89844 26.615234 L 451.89648 26.615234 L 451.89453 26.615234 C 451.70958 26.562126 448.84819 24.666167 448.64648 24.462891 C 448.52481 24.340456 448.98856 23.302553 449.67773 22.15625 C 450.36695 21.010014 451.10285 19.554299 451.3125 18.919922 C 451.5188 18.295489 451.82082 17.781493 451.99023 17.765625 z M 393.02734 17.857422 C 393.10147 17.851848 393.18979 17.877436 393.29297 17.941406 C 393.45939 18.044673 394.33088 19.517703 395.23047 21.214844 L 396.86719 24.300781 L 396.07617 24.898438 L 396.07617 24.900391 C 395.64163 25.229357 394.85642 25.752617 394.33008 26.064453 C 393.40859 26.610991 393.35127 26.599781 392.77734 25.720703 C 392.17237 24.794081 392.25687 23.798828 392.94141 23.798828 C 393.1482 23.798828 393.40953 24.039062 393.52148 24.332031 C 393.76986 24.980792 393.99162 24.984408 394.82617 24.349609 C 395.35155 23.949935 395.39803 23.719327 395.07812 23.119141 C 394.86143 22.712655 394.36693 22.378906 393.97852 22.378906 C 393.15089 22.378906 392.6795 21.435824 393.23047 20.882812 C 393.50479 20.607646 393.46347 20.209452 393.08594 19.476562 C 392.65896 18.648009 392.67017 17.884279 393.02734 17.857422 z M 454.89258 18.578125 C 455.06105 18.577989 455.25203 18.650833 455.47266 18.791016 C 455.86525 19.040286 455.84774 19.28554 455.375 20.203125 C 454.72835 21.458173 454.80602 21.408093 454.1582 20.996094 C 453.79687 20.766297 453.75791 20.434593 454.00391 19.693359 C 454.25717 18.930753 454.52194 18.578425 454.89258 18.578125 z M 390.32227 18.705078 C 390.65977 18.708504 390.91616 18.938151 391.13672 19.423828 C 391.3518 19.897298 391.52734 20.418928 391.52734 20.583984 C 391.52734 20.749124 391.29025 20.975943 391 21.087891 C 390.65695 21.220019 390.28608 20.928676 389.93945 20.255859 C 389.26894 18.955004 389.26957 18.949953 390.07617 18.738281 C 390.16339 18.715388 390.24438 18.704287 390.32227 18.705078 z M 444.80664 20.269531 C 444.95783 20.260251 445.25035 20.358963 445.61719 20.591797 C 445.90322 20.77341 446.05086 21.009186 445.94531 21.115234 C 445.83954 21.221331 445.44492 21.075624 445.07031 20.791016 C 444.65096 20.472492 444.61226 20.281463 444.80664 20.269531 z M 400.41211 20.324219 C 400.50394 20.323769 400.57857 20.344102 400.625 20.390625 C 400.71103 20.477014 400.44848 20.727369 400.04297 20.945312 C 399.63706 21.163142 399.30664 21.193196 399.30664 21.011719 C 399.30664 20.715462 400.01418 20.326167 400.41211 20.324219 z M 453.60547 21.710938 C 454.11955 21.680376 454.38713 22.080781 454.2168 22.734375 C 454.02694 23.463183 453.90259 23.517482 453.14062 23.208984 C 452.53607 22.964132 452.58347 22.046943 453.21289 21.804688 C 453.35559 21.749727 453.48683 21.71799 453.60547 21.710938 z M 391.69141 21.730469 C 392.16193 21.743131 392.62101 22.120542 392.52539 22.615234 C 392.36661 23.43699 391.72405 23.575945 391.17188 22.908203 C 390.83821 22.504532 390.81562 22.242053 391.09375 21.962891 C 391.26139 21.794642 391.47753 21.724713 391.69141 21.730469 z M 443.32227 22.201172 C 443.46509 22.192089 443.73584 22.401818 444.13672 22.830078 L 444.88867 23.634766 L 443.99414 24.78125 L 443.99609 24.78125 C 443.50424 25.412002 442.98065 25.927734 442.83398 25.927734 C 442.68748 25.927734 442.18795 25.520526 441.72266 25.023438 L 440.87695 24.121094 L 442.36523 24.359375 L 443.85352 24.597656 L 443.46289 23.470703 C 443.17346 22.637453 443.12655 22.213619 443.32227 22.201172 z M 401.94336 22.205078 C 402.16595 22.184311 402.12696 22.60447 401.82812 23.464844 L 401.4375 24.585938 L 402.75977 24.337891 L 404.08008 24.091797 L 403.22266 25.009766 C 402.75114 25.515048 402.32725 25.927734 402.28125 25.927734 C 402.23519 25.927734 401.77853 25.428175 401.26562 24.816406 L 400.33398 23.703125 L 401.11719 22.865234 C 401.51534 22.439945 401.79106 22.219287 401.94336 22.205078 z M 410.875 22.734375 L 410.87695 22.734375 L 410.87891 22.734375 L 410.88086 22.734375 C 411.29291 22.734375 413.45117 24.231723 413.45117 24.517578 C 413.45117 24.685196 413.29227 24.920133 413.09766 25.041016 C 412.90307 25.16163 412.74219 25.720665 412.74219 26.283203 L 412.74414 26.283203 C 412.74414 26.845691 412.62306 27.379833 412.47656 27.470703 C 412.14143 27.678565 409.20703 25.962668 409.20703 25.558594 C 409.20703 25.160117 410.62042 22.771649 410.875 22.734375 z M 434.3418 22.736328 C 434.34298 22.736165 434.34663 22.736357 434.34766 22.736328 C 434.34953 22.736413 434.35164 22.736342 434.35352 22.736328 C 434.47355 22.73557 434.99106 23.370652 435.50391 24.148438 L 436.4375 25.5625 L 435.10938 26.390625 C 434.37927 26.846493 433.58221 27.339551 433.33789 27.484375 C 432.90035 27.743962 432.78566 27.567873 432.43945 26.105469 C 432.34717 25.715118 432.15838 25.122699 432.02148 24.789062 C 431.83757 24.34149 432.08135 23.992456 432.95312 23.458984 C 433.58267 23.073694 434.19525 22.756617 434.3418 22.736328 z M 433.96094 24.058594 C 433.8059 24.067067 433.61616 24.131355 433.36523 24.246094 C 432.46336 24.658498 432.32303 25.209339 432.95508 25.84375 C 433.35369 26.243627 433.67989 26.171533 434.5625 25.488281 C 434.88286 25.239719 434.88942 25.000323 434.58789 24.515625 C 434.3841 24.187906 434.21934 24.044472 433.96094 24.058594 z M 411.46094 24.248047 C 410.52863 24.292102 410.21849 25.304323 411.24023 25.894531 C 411.70279 26.161739 411.97045 26.105324 412.30078 25.667969 C 412.91016 24.861573 412.85762 24.592731 412.03906 24.332031 C 411.8283 24.264893 411.63359 24.239889 411.46094 24.248047 z M 405.63086 24.332031 L 406.61914 25.310547 C 407.51213 26.195998 407.55968 26.36344 407.12109 27.068359 C 406.6878 27.764459 406.71598 27.901984 407.39062 28.351562 C 407.80588 28.628381 408.14648 28.994604 408.14648 29.166016 C 408.14648 29.712048 407.50878 29.502378 406.49023 28.623047 C 405.5166 27.782494 405.51194 27.758622 406.16602 27.033203 C 406.71772 26.421603 406.75294 26.203395 406.375 25.746094 C 405.96855 25.254653 405.83009 25.278623 405.08984 25.976562 C 403.93539 27.064885 403.67458 26.585237 404.74805 25.347656 L 405.63086 24.332031 z M 439.69727 24.427734 L 440.60938 25.345703 C 441.7339 26.474438 441.34946 27.062963 440.19727 25.976562 C 439.45702 25.27859 439.32042 25.254619 438.91406 25.746094 C 438.53573 26.203445 438.57036 26.422173 439.12305 27.035156 C 439.77995 27.763425 439.77506 27.784263 438.73047 28.623047 C 438.14809 29.09075 437.55209 29.473698 437.40625 29.474609 C 436.87733 29.478081 437.15816 28.795192 437.90039 28.273438 C 438.61337 27.772419 438.62606 27.686291 438.10156 26.882812 C 437.56541 26.061613 437.58645 25.992867 438.61914 25.226562 L 439.69727 24.427734 z M 397.95312 25.841797 L 399.51367 27.378906 C 400.37185 28.224214 401.07422 29.090202 401.07422 29.302734 C 401.07422 29.51525 400.47181 30.279216 399.73438 31.001953 C 398.24968 32.45699 398.05243 32.541071 397.7793 31.826172 C 397.67593 31.55581 398.05008 30.893174 398.61133 30.353516 L 399.63281 29.371094 L 398.91797 28.365234 C 398.23489 27.402498 398.1674 27.382789 397.34766 27.921875 C 396.6357 28.390152 396.55578 28.605796 396.87109 29.197266 C 397.51282 30.400724 396.70341 30.639521 395.66602 29.552734 L 394.7168 28.558594 L 396.33398 27.199219 L 397.95312 25.841797 z M 447.33398 25.841797 L 448.95312 27.199219 L 450.57227 28.558594 L 449.63672 29.537109 C 448.59263 30.630742 447.94051 30.524659 448.24414 29.310547 C 448.37504 28.787106 448.2175 28.306808 447.78516 27.914062 C 447.16025 27.346668 447.08623 27.365906 446.39844 28.306641 L 445.67383 29.300781 L 446.75 30.423828 C 447.34247 31.04131 447.72246 31.719547 447.5918 31.931641 C 447.46132 32.143735 447.23527 32.316406 447.0918 32.316406 C 446.7032 32.316406 444.21289 29.68264 444.21289 29.271484 C 444.21289 29.076351 444.91525 28.224214 445.77344 27.378906 L 447.33398 25.841797 z M 439.37109 26.074219 C 439.37342 26.073822 439.37645 26.074416 439.37891 26.074219 C 439.51654 26.06314 439.83575 26.294174 440.14453 26.636719 C 440.49743 27.02847 440.62274 27.347656 440.42188 27.347656 C 439.97692 27.347656 439.0944 26.334217 439.33203 26.095703 C 439.34229 26.085411 439.35479 26.076997 439.37109 26.074219 z M 405.88477 26.101562 C 406.07632 26.089301 406.06209 26.341862 405.67773 26.806641 C 405.43175 27.104028 405.06611 27.347656 404.86523 27.347656 C 404.66448 27.347656 404.78969 27.028217 405.14258 26.636719 C 405.46256 26.281922 405.73578 26.1111 405.88477 26.101562 z M 408.42578 26.3125 C 408.42795 26.312232 408.42966 26.31248 408.43164 26.3125 L 408.43359 26.3125 L 408.43555 26.3125 L 408.4375 26.314453 C 408.43843 26.314725 408.44248 26.316047 408.44336 26.316406 L 408.44531 26.316406 L 408.44727 26.318359 C 408.44762 26.318671 408.44988 26.321456 408.45117 26.322266 L 408.45312 26.322266 L 408.45508 26.324219 C 408.4886 26.377593 408.42998 26.592795 408.31055 26.990234 C 408.18857 27.396192 408.14208 27.606586 408.19336 27.654297 C 408.24401 27.687675 408.37467 27.599504 408.59961 27.412109 C 409.05993 27.028569 409.34017 27.044869 410.22461 27.503906 L 411.29297 28.058594 L 410.74219 29.388672 C 410.07983 30.992729 410.04238 31.040225 409.76758 30.59375 C 409.64855 30.400218 409.74016 29.826222 409.9707 29.318359 C 410.51055 28.129219 409.90871 27.326394 409.02734 28.060547 C 408.55508 28.45368 408.37041 28.434688 407.87695 27.939453 C 407.32801 27.388666 407.33087 27.307796 407.93164 26.728516 C 408.20277 26.467104 408.35862 26.320797 408.42578 26.3125 z M 436.84961 26.3125 L 436.85156 26.3125 L 436.85352 26.3125 C 436.91701 26.311869 437.07565 26.458741 437.35547 26.728516 C 437.95615 27.307779 437.959 27.388666 437.41016 27.939453 C 436.96899 28.382508 436.70528 28.431359 436.35156 28.136719 C 436.0668 27.899506 435.68197 27.866199 435.38086 28.052734 C 434.97673 28.303454 434.96266 28.537323 435.30469 29.291016 C 435.53658 29.802167 435.72656 30.292519 435.72656 30.380859 C 435.72656 30.962498 435.05548 30.342246 434.5625 29.304688 L 433.97461 28.068359 L 435.05273 27.507812 C 435.94568 27.044214 436.22703 27.028568 436.6875 27.412109 C 436.91253 27.599458 437.04113 27.689627 437.0918 27.65625 L 437.09375 27.654297 C 437.1451 27.606526 437.09866 27.396157 436.97656 26.990234 C 436.85715 26.592874 436.79848 26.37954 436.83203 26.326172 L 436.83203 26.324219 L 436.83398 26.322266 C 436.8347 26.321642 436.83907 26.318895 436.83984 26.318359 L 436.8418 26.316406 C 436.84267 26.316047 436.84673 26.314725 436.84766 26.314453 L 436.84961 26.3125 z M 420.24414 26.638672 L 422.64453 26.638672 L 425.04297 26.638672 L 424.20117 29.300781 C 423.73785 30.765073 423.2574 32.60243 423.13281 33.382812 C 423.0085 34.163179 422.78935 34.800781 422.64453 34.800781 C 422.49982 34.800781 422.27889 34.163179 422.1543 33.382812 C 422.02998 32.60243 421.54921 30.765073 421.08594 29.300781 L 420.24414 26.638672 z M 422.64453 27.703125 C 422.44979 27.703125 422.28906 28.101859 422.28906 28.589844 C 422.28906 29.07761 422.44992 29.478516 422.64453 29.478516 C 422.83927 29.478516 422.99805 29.077829 422.99805 28.589844 C 422.99805 28.102078 422.83913 27.703125 422.64453 27.703125 z M 435.9375 28.542969 C 435.9411 28.54258 435.94552 28.54297 435.94922 28.542969 C 436.0623 28.542934 436.21899 28.720669 436.40234 29.064453 C 436.64534 29.519814 436.77455 29.963348 436.68945 30.048828 C 436.41184 30.32745 435.65511 29.15889 435.81055 28.691406 C 435.84133 28.598747 435.88345 28.548793 435.9375 28.542969 z M 409.42188 28.568359 C 409.60908 28.544886 409.60554 28.945709 409.3457 29.625 C 409.12398 30.204701 408.5 30.408354 408.5 29.900391 C 408.5 29.742483 408.73388 29.302749 409.01953 28.923828 C 409.19343 28.693069 409.33044 28.579823 409.42188 28.568359 z M 429.60742 30.066406 L 431.01758 32.167969 C 432.50572 34.383644 435.01953 38.78807 435.01953 39.181641 C 435.01953 39.309471 434.64009 39.412109 434.17773 39.412109 C 433.05799 39.412109 432.41893 38.592562 432.74219 37.570312 C 432.85568 37.211572 432.89747 37.020593 432.85156 36.974609 L 432.84961 36.972656 L 432.84766 36.970703 C 432.79718 36.945835 432.67249 37.028144 432.46484 37.201172 C 431.63461 37.892804 430.92564 36.892496 431.54297 35.900391 C 431.90131 35.325393 431.90412 35.081155 431.5625 34.738281 C 431.2207 34.396742 431.03624 34.397483 430.6875 34.75 C 430.52686 34.912417 430.44715 35.01053 430.45312 35.050781 L 430.45312 35.052734 L 430.45312 35.054688 L 430.45508 35.056641 L 430.45508 35.058594 L 430.45703 35.060547 L 430.45898 35.0625 L 430.46094 35.064453 L 430.46094 35.066406 C 430.49824 35.087932 430.63266 35.049743 430.86523 34.960938 C 431.2844 34.800873 431.48438 34.897337 431.48438 35.257812 C 431.48437 36.010191 430.55512 36.275522 430.05273 35.667969 C 429.72131 35.267282 429.76039 34.96145 430.23633 34.232422 C 431.03998 33.001635 430.42101 32.240668 429.38281 33.183594 C 428.60818 33.88723 427.59375 33.706715 427.59375 32.865234 C 427.59375 32.569432 428.04596 31.819167 428.59961 31.197266 L 429.60742 30.066406 z M 415.72656 30.375 L 415.72852 30.375 L 415.73047 30.375 L 415.73242 30.375 C 415.91911 30.370768 416.44014 30.914941 416.89062 31.585938 C 417.61766 32.668729 417.651 32.866816 417.18164 33.337891 C 416.71224 33.809016 416.57065 33.794704 415.92578 33.208984 C 415.40173 32.733239 415.09217 32.656807 414.81445 32.935547 C 414.60233 33.148165 414.5458 33.513043 414.68945 33.746094 C 414.89104 34.071667 415.01217 34.068715 415.2168 33.736328 C 415.40649 33.428798 415.54975 33.418371 415.72266 33.699219 C 415.85543 33.915072 415.79573 34.091797 415.58984 34.091797 C 415.3839 34.091797 415.21484 34.464476 415.21484 34.919922 C 415.21484 35.375335 415.11991 35.844437 415.00391 35.960938 C 414.64809 36.318058 413.80078 35.822629 413.80078 35.257812 C 413.80078 34.8975 414.00092 34.802724 414.41992 34.962891 C 414.6525 35.051696 414.783 35.089898 414.82031 35.068359 L 414.82227 35.066406 L 414.82422 35.064453 L 414.82617 35.064453 L 414.82812 35.0625 L 414.82812 35.060547 L 414.83008 35.058594 L 414.83203 35.056641 L 414.83203 35.054688 C 414.83802 35.014426 414.75833 34.914338 414.59766 34.751953 C 414.24884 34.398118 414.06232 34.395407 413.7207 34.738281 C 413.37953 35.081325 413.38428 35.327345 413.74219 35.902344 C 414.37047 36.91205 413.68499 37.791624 412.6875 37.255859 C 412.40629 37.104887 412.248 37.0297 412.19531 37.050781 C 412.19489 37.050992 412.19267 37.052359 412.19141 37.052734 L 412.18945 37.052734 L 412.1875 37.054688 L 412.18555 37.056641 L 412.18359 37.058594 L 412.18164 37.060547 L 412.17969 37.0625 L 412.17969 37.064453 C 412.15844 37.118879 412.24922 37.28725 412.4375 37.589844 C 412.78911 38.151911 412.78534 38.404308 412.41406 38.853516 L 412.41211 38.855469 C 411.9692 39.391166 410.26563 39.659056 410.26562 39.193359 C 410.26562 38.358507 415.16748 30.450108 415.72656 30.375 z M 442.40234 30.574219 L 443.6543 32.244141 L 444.9043 33.914062 L 444.00977 34.712891 C 443.51716 35.152169 442.96307 35.511719 442.7793 35.511719 C 442.32423 35.511719 442.3577 34.677204 442.83203 34.201172 C 443.11045 33.920712 443.10694 33.605344 442.81836 33.064453 C 442.35366 32.193046 442.10354 32.147682 441.24023 32.78125 C 440.63495 33.225366 440.63946 33.300852 441.34766 34.466797 C 441.75553 35.138198 442.08894 35.808737 442.08984 35.955078 C 442.09225 36.439421 441.29209 36.231378 440.85742 35.634766 C 440.26896 34.827038 439.49712 35.334209 439.96875 36.21875 C 440.1638 36.584435 440.32422 36.970898 440.32422 37.078125 C 440.32422 37.078962 440.32432 37.081148 440.32422 37.082031 C 440.29999 37.199188 439.51586 37.683128 438.5625 38.167969 L 436.80273 39.064453 L 435.91211 37.298828 C 435.42194 36.328067 435.01953 35.464386 435.01953 35.378906 L 435.02148 35.376953 L 435.02148 35.375 C 435.06298 35.269037 435.96068 34.694921 437.05273 34.082031 C 438.17101 33.454448 439.8324 32.408578 440.74414 31.757812 L 442.40234 30.574219 z M 402.87109 30.585938 L 405.06641 32.117188 C 406.27409 32.95919 407.93909 33.989478 408.76562 34.408203 C 409.57923 34.820354 410.2469 35.239179 410.26758 35.347656 L 410.26758 35.349609 L 410.26758 35.351562 C 410.26758 35.451709 409.8664 36.32743 409.37695 37.296875 L 409.37891 37.296875 C 408.88943 38.266271 408.37098 39.053422 408.22852 39.044922 C 408.08593 39.037335 407.29334 38.623222 406.4668 38.123047 C 404.98633 37.227109 404.59384 36.491005 405.34766 36.023438 C 405.61876 35.854959 405.62108 35.674804 405.35547 35.408203 C 405.08982 35.141635 404.7889 35.204724 404.32617 35.625 C 403.00343 36.826536 402.77566 36.034748 403.96289 34.361328 C 404.70544 33.314935 404.70886 33.266026 404.07227 32.798828 C 403.2325 32.18258 403.03138 32.193764 402.46484 32.878906 C 402.1006 33.318926 402.09196 33.584999 402.42188 34.115234 C 403.33733 35.586456 402.56272 35.992027 401.12891 34.792969 L 400.30078 34.099609 L 401.58594 32.34375 L 402.87109 30.585938 z M 437.84766 34.837891 C 437.63329 34.842001 437.36988 34.991951 436.98633 35.273438 C 436.45385 35.664346 436.41548 35.877218 436.75586 36.515625 C 437.23375 37.41195 437.47873 37.45785 438.35547 36.814453 C 438.88794 36.423562 438.92827 36.210672 438.58789 35.572266 C 438.31911 35.068092 438.12327 34.832606 437.84766 34.837891 z M 407.37695 34.851562 C 407.13651 34.859299 406.96269 35.079368 406.7207 35.533203 C 406.42916 36.076893 406.43718 36.396876 406.75 36.775391 L 406.75195 36.775391 C 407.34995 37.498551 408.05873 37.407407 408.51758 36.546875 C 408.83774 35.946689 408.78905 35.715861 408.26367 35.316406 C 407.85314 35.004145 407.58911 34.844736 407.37695 34.851562 z M 417.48633 36.21875 C 418.86701 36.21875 419.46094 36.596126 419.46094 37.470703 L 419.46094 37.472656 L 419.46094 37.474609 L 419.45898 37.476562 L 419.45898 37.478516 C 419.39966 37.548779 418.74677 37.649977 417.95898 37.707031 C 416.63979 37.802793 416.44291 37.928805 416.34961 38.734375 C 416.19215 40.09389 416.96918 40.565868 418.7168 40.171875 C 419.63583 39.965313 420.24995 39.968144 420.38281 40.183594 C 420.6421 40.60468 420.66993 40.582735 418.85742 41.5 L 418.85742 41.498047 C 416.22349 42.830986 415.54115 42.472535 415.04883 39.490234 C 414.67922 37.251208 415.44824 36.21875 417.48633 36.21875 z M 427.76367 36.220703 C 429.06527 36.220703 429.44974 36.378134 429.92969 37.113281 C 430.53549 38.041471 430.47911 39.399585 429.75586 41.277344 C 429.29672 42.469371 428.35518 42.527632 426.35742 41.484375 C 424.61993 40.57704 424.64743 40.602587 424.9043 40.185547 C 425.03697 39.969625 425.6513 39.964822 426.57031 40.171875 C 428.1496 40.528002 429.01191 40.150261 429.00391 39.105469 C 428.99355 37.999967 428.38734 37.522366 427.06055 37.572266 C 426.01607 37.611668 425.79956 37.510739 425.96875 37.068359 C 426.08468 36.765054 426.17969 36.450911 426.17969 36.369141 L 426.17969 36.367188 L 426.17969 36.365234 L 426.18164 36.363281 L 426.18164 36.361328 L 426.18359 36.359375 C 426.24608 36.282751 426.9338 36.220703 427.76367 36.220703 z M 419.16797 38.386719 C 419.66497 38.394514 419.82055 38.512072 419.73633 38.769531 C 419.65213 39.026421 418.98283 39.288069 418.24805 39.349609 C 417.26682 39.432002 416.95217 39.337437 417.06445 38.994141 C 417.14865 38.737285 417.81796 38.475603 418.55273 38.414062 C 418.79804 38.393456 419.0023 38.38412 419.16797 38.386719 z M 426.29688 38.386719 C 427.06644 38.408239 428.11158 38.654637 428.21484 38.970703 C 428.31199 39.267618 427.96052 39.414062 427.15234 39.414062 C 425.92889 39.414062 425.47266 39.200723 425.47266 38.625 C 425.47266 38.443169 425.83513 38.373807 426.29688 38.386719 z M 413.28906 39.416016 C 413.8262 39.389448 414.22763 39.878942 413.94336 40.625 C 413.69335 41.2781 413.50569 41.303444 412.63477 40.794922 C 412.13071 40.500501 412.083 40.315738 412.41211 39.917969 C 412.68766 39.584745 413.00747 39.429944 413.28906 39.416016 z M 431.9668 39.859375 C 432.24136 39.853466 432.54343 39.97216 432.80859 40.238281 C 433.32532 40.75658 433.29271 40.83554 432.40625 41.173828 C 431.13345 41.659368 431.12891 41.658705 431.12891 40.822266 C 431.12891 40.22496 431.50919 39.869223 431.9668 39.859375 z " /></g></svg>
