<?xml version="1.0" encoding="UTF-8" standalone="no"?>
<!-- Created with Inkscape (http://www.inkscape.org/) -->

<svg
   version="1.1"
   id="svg1"
   width="845.33331"
   height="60"
   viewBox="0 0 845.33331 60"
   sodipodi:docname="footerscroll.svg"
   inkscape:version="1.4.3 (0d15f75042, 2025-12-25)"
   inkscape:export-filename="footerscroll.pdf"
   inkscape:export-xdpi="96"
   inkscape:export-ydpi="96"
   xmlns:inkscape="http://www.inkscape.org/namespaces/inkscape"
   xmlns:sodipodi="http://sodipodi.sourceforge.net/DTD/sodipodi-0.dtd"
   xmlns="http://www.w3.org/2000/svg"
   xmlns:svg="http://www.w3.org/2000/svg">
  <defs
     id="defs1">
    <clipPath
       clipPathUnits="userSpaceOnUse"
       id="clipPath28">
      <path
         d="M 0,0 H 612 V 792 H 0 Z"
         transform="translate(-291.80121,-47.486799)"
         id="path28" />
    </clipPath>
    <clipPath
       clipPathUnits="userSpaceOnUse"
       id="clipPath26">
      <path
         d="M 0,0 H 612 V 792 H 0 Z"
         transform="translate(-322.72751,-36.398101)"
         id="path26" />
    </clipPath>
  </defs>
  <sodipodi:namedview
     id="namedview1"
     pagecolor="#ffffff"
     bordercolor="#000000"
     borderopacity="0.25"
     inkscape:showpageshadow="2"
     inkscape:pageopacity="0.0"
     inkscape:pagecheckerboard="0"
     inkscape:deskcolor="#d1d1d1"
     inkscape:zoom="1.4260647"
     inkscape:cx="419.68643"
     inkscape:cy="29.802294"
     inkscape:window-width="1920"
     inkscape:window-height="990"
     inkscape:window-x="0"
     inkscape:window-y="0"
     inkscape:window-maximized="1"
     inkscape:current-layer="g1">
    <inkscape:page
       x="0"
       y="0"
       inkscape:label="1"
       id="page1"
       width="845.33331"
       height="60"
       margin="0"
       bleed="0" />
  </sodipodi:namedview>
  <g
     id="g1"
     inkscape:groupmode="layer"
     inkscape:label="1">
    <path
       style="baseline-shift:baseline;display:inline;overflow:visible;vector-effect:none;fill:#450304;fill-opacity:1;enable-background:accumulate;stop-color:#000000"
       d="M 440.33268,12.691196 V 14.02518 H 734.66666 V 12.691196 Z"
       id="path19" />
    <path
       style="baseline-shift:baseline;display:inline;overflow:visible;vector-effect:none;fill:#450304;fill-opacity:1;enable-background:accumulate;stop-color:#000000"
       d="M 110.66666,12.691196 V 14.02518 H 405.00065 V 12.691196 Z"
       id="path20" />
    <path
       id="path27"
       d="m 0,0 c 1.91,-5.978 7.515,-10.322 14.119,-10.322 6.604,0 12.208,4.344 14.119,10.322 H 27.174 C 25.301,-5.416 20.164,-9.322 14.119,-9.322 8.074,-9.322 2.936,-5.416 1.064,0 Z"
       style="fill:#666666;fill-opacity:1;fill-rule:nonzero;stroke:none"
       transform="matrix(1.3333333,0,0,-1.3333333,403.84145,12.691872)"
       clip-path="url(#clipPath28)" />
    <path
       id="path2"
       style="fill:#450304;fill-opacity:1;stroke-width:0.07763"
       d="m 394.34796,13.918922 c 0.0342,0.15358 0.0674,0.29837 0.0996,0.42968 0.36579,1.49194 0.36729,1.52317 0.13868,2.36915 -0.25523,0.9445 -0.73545,1.94052 -1.12305,2.32812 -0.34783,0.34783 -0.22249,0.54555 0.36914,0.58398 0.7991,0.0519 1.74721,0.4372 2.73047,1.10938 0.38813,0.26534 0.53247,0.44089 0.95508,1.16797 0.71928,1.23745 1.20706,1.96336 2.10351,3.1289 0.4365,0.56753 0.79296,1.04761 0.79297,1.06641 0,0.0188 -1.39006,2.08097 -3.08984,4.58399 -1.69977,2.50303 -3.10374,4.60475 -3.11914,4.66992 -0.0349,0.14798 0.13741,0.32887 0.28125,0.29492 0.0593,-0.014 1.96441,-1.28675 4.23242,-2.83008 2.26799,-1.54335 4.32893,-2.94307 4.58008,-3.10937 l 0.45703,-0.30274 0.46289,0.36914 c 0.97792,0.77806 2.55061,1.86302 3.55078,2.45117 1.00928,0.59352 1.05349,0.63146 1.42773,1.20704 0.68431,1.05245 0.97525,1.78543 1.02735,2.58789 0.0173,0.26582 0.0928,0.50942 0.16797,0.54296 0.0853,0.038 0.32519,-0.096 0.63867,-0.35742 0.38709,-0.32273 0.7635,-0.50615 1.63476,-0.79883 1.23752,-0.41572 1.23911,-0.41708 3.14649,0.0527 0.9651,0.23772 2.70874,0.54306 3.78906,0.66211 l 0.45313,0.0488 1.27539,2.11329 c 0.87875,1.45368 1.30989,2.09172 1.42578,2.11132 8.8e-4,8e-5 0.005,0 0.006,0 h 0.002 c 0.11667,-0.0199 0.57484,-0.6686 1.51172,-2.14257 l 1.36133,-2.14063 1.08398,-0.1582 c 0.59616,-0.0866 1.61364,-0.27808 2.25977,-0.42578 1.2896,-0.29479 1.68791,-0.2669 3.04101,0.21484 0.5762,0.20514 0.96024,0.41758 1.33008,0.73242 0.60421,0.51442 0.79837,0.49986 0.82227,-0.0625 0.0257,-0.60452 0.19841,-1.13728 0.64648,-1.99414 0.53908,-1.03092 0.75872,-1.2534 1.79297,-1.81641 1.08357,-0.58985 2.72032,-1.67525 3.82227,-2.53515 l 0.85546,-0.66797 4.61719,3.14062 c 4.40876,2.99878 4.62563,3.13438 4.80469,3 0.0871,-0.0653 0.15516,-0.13045 0.16797,-0.1582 l 0.002,-0.002 v -0.002 -0.002 -0.002 -0.002 c -0.0102,-0.0155 -1.42883,-2.1108 -3.15234,-4.6543 l -3.13281,-4.62304 0.67382,-0.86328 c 0.88014,-1.12635 1.96055,-2.7572 2.53711,-3.83008 0.25329,-0.4713 0.55741,-0.94763 0.67774,-1.05664 0.64299,-0.58561 2.15108,-1.26448 3.02148,-1.36133 0.27534,-0.0306 0.52755,-0.11744 0.56055,-0.19141 0.0381,-0.0856 -0.0973,-0.3134 -0.37305,-0.62695 -0.30309,-0.34467 -0.51445,-0.71818 -0.70508,-1.24414 -0.48206,-1.33015 -0.54541,-1.69901 -0.29297,-3.00586 h -0.5957 c -0.22428,0.90761 -0.48814,1.83589 -0.74414,2.58594 -1.12329,3.29117 -2.4154,5.64756 -4.8125,8.77148 -0.25827,0.33657 -0.27277,0.33185 -0.71875,-0.27344 -0.18694,-0.2537 -0.15906,-0.31807 0.47656,-1.10351 0.60387,-0.74622 1.71258,-2.48287 2.36524,-3.70313 1.04014,-1.94471 1.84803,-4.06616 2.39648,-6.27734 h -3.86719 c -0.13641,0.48214 -0.26124,0.78891 -0.3496,0.78516 -0.0465,-0.002 -0.94193,-0.32054 -2.21485,-0.78516 h -1.5957 c 2.00415,0.97329 3.58195,1.75426 3.58008,1.77148 -0.0132,0.14135 -0.89885,2.05436 -1.3086,2.82618 -0.4713,0.88772 -1.52417,2.56128 -1.75781,2.79492 -0.0559,0.0559 -0.15566,0.0426 -0.22266,-0.0312 -0.0544,-0.0597 -1.43761,-2.0843 -3.02148,-4.41406 a 18.842102,18.842102 0 0 1 -0.32813,0.48632 c 4.78987,7.03092 11.26357,16.55531 11.30469,16.64649 0.025,0.0555 -4.53863,-4.47622 -10.14062,-10.07227 l -3.67188,-3.66601 a 18.842102,18.842102 0 0 1 -2.39062,1.91601 c 0.13334,0.0922 0.26263,0.18135 0.38672,0.26758 4.48345,3.11594 10.27539,7.33161 10.27539,7.47852 0,0.01 -0.002,0.0194 -0.004,0.0254 l -0.002,0.002 v 0.002 l -0.002,0.002 -0.002,0.002 -0.002,0.002 -0.002,0.002 h -0.002 -0.002 l -0.002,0.002 h -0.002 -0.002 -0.002 c -0.009,-0.002 -0.0219,-0.008 -0.0332,-0.0195 -0.0329,-0.0329 -1.13139,-0.77475 -2.4414,-1.64649 -2.64255,-1.75847 -5.72196,-3.88215 -8.53125,-5.87695 a 18.842102,18.842102 0 0 1 -0.89649,0.54101 c 2.51774,1.72927 4.75587,3.27894 4.75586,3.30469 v 0.002 0.002 c -3.4e-4,0.001 -0.003,0.005 -0.004,0.006 -0.0833,0.15132 -1.44341,1.0477 -2.51953,1.6543 -0.82115,0.46289 -2.9911,1.48633 -3.15039,1.48633 -0.0245,0 -0.89156,-1.73846 -1.92773,-3.86524 -0.18451,-0.37871 -0.36298,-0.74523 -0.5332,-1.09179 a 18.842102,18.842102 0 0 1 -0.38086,0.12109 c 0.12929,0.35377 0.2658,0.72746 0.4082,1.11328 0.81388,2.20519 1.45699,4.03129 1.42969,4.05859 -0.0967,0.0967 -2.12492,0.61341 -3.10157,0.79102 -0.54496,0.0991 -1.48177,0.22563 -2.08203,0.2793 l -1.08984,0.0977 -0.29102,-0.60157 c -0.36959,-0.76512 -0.50385,-0.75804 -0.90429,0.0508 l -0.28321,0.57618 -0.73242,-0.0371 c -0.40218,-0.0207 -1.12382,-0.0797 -1.60351,-0.13086 -0.92642,-0.0988 -3.26877,-0.54488 -3.25977,-0.6211 0.003,-0.0249 0.59503,-2.14023 1.31445,-4.69922 0.0566,-0.20148 0.11144,-0.40078 0.16602,-0.5957 a 18.842102,18.842102 0 0 1 -0.43359,-0.11133 c -0.0659,0.17324 -0.13348,0.3488 -0.20118,0.52735 -0.93273,2.46008 -1.72968,4.50705 -1.77148,4.54882 -0.0967,0.0967 -0.88709,-0.16153 -2.29102,-0.75 -1.37416,-0.57599 -2.77795,-1.33175 -3.97656,-2.14257 -1.10446,-0.74715 -1.03047,-0.67892 -0.82812,-0.78907 0.0787,-0.0428 2.09869,-1.4108 4.71093,-3.18945 a 18.842102,18.842102 0 0 1 -0.64257,-0.38086 c -2.54427,1.79432 -5.32271,3.72512 -7.29883,5.06055 -2.93687,1.98468 -5.7762,3.83322 -5.61719,3.65625 0.43106,-0.47948 7.16259,-5.21425 12.57812,-8.93164 a 18.842102,18.842102 0 0 1 -2.70117,-2.13086 l -3.56445,3.56445 c -5.57528,5.57528 -10.14495,10.1285 -10.15625,10.11719 -0.0113,-0.0113 3.18592,-4.73438 7.10547,-10.49609 1.45411,-2.13753 2.88097,-4.23535 4.13281,-6.07618 a 18.842102,18.842102 0 0 1 -0.33789,-0.50195 c -1.56926,2.30482 -2.9315,4.31268 -3.03711,4.48047 -0.0544,0.0865 -0.13569,0.11736 -0.17969,0.0684 -0.23411,-0.26215 -1.41443,-2.14972 -1.81054,-2.89453 -0.88728,-1.66838 -1.83796,-4.09173 -1.66992,-4.25977 0.017,-0.017 0.28867,-0.13133 0.74023,-0.31054 h -1.49609 c 0.64633,2.28129 1.63121,4.47386 2.94921,6.56054 0.29872,0.47292 0.44112,0.70394 0.44727,0.74414 v 0.002 0.002 0.002 h -0.002 -0.002 -0.002 l -0.002,-0.002 h -0.002 c -0.0297,-0.0211 -0.11414,-0.11618 -0.24218,-0.26562 -0.22982,-0.26825 -0.5417,-0.64814 -0.69336,-0.84375 -0.1069,-0.13787 -0.17292,-0.20742 -0.19922,-0.2168 l -0.002,-0.002 h -0.002 -0.002 -0.002 v 0.002 h -0.002 v 0.002 h -0.002 v 0.002 0.002 c -0.006,0.0766 0.26348,0.58857 0.76172,1.42188 0.34162,0.57136 0.62112,1.07663 0.62109,1.12304 0,0.002 -8e-5,0.006 0,0.008 v 0.002 l -0.002,0.002 v 0.002 l -0.002,0.002 v 0.002 h -0.002 l -0.002,0.002 h -0.002 l -0.002,0.002 h -0.002 c -0.15303,-0.001 -1.40033,-1.60552 -2.08008,-2.69531 -0.1952,-0.31299 -0.3785,-0.58949 -0.4082,-0.61523 -0.006,-0.005 -0.0116,-0.008 -0.0156,-0.01 l -0.002,-0.002 h -0.002 -0.002 -0.002 -0.002 -0.002 v 0.002 h -0.002 v 0.002 0.002 c 4e-5,0.001 6e-5,0.003 0,0.004 -10e-4,0.13776 0.61075,1.3276 1.25,2.40625 0.46329,0.78173 0.84178,1.45634 0.8418,1.49804 v 0.002 0.002 0.002 0.002 h -0.002 v 0.002 h -0.002 v 0.002 h -0.002 -0.002 -0.002 c -0.16216,-0.0495 -1.77688,-2.27415 -2.41601,-3.34375 -0.29786,-0.49847 -0.56716,-0.90624 -0.59766,-0.90625 h -0.002 -0.002 l -0.002,0.002 h -0.002 v 0.002 h -0.002 v 0.002 l -0.002,0.002 v 0.002 c -0.0548,0.17287 1.11341,2.41179 1.94727,3.71289 0.27356,0.42683 0.40162,0.65768 0.40234,0.70703 v 0.002 0.002 0.002 0.002 h -0.002 v 0.002 h -0.002 -0.002 -0.002 -0.002 c -0.0727,-0.0296 -0.43997,-0.47802 -1.03125,-1.28515 -0.79217,-1.08136 -1.41421,-2.06788 -2.01563,-3.19727 -0.20792,-0.3904 -0.32572,-0.59602 -0.36133,-0.62109 h -0.002 l -0.002,-0.002 h -0.002 -0.002 v 0.002 h -0.002 v 0.002 l -0.002,0.002 c -0.004,0.0345 0.0476,0.18972 0.14843,0.45898 0.25499,0.68089 1.04041,2.25702 1.63086,3.26953 0.22003,0.37731 0.32076,0.57845 0.32031,0.61914 v 0.002 l -0.002,0.002 v 0.002 l -0.002,0.002 h -0.002 -0.002 l -0.002,-0.002 c -0.0482,-0.026 -0.25193,-0.30574 -0.56445,-0.80859 -1.54046,-2.47862 -2.65328,-5.08179 -3.33008,-7.79297 h -0.57422 c 0.56486,2.28424 1.43789,4.55068 2.5293,6.5332 0.63703,1.15716 1.8204,2.95831 2.44531,3.72266 l 0.4375,0.53516 -0.28711,0.42773 -0.28516,0.42774 -0.33203,-0.34375 c -0.44096,-0.45599 -1.7638,-2.35469 -2.44531,-3.50977 -1.38436,-2.34631 -2.45062,-5.02551 -3.11328,-7.79297 z m 55.76757,2.25586 c 0.0173,0.0173 0.15718,0.38733 0.31055,0.82422 0.15337,0.43688 0.38088,0.93616 0.50586,1.10937 l 0.22852,0.31445 -0.61915,0.20703 c -0.33991,0.11333 -0.84639,0.32274 -1.12695,0.46485 -0.28055,0.14211 -0.5188,0.24882 -0.5293,0.23828 -0.0105,-0.0105 0.12595,-0.35089 0.30469,-0.75586 0.17873,-0.40496 0.45275,-1.11861 0.60938,-1.58594 0.15662,-0.46732 0.2991,-0.83372 0.3164,-0.8164 z m -54.95898,0.73632 h 0.002 0.002 0.002 0.002 0.002 v 0.002 h 0.002 c 0.0304,0.0226 0.0913,0.15282 0.14453,0.32032 0.0631,0.19851 0.34788,0.90011 0.63281,1.56054 l 0.51758,1.20118 -0.55078,-0.28907 c -0.30272,-0.15957 -0.81278,-0.37105 -1.13477,-0.46875 l -0.58594,-0.17773 0.28907,-0.52734 c 0.15962,-0.2905 0.36839,-0.76406 0.46289,-1.05274 0.0945,-0.28868 0.19039,-0.54388 0.21289,-0.56641 z m 2.97265,0.72071 -0.002,0.002 h -0.002 -0.002 v 0.002 h -0.002 v 0.002 l -0.002,0.002 -0.002,0.002 -0.002,0.002 v 0.002 c -0.006,0.0195 -0.005,0.0597 0.006,0.10937 0.0214,0.0994 0.071,0.2136 0.11133,0.25391 l 0.002,0.002 h 0.002 l 0.002,0.002 c 0.002,0.001 0.004,0.003 0.006,0.004 5.3e-4,2.9e-4 0.003,0.003 0.004,0.004 h 0.002 c 4.7e-4,1.3e-4 0.003,0.001 0.004,0.002 h 0.002 0.002 0.002 l 0.002,-0.002 h 0.002 0.002 v -0.002 h 0.002 v -0.002 h 0.002 v -0.002 -0.002 c 0.008,-0.0184 0.009,-0.0585 -0.002,-0.11133 -0.0213,-0.0994 -0.073,-0.2136 -0.11328,-0.25391 -0.003,-0.002 -0.008,-0.008 -0.01,-0.01 -10e-4,-8.1e-4 -0.003,-10e-4 -0.004,-0.002 -0.001,-4.2e-4 -0.005,-0.002 -0.006,-0.002 l -0.002,-0.002 h -0.002 z m 48.75,0.17187 c 0.10403,1e-5 -1.10929,2.57397 -1.70703,3.62305 -0.62421,1.09554 -1.48672,2.43594 -1.71679,2.66602 -0.11466,0.11466 -0.30015,-0.0591 -0.65235,-0.61524 l -0.23633,-0.37305 0.40821,-0.50195 c 0.68812,-0.85059 1.54504,-2.07707 2.08398,-2.98047 0.2829,-0.47418 0.56736,-0.94936 0.63086,-1.05469 0.01,-0.0165 0.0177,-0.0273 0.0234,-0.0332 l 0.002,-0.002 0.002,-0.002 h 0.002 v -0.002 h 0.002 v 0.002 h 0.002 v 0.002 h 0.002 v 0.002 c 0.002,0.0291 -0.0292,0.13763 -0.0879,0.29688 -0.26601,0.7215 -1.16828,2.46041 -1.8125,3.49219 -0.28185,0.45142 -0.422,0.70165 -0.42383,0.75195 v 0.002 l 0.002,0.002 v 0.002 0.002 h 0.002 0.002 0.002 0.002 c 0.0554,-0.0213 0.32274,-0.35 0.7871,-0.97852 0.79408,-1.07479 1.47702,-2.1513 2.12696,-3.35351 0.28209,-0.52177 0.53209,-0.94725 0.55468,-0.94727 z m 6.72071,0.74805 c -0.53508,0 -0.87553,0.38517 -0.82813,0.93555 0.0448,0.52037 0.38516,0.80391 0.92383,0.76953 1.08418,-0.0692 0.99237,-1.70509 -0.0957,-1.70508 z m -8.75977,0.27539 c 0.0842,0 -1.15752,2.38413 -1.67773,3.2207 -0.26998,0.43413 -0.53735,0.8182 -0.59375,0.85157 -0.0604,0.0357 -0.16019,-0.0324 -0.24219,-0.16602 -0.11099,-0.18078 -0.0905,-0.28237 0.0957,-0.5 0.44996,-0.52573 1.49038,-1.97655 1.92774,-2.6875 0.24273,-0.39463 0.46283,-0.71879 0.49023,-0.71875 z m -53.23047,0.37695 c -0.0568,5.2e-4 -0.10504,0.009 -0.14257,0.0254 -0.35232,0.15691 -0.59766,0.51361 -0.59766,0.86719 2e-5,0.50361 0.33882,0.81641 0.88476,0.81641 0.25795,-10e-6 0.50401,-0.0782 0.6211,-0.19531 0.23599,-0.23598 0.26041,-0.98374 0.0391,-1.20508 -0.17232,-0.17233 -0.55866,-0.31084 -0.80469,-0.3086 z m 52.10547,0.25977 h 0.002 0.002 v 0.002 h 0.002 v 0.002 c 0.002,0.0143 -0.005,0.0535 -0.0176,0.11328 -0.0441,0.20936 -1.00434,1.94763 -1.36328,2.4668 -0.20689,0.29926 -0.23897,0.30985 -0.39648,0.15234 -0.16486,-0.16486 -0.13822,-0.2091 0.7168,-1.29688 0.4873,-0.61997 0.92977,-1.21419 0.98437,-1.32031 0.0331,-0.0643 0.0549,-0.10303 0.0664,-0.11523 l 0.002,-0.002 h 0.002 z m -40.81836,2.11914 h 0.002 0.002 c 0.008,1.6e-4 0.0264,0.006 0.0488,0.0195 0.09,0.0524 0.18729,0.15312 0.21679,0.22266 0.005,0.0109 0.006,0.0179 0.006,0.0234 v 0.002 0.002 l -0.002,0.002 v 0.002 h -0.002 l -0.002,0.002 h -0.002 -0.002 -0.002 l -0.002,-0.002 c -0.0255,-0.008 -0.0829,-0.0517 -0.15625,-0.12696 -0.0671,-0.0688 -0.10389,-0.11716 -0.10742,-0.13672 v -0.002 -0.002 -0.002 -0.002 h 0.002 z m -2.29297,1.2207 h 0.002 0.002 0.002 c 0.007,3.8e-4 0.0177,0.003 0.0293,0.008 0.0706,0.03 0.15349,0.11101 0.18359,0.18164 0.005,0.0116 0.007,0.0244 0.008,0.0312 v 0.002 0.002 l -0.002,0.002 v 0.002 h -0.002 l -0.002,0.002 h -0.002 -0.002 c -0.0201,-0.002 -0.0672,-0.0359 -0.12695,-0.0957 -0.0566,-0.0566 -0.0887,-0.0996 -0.0937,-0.12109 v -0.002 -0.002 -0.002 -0.002 -0.002 h 0.002 v -0.002 z m 23.02735,2.57227 a 18.842102,18.842102 0 0 1 -0.56446,0.0234 c -0.065,0.38373 -0.11722,0.69256 -0.13671,0.80469 h -0.002 c -0.0266,0.15331 -0.0541,0.27719 -0.0703,0.31054 -5.9e-4,10e-4 -0.003,0.005 -0.004,0.006 l -0.002,0.002 h -0.002 -0.002 c -0.005,-0.006 -0.0137,-0.42391 -0.0234,-1.11718 a 18.842102,18.842102 0 0 1 -0.29492,0.002 18.842102,18.842102 0 0 1 -0.53125,-0.008 c 0.36813,1.8218 0.64764,3.12031 0.68359,3.15625 0.27209,0.27208 0.41829,-0.1565 0.94922,-3.17969 z m 13.1582,1.5293 c 0,0.0278 -0.42092,0.36961 -0.9375,0.75976 -0.51655,0.39019 -0.93947,0.73881 -0.93945,0.77344 0,0.0346 0.47229,-0.2085 1.05078,-0.53906 1.00452,-0.57402 1.44692,-0.82753 1.52148,-0.83399 h 0.002 0.002 0.002 v 0.002 h 0.002 0.002 v 0.002 0.002 h 0.002 v 0.002 l -0.002,0.002 c -0.0165,0.0408 -0.18266,0.18734 -0.43945,0.41406 -0.5297,0.4677 -1.21432,0.96661 -2.625,1.90821 -0.0539,0.036 -0.0856,0.0599 -0.0957,0.0723 l -0.002,0.002 v 0.002 l -0.002,0.002 v 0.002 h 0.002 v 0.002 h 0.002 0.002 0.002 c 0.14124,-0.015 1.77404,-0.84373 2.72461,-1.40039 0.5949,-0.34836 0.87933,-0.5075 0.92773,-0.50977 h 0.002 0.002 0.002 v 0.002 h 0.002 v 0.002 0.002 0.002 l -0.002,0.002 c -0.0126,0.0245 -0.0877,0.0914 -0.21289,0.19531 -0.80907,0.67193 -2.04372,1.53623 -3.10156,2.16797 -0.55447,0.33113 -1.00972,0.61763 -1.01172,0.63867 v 0.002 0.002 0.002 l 0.002,0.002 0.002,0.002 h 0.002 0.002 l 0.002,0.002 c 0.21214,0.0244 3.08119,-1.46229 4.21484,-2.19336 0.24501,-0.15804 0.38143,-0.23448 0.41797,-0.23828 h 0.002 0.002 0.002 v 0.002 h 0.002 l 0.002,0.002 v 0.002 0.002 0.002 c -0.0233,0.0607 -0.41192,0.38389 -1.07617,0.87891 -0.98144,0.73139 -2.77042,1.84512 -3.66406,2.28125 -0.29575,0.14435 -0.54081,0.28373 -0.57031,0.32422 l -0.002,0.002 v 0.002 l -0.002,0.002 v 0.002 0.002 h 0.002 v 0.002 l 0.002,0.002 h 0.002 l 0.002,0.002 c 0.16912,0.0385 2.88897,-1.2373 3.75,-1.76562 0.21439,-0.13155 0.38451,-0.21433 0.4336,-0.21485 h 0.002 0.002 0.002 l 0.002,0.002 h 0.002 0.002 v 0.002 l 0.002,0.002 v 0.002 0.002 0.002 0.002 l -0.002,0.002 c -8e-4,0.001 -10e-4,0.003 -0.002,0.004 -0.0422,0.0673 -0.47002,0.35803 -0.96093,0.65039 -2.94972,1.75671 -6.39493,2.97151 -9.91407,3.49414 -0.68317,0.10145 -1.25719,0.16666 -1.27539,0.14453 -0.0639,-0.0762 -1.12498,-2.40302 -1.125,-2.46679 v -0.002 -0.002 l 0.002,-0.002 c 0.0465,-0.038 0.55801,-0.1205 1.17578,-0.1875 3.82988,-0.41542 7.59005,-1.76309 10.71093,-3.83985 0.53169,-0.3538 0.96679,-0.6216 0.9668,-0.59375 z m -29.39453,0.0781 h 0.002 0.002 c 0.0519,-0.002 0.30869,0.12463 0.61132,0.30859 0.79905,0.4857 2.28518,1.28493 2.28516,1.22852 0,-0.024 -0.34255,-0.29166 -0.76172,-0.59375 -0.58185,-0.41935 -0.89331,-0.67295 -0.91797,-0.73047 l -0.002,-0.002 v -0.002 -0.002 -0.002 l 0.002,-0.002 h 0.002 v -0.002 h 0.002 c 8.5e-4,-4e-5 0.005,-6e-5 0.006,0 0.0582,0.008 0.3039,0.1437 0.74023,0.42382 3.3782,2.16879 7.10791,3.44119 11.09375,3.78321 0.76881,0.066 1.24019,0.14608 1.31641,0.21875 0.002,0.002 0.005,0.005 0.006,0.008 v 0.002 l 0.002,0.002 v 0.002 0.002 0.002 0.002 0.002 0.002 0.002 l -0.002,0.002 c -0.0337,0.0703 -0.30555,0.63968 -0.60547,1.26562 l -0.54688,1.13868 -0.5957,-0.0293 c -0.3281,-0.0157 -1.18869,-0.12808 -1.91211,-0.25 -3.44224,-0.58015 -6.45835,-1.68726 -9.40625,-3.45313 -0.72258,-0.43284 -1.36433,-0.84281 -1.42773,-0.91211 -0.003,-0.003 -0.007,-0.007 -0.008,-0.01 v -0.002 -0.002 -0.002 h 0.002 v -0.002 h 0.002 c 8e-4,0 0.003,-10e-5 0.004,0 0.0589,0.0105 0.34337,0.1597 0.71484,0.37695 1.0167,0.59465 2.64607,1.38542 3.41797,1.66016 0.22644,0.0806 0.37963,0.12776 0.4082,0.12695 h 0.002 0.002 v -0.002 -0.002 l -0.002,-0.002 -0.002,-0.002 c -0.005,-0.004 -0.015,-0.009 -0.0273,-0.0156 -1.79309,-0.94456 -3.67918,-2.1565 -4.8125,-3.09179 -0.0976,-0.0805 -0.15761,-0.13585 -0.16992,-0.15821 v -0.002 -0.002 -0.002 -0.002 h 0.002 0.002 v -0.002 h 0.002 c 0.0517,8e-5 0.38233,0.18393 1.0625,0.58594 1.20681,0.7133 3.26493,1.74313 3.42383,1.71875 h 0.002 v -0.002 h 0.002 0.002 v -0.002 h 0.002 v -0.002 l 0.002,-0.002 c 0,-0.0264 -0.3922,-0.27676 -0.87109,-0.55469 -1.02457,-0.5946 -2.79028,-1.8292 -3.16602,-2.21484 -0.0321,-0.0329 -0.0513,-0.058 -0.0566,-0.0723 v -0.002 -0.002 -0.002 -0.002 -0.002 h 0.002 v -0.002 h 0.002 v -0.002 h 0.002 0.002 c 0.0537,-0.006 0.32806,0.13873 0.8418,0.44336 1.03526,0.61386 2.46787,1.34729 2.57813,1.32422 h 0.002 v -0.002 h 0.002 l 0.002,-0.002 v -0.002 -0.002 c -1e-5,-0.0272 -0.37215,-0.29629 -0.82813,-0.59766 -0.95712,-0.63256 -2.39479,-1.73498 -2.43945,-1.86914 v -0.002 -0.002 -0.002 -0.002 -0.002 h 0.002 z m -2.28125,1.49609 1.02148,0.76953 c 1.2724,0.95959 3.33144,2.19988 4.77149,2.87305 2.33276,1.09047 6.16789,2.17466 8.47461,2.39453 0.91517,0.0872 0.94306,0.099 0.80859,0.39844 -0.31082,0.69214 -0.30343,0.68906 -1.38672,0.55078 -2.66498,-0.34021 -5.97264,-1.30852 -8.41211,-2.46289 -1.46721,-0.6943 -3.52742,-1.9262 -4.77343,-2.85547 -1.19782,-0.89347 -1.4042,-1.10641 -1.19336,-1.22461 0.0903,-0.0506 0.28285,-0.17093 0.42773,-0.26758 z m 34.81641,0.082 h 0.002 c 0.003,-8e-5 0.006,-5e-5 0.008,0 0.078,0.002 0.30572,0.12147 0.50586,0.26562 l 0.36328,0.26172 -0.32031,0.24414 c -0.1755,0.13385 -0.61654,0.46986 -0.98242,0.74805 -3.54563,2.69663 -8.17914,4.62179 -12.80078,5.31641 -0.90363,0.13581 -1.0022,0.0976 -1.22657,-0.47461 l -0.13671,-0.34961 0.60937,-0.082 c 4.66788,-0.62441 9.59606,-2.63722 13.08789,-5.34571 0.40433,-0.31361 0.79563,-0.57015 0.89063,-0.58398 z m -1.9336,0.58594 h 0.002 0.002 0.002 0.002 0.002 0.002 l 0.002,0.002 0.002,0.002 v 0.002 h 0.002 v 0.002 0.002 c 3.8e-4,0.0105 -0.004,0.0284 -0.0137,0.0508 -0.0316,0.074 -0.0978,0.13477 -0.14649,0.13476 -10e-4,0 -0.005,1.1e-4 -0.006,0 -0.002,-3.6e-4 -0.004,-0.001 -0.006,-0.002 h -0.002 l -0.002,-0.002 h -0.002 v -0.002 h -0.002 v -0.002 h -0.002 v -0.002 l -0.002,-0.002 v -0.002 -0.002 -0.002 c 0.001,-0.0241 0.0305,-0.0693 0.082,-0.11718 0.0388,-0.0358 0.0672,-0.0561 0.084,-0.0606 z m -0.36523,0.23437 h 0.002 0.002 0.002 0.002 0.002 l 0.002,0.002 v 0.002 h 0.002 v 0.002 0.002 0.002 c -3.8e-4,0.007 -0.003,0.0177 -0.008,0.0293 -0.03,0.0706 -0.11104,0.15358 -0.18164,0.1836 -0.0116,0.005 -0.0244,0.007 -0.0312,0.008 h -0.002 -0.002 -0.002 v -0.002 h -0.002 v -0.002 l -0.002,-0.002 v -0.002 -0.002 c 0.002,-0.0201 0.036,-0.0672 0.0957,-0.12696 0.0566,-0.0566 0.0996,-0.0887 0.1211,-0.0937 z m -14.65625,1.50391 h 0.002 0.002 0.002 0.002 0.002 l 0.002,0.002 c 10e-4,5.2e-4 0.005,0.003 0.006,0.004 0.0155,0.0125 0.0348,0.0431 0.0547,0.0879 0.0711,0.16043 0.58907,1.28035 1.15235,2.48828 0.56328,1.20792 1.02497,2.20877 1.02539,2.22461 4.4e-4,0.0159 -0.51889,0.84937 -1.1543,1.85351 -0.63542,1.00415 -1.18821,1.83992 -1.22851,1.85743 -0.0684,0.0297 -0.0428,-4.90663 0.0391,-7.54102 0.0195,-0.62805 0.0434,-0.91823 0.0859,-0.9707 l 0.002,-0.002 0.002,-0.002 h 0.002 z m -13.11133,2.50781 1.19922,0.51758 c 0.65932,0.28444 1.36007,0.56772 1.55859,0.63086 0.16334,0.052 0.26438,0.0893 0.29102,0.12304 10e-4,0.002 0.003,0.006 0.004,0.008 l 0.002,0.002 v 0.002 0.002 c -10e-6,7e-4 7e-5,0.005 0,0.006 v 0.002 0.002 c -0.0172,0.0465 -0.17154,0.10105 -0.48438,0.20118 -0.25678,0.0822 -0.73962,0.28334 -1.07226,0.44726 l -0.60547,0.29883 -0.11328,-0.4707 c -0.0628,-0.25807 -0.26445,-0.76075 -0.44727,-1.11914 z m 24.70703,0.28125 -0.26758,0.51953 c -0.1462,0.28592 -0.35795,0.79583 -0.4707,1.13281 l -0.20508,0.61329 -0.4375,-0.25977 c -0.24144,-0.14293 -0.74075,-0.3681 -1.10937,-0.5 -0.36863,-0.13191 -0.68406,-0.25437 -0.70118,-0.27148 h -0.002 v -0.002 h 0.002 v -0.002 l 0.002,-0.002 c 0.0359,-0.0315 0.31263,-0.13761 0.65625,-0.25 0.37916,-0.12402 1.10439,-0.39461 1.61133,-0.60157 z m -24.82617,3.61328 c -0.24435,0.008 -0.48915,0.0731 -0.60742,0.19141 -0.11714,0.11709 -0.19531,0.36314 -0.19532,0.62109 10e-6,0.55118 0.29218,0.85938 0.81641,0.85938 0.80426,0 1.16654,-0.93698 0.58594,-1.51758 -0.11116,-0.11116 -0.35526,-0.16187 -0.59961,-0.1543 z m 24.81445,0.26953 c -0.41727,0.0243 -0.80079,0.34958 -0.80078,0.83594 0,0.59231 0.53687,1.0115 1.07617,0.83984 0.44168,-0.14056 0.60217,-0.33463 0.63477,-0.76757 0.0215,-0.28574 -0.0385,-0.44086 -0.24805,-0.65039 -0.16901,-0.16902 -0.37439,-0.2499 -0.57812,-0.25782 -0.028,-0.001 -0.0562,-0.002 -0.084,0 z m -11.84961,3.58399 c -0.0394,0.002 -0.0848,0.0234 -0.13672,0.0586 -0.0843,0.0571 -0.20066,1.4811 -0.28906,3.55273 -0.0809,1.90161 -0.12059,3.48484 -0.0879,3.51758 0.0328,0.0328 0.1488,0.0512 0.25781,0.041 0.24269,-0.0226 0.22598,0.14219 0.40039,-3.91992 0.11003,-2.56238 0.0962,-3.26245 -0.14453,-3.25 z" />
  </g>
</svg>
