<?xml version="1.0" encoding="UTF-8" standalone="no"?>
<!-- Created with Inkscape (http://www.inkscape.org/) -->

<svg
   version="1.1"
   id="svg1"
   width="845.33331"
   height="60"
   viewBox="0 0 845.33331 60"
   sodipodi:docname="footerscroll.svg"
   inkscape:version="1.4.3 (0d15f75042, 2025-12-25)"
   xml:space="preserve"
   inkscape:export-filename="footerscroll.pdf"
   inkscape:export-xdpi="300"
   inkscape:export-ydpi="300"
   xmlns:inkscape="http://www.inkscape.org/namespaces/inkscape"
   xmlns:sodipodi="http://sodipodi.sourceforge.net/DTD/sodipodi-0.dtd"
   xmlns="http://www.w3.org/2000/svg"
   xmlns:svg="http://www.w3.org/2000/svg"><defs
     id="defs1"><clipPath
       clipPathUnits="userSpaceOnUse"
       id="clipPath28"><path
         d="M 0,0 H 612 V 792 H 0 Z"
         transform="translate(-291.80121,-47.486799)"
         id="path28" /></clipPath><clipPath
       clipPathUnits="userSpaceOnUse"
       id="clipPath26"><path
         d="M 0,0 H 612 V 792 H 0 Z"
         transform="translate(-322.72751,-36.398101)"
         id="path26" /></clipPath></defs><sodipodi:namedview
     id="namedview1"
     pagecolor="#ffffff"
     bordercolor="#000000"
     borderopacity="0.25"
     inkscape:showpageshadow="2"
     inkscape:pageopacity="0.0"
     inkscape:pagecheckerboard="0"
     inkscape:deskcolor="#d1d1d1"
     inkscape:zoom="4.03352"
     inkscape:cx="421.83998"
     inkscape:cy="15.743073"
     inkscape:window-width="1920"
     inkscape:window-height="990"
     inkscape:window-x="0"
     inkscape:window-y="0"
     inkscape:window-maximized="1"
     inkscape:current-layer="g1"><inkscape:page
       x="0"
       y="0"
       inkscape:label="1"
       id="page1"
       width="845.33331"
       height="60"
       margin="0"
       bleed="0" /></sodipodi:namedview><g
     id="g1"
     inkscape:groupmode="layer"
     inkscape:label="1"><path
       id="path1-6"
       style="fill:#782fa9;stroke-width:0.274498;fill-opacity:1"
       d="M 389.47852 12.691406 C 389.98774 15.46665 390.82718 18.224602 391.88867 20.578125 C 393.29634 23.699212 395.14967 26.584859 397.36914 29.111328 C 398.60045 30.512943 400.56705 32.355405 402.02344 33.470703 C 402.2032 33.608354 402.36481 33.737749 402.38477 33.759766 C 402.58844 33.984286 405.05533 35.622986 405.79883 36.027344 C 406.05849 36.168551 406.45769 36.38649 406.68555 36.511719 C 408.69675 37.616944 411.03541 38.554233 413.60352 39.285156 C 414.57983 39.563034 416.30734 39.947703 416.98438 40.039062 C 417.16411 40.063333 417.47408 40.115026 417.67383 40.152344 C 418.03747 40.220284 419.97777 40.417935 420.79688 40.470703 C 421.70346 40.529093 425.19397 40.438127 426.13477 40.332031 C 429.85747 39.912217 433.09962 39.033555 436.51953 37.517578 C 438.92703 36.450381 441.75729 34.726094 443.74805 33.111328 C 448.57023 29.199934 452.01584 24.461949 454.17773 18.773438 C 454.93464 16.781801 455.49339 14.758862 455.85742 12.691406 L 454.82617 12.691406 C 452.0352 27.917413 438.68959 39.464844 422.66016 39.464844 C 406.63072 39.464844 393.28511 27.917413 390.49414 12.691406 L 389.47852 12.691406 z M 391.86328 12.691406 C 394.63217 27.178928 407.36197 38.117188 422.66016 38.117188 C 437.95832 38.117188 450.68655 27.178928 453.45508 12.691406 L 451.09375 12.691406 C 451.1762 12.756794 451.25107 12.823377 451.31836 12.890625 C 451.72903 13.301009 451.75913 13.391391 451.58984 13.71875 C 451.37933 14.125829 451.14497 14.187433 449.77539 14.197266 L 448.54297 14.205078 L 448.35938 14.445312 C 448.25912 14.577394 448.09114 14.77791 447.98438 14.890625 C 447.76819 15.118805 447.48668 15.158549 447.3125 14.984375 C 447.19697 14.86892 447.08902 14.530994 447.01758 14.070312 C 446.97958 13.825266 446.93663 13.78842 446.37891 13.511719 C 445.85123 13.249941 445.28441 12.957076 444.78516 12.691406 L 443.63672 12.691406 C 444.02965 12.934043 444.45094 13.224182 444.78906 13.494141 C 445.50072 14.062322 446.38452 14.924766 446.72852 15.386719 C 446.91205 15.633208 447.19727 16.139185 447.19727 16.21875 C 447.19727 16.224291 447.19649 16.232001 447.19531 16.236328 L 447.19531 16.238281 L 447.19336 16.240234 L 447.19141 16.242188 L 447.18945 16.244141 L 447.1875 16.246094 L 447.18555 16.248047 L 447.18359 16.25 L 447.18164 16.251953 L 447.17969 16.253906 C 447.12835 16.273718 446.9643 16.187239 446.61719 15.962891 C 446.04338 15.592043 445.58684 15.410702 444.98438 15.314453 C 444.22111 15.192516 444.1875 15.166651 443.96484 14.583984 C 443.71158 13.921156 443.15401 13.088158 442.70117 12.691406 L 441.45898 12.691406 C 441.45979 12.970698 441.47501 12.974313 441.75781 13.019531 C 442.16293 13.084321 442.40695 13.221707 442.61328 13.501953 C 442.97568 13.994211 442.86301 14.686648 442.35742 15.072266 C 442.03839 15.315634 441.50954 15.32845 441.125 15.101562 L 440.85938 14.943359 L 440.70508 15.089844 C 440.62008 15.169694 440.42922 15.285833 440.28125 15.347656 C 439.96653 15.479155 439.84213 15.525331 439.19141 15.210938 A 18.619263 18.358854 0 0 1 438.86914 15.792969 C 438.93727 15.833527 438.99049 15.866051 439.02148 15.886719 C 439.42552 16.15615 439.58839 16.484183 439.55859 16.962891 C 439.53769 17.296727 439.55577 17.355253 439.67969 17.394531 C 439.91415 17.468791 440.23263 17.733146 440.3418 17.943359 C 440.47273 18.195493 440.47083 18.752046 440.33984 19.003906 C 440.28364 19.111781 440.15304 19.279595 440.04883 19.376953 C 439.90437 19.511906 439.76102 19.559692 439.44336 19.580078 C 438.97988 19.609788 438.66188 19.467346 438.44141 19.130859 L 438.32031 18.947266 L 438.12109 19.087891 C 437.88817 19.25373 437.43257 19.320013 437.18164 19.224609 C 437.06065 19.178601 436.91805 19.083282 436.66406 18.861328 A 18.619263 18.358854 0 0 1 435.67383 19.892578 C 436.1007 20.351347 436.18314 20.747024 435.97461 21.246094 L 435.86523 21.507812 L 436.14844 21.769531 C 436.47689 22.073354 436.60123 22.432094 436.52344 22.857422 C 436.46754 23.163321 436.37405 23.318959 436.12109 23.533203 C 435.91935 23.703941 435.51447 23.79378 435.22266 23.732422 C 434.89405 23.663332 434.6272 23.4566 434.45117 23.134766 C 434.33658 22.925344 434.27472 22.87946 434.16016 22.916016 C 433.9084 22.996346 433.45597 22.945312 433.22266 22.810547 C 433.09904 22.739147 432.87954 22.501462 432.73438 22.283203 C 432.72451 22.268386 432.71261 22.248497 432.69727 22.224609 A 18.619263 18.358854 0 0 1 432.17969 22.541016 C 432.4001 22.940245 432.41529 23.060803 432.41602 23.306641 C 432.41701 23.691206 432.38301 23.777023 432.06055 24.210938 C 432.01705 24.269568 432.05975 24.385411 432.1875 24.552734 C 432.51705 24.984803 432.43503 25.640615 432 26.046875 C 431.9028 26.137705 431.72758 26.236527 431.61133 26.267578 C 431.3654 26.333268 430.88979 26.274873 430.66211 26.150391 C 430.42549 26.020914 430.19156 25.654555 430.15039 25.347656 C 430.11579 25.089502 430.10058 25.075005 429.83594 25.064453 C 429.51222 25.051563 429.21395 24.913071 428.99414 24.671875 C 428.94814 24.621382 428.86726 24.4337 428.75391 24.109375 A 18.619263 18.358854 0 0 1 427.34375 24.53125 C 427.40398 24.783722 427.44122 24.976519 427.44141 25.046875 C 427.44221 25.35033 427.2424 25.700781 426.94336 25.921875 L 426.72461 26.083984 L 426.83789 26.367188 C 427.05133 26.90068 426.86885 27.436367 426.35352 27.787109 C 426.0446 27.997279 425.6635 27.996724 425.26367 27.785156 C 424.88028 27.582417 424.68164 27.238727 424.68164 26.777344 C 424.68164 26.459439 424.66905 26.434626 424.46875 26.390625 C 424.18922 26.329225 423.90907 26.105486 423.76562 25.828125 C 423.72731 25.754032 423.69041 25.489251 423.65625 25.095703 A 18.619263 18.358854 0 0 1 422.92383 25.119141 C 422.89916 26.075432 422.76061 26.127864 422.30273 26.353516 C 421.95598 26.524353 421.93398 26.549884 421.95117 26.789062 C 421.98527 27.261526 421.76158 27.685618 421.3418 27.941406 C 420.85892 28.235642 420.24273 28.07969 419.91211 27.580078 C 419.75888 27.34849 419.73501 27.242315 419.75977 26.884766 C 419.77577 26.652611 419.81335 26.408092 419.84375 26.341797 C 419.88355 26.254917 419.85795 26.208562 419.74805 26.173828 C 419.51597 26.100178 419.16773 25.690374 419.11914 25.433594 C 419.10156 25.340927 419.11729 25.166649 419.1875 24.798828 A 18.619263 18.358854 0 0 1 417.73633 24.46875 C 417.66068 24.726973 417.60405 24.902757 417.57812 24.951172 C 417.45556 25.180236 417.03989 25.410156 416.74805 25.410156 C 416.5105 25.410156 416.48844 25.42901 416.44141 25.679688 C 416.36911 26.065068 416.22024 26.319657 415.94922 26.523438 C 415.38868 26.944907 414.6332 26.766909 414.31641 26.138672 C 414.10777 25.724923 414.10977 25.517404 414.33008 25.082031 L 414.50781 24.730469 L 414.29883 24.492188 C 414.02789 24.183608 413.95016 23.722037 414.10742 23.345703 C 414.12586 23.301533 414.16298 23.223278 414.21289 23.123047 A 18.619263 18.358854 0 0 1 413.60547 22.804688 C 413.50871 22.957249 413.41454 23.08896 413.35352 23.154297 C 413.12455 23.399387 412.69548 23.533354 412.32812 23.474609 C 412.09386 23.437139 412.05685 23.452434 412.01562 23.603516 C 411.95303 23.832476 411.75524 24.057247 411.45508 24.240234 C 411.01057 24.511225 410.42778 24.396643 410.06445 23.964844 C 409.67609 23.503309 409.71179 22.856502 410.15234 22.416016 L 410.42969 22.140625 L 410.28711 21.867188 C 410.18539 21.672383 410.15408 21.498519 410.17578 21.251953 C 410.1947 21.037466 410.21374 20.932618 410.46289 20.634766 A 18.619263 18.358854 0 0 1 409.40625 19.658203 L 409.1582 19.912109 L 408.76172 19.945312 C 408.48572 19.968203 408.29735 19.942288 408.14062 19.861328 C 407.91857 19.746484 407.91163 19.748832 407.75781 19.964844 C 407.67211 20.085304 407.47513 20.247183 407.32031 20.326172 C 406.49587 20.746758 405.57017 20.105078 405.67383 19.185547 C 405.71863 18.788226 405.90071 18.523301 406.26172 18.328125 C 406.52814 18.184097 406.52957 18.180378 406.48633 17.820312 C 406.43873 17.423375 406.55879 17.030684 406.79102 16.830078 C 406.81402 16.810197 406.88595 16.761876 406.99609 16.689453 A 18.619263 18.358854 0 0 1 406.66406 16.158203 C 406.10861 16.410099 405.80735 16.356122 405.37305 16.046875 C 405.18036 15.909656 405.17507 15.908692 404.88867 16.082031 C 404.13299 16.539431 403.10775 16.005895 403.11328 15.158203 C 403.11728 14.586208 403.53127 14.09533 404.11133 13.972656 C 404.31323 13.929956 404.34766 13.89094 404.34766 13.707031 C 404.34766 13.461088 404.55714 13.010253 404.75586 12.832031 C 404.7754 12.814545 404.87798 12.773241 405.04492 12.712891 A 18.619263 18.358854 0 0 1 405.03711 12.691406 L 402.45312 12.691406 C 402.14063 12.982296 399.82484 14.575818 399.29297 14.857422 C 398.94806 15.040053 398.9315 15.069154 398.86133 15.630859 C 398.83253 15.861401 398.74752 16.121457 398.66797 16.222656 C 398.44651 16.504096 398.17535 16.461752 397.83203 16.09375 C 397.28179 15.503998 397.29775 15.513042 396.79883 15.603516 C 396.18255 15.715428 395.29274 15.714654 394.91797 15.601562 C 394.54553 15.48903 394.32357 15.23569 394.32422 14.923828 C 394.32522 14.44634 394.83717 13.968044 395.90234 13.449219 C 396.51453 13.151044 396.57901 13.100366 396.64648 12.857422 C 396.66029 12.807699 396.67247 12.750282 396.68359 12.691406 L 395.23828 12.691406 C 395.17995 12.763678 395.12458 12.833703 395.07617 12.898438 C 394.85968 13.187908 394.55642 13.554932 394.4043 13.714844 C 394.08477 14.050748 394.00496 14.069018 393.85352 13.837891 C 393.68584 13.581985 393.65073 13.213952 393.74609 12.691406 L 391.86328 12.691406 z M 403.48438 13.107422 C 403.50236 13.107069 403.517 13.108781 403.5293 13.113281 C 403.68902 13.171211 403.62995 13.282707 403.19336 13.740234 C 402.59383 14.368634 401.94922 15.460899 401.94922 15.849609 C 401.94922 16.111574 401.62892 16.335566 401.04297 16.480469 C 400.35203 16.651336 399.82328 16.896387 399.35352 17.265625 C 399.02566 17.523317 398.89811 17.614949 398.85156 17.601562 C 398.85106 17.60135 398.84888 17.599977 398.84766 17.599609 L 398.8457 17.599609 C 398.84402 17.598312 398.83929 17.59353 398.83789 17.591797 L 398.83594 17.589844 C 398.82789 17.574652 398.82617 17.547324 398.82617 17.513672 C 398.82617 17.345987 399.14466 16.744716 399.43164 16.367188 C 399.73687 15.965653 401.02823 14.677729 401.52539 14.279297 C 402.31541 13.646143 403.21323 13.112762 403.48438 13.107422 z M 451.06836 14.691406 C 451.21028 14.695406 451.26434 14.765548 451.26367 14.898438 C 451.26268 15.208425 450.90063 15.836857 450.45703 16.298828 C 450.01329 16.760947 450.00982 16.765612 450.06836 17.074219 C 450.2121 17.832206 450.08362 18.61769 449.7832 18.816406 C 449.54565 18.973566 449.21325 18.669586 449.05078 18.146484 C 448.93764 17.782204 448.55116 17.082738 448.20508 16.613281 C 447.84633 16.126627 447.7763 15.900111 447.94141 15.765625 C 447.99141 15.724955 448.27657 15.619946 448.57617 15.53125 C 448.87574 15.44256 449.52357 15.206553 450.01562 15.007812 C 450.55752 14.788938 450.88593 14.68624 451.06836 14.691406 z M 442.02148 15.898438 C 442.50186 15.894937 442.50769 15.950841 442.07422 16.626953 C 441.89252 16.910405 441.67697 17.311385 441.5957 17.517578 C 441.5145 17.72377 441.41262 17.93239 441.37109 17.982422 C 441.32949 18.032452 441.25385 18.074219 441.20117 18.074219 L 441.19922 18.074219 L 441.19727 18.074219 L 441.19727 18.072266 L 441.19531 18.072266 C 441.19433 18.071828 441.19053 18.069004 441.18945 18.068359 C 441.04401 17.963125 440.17887 16.299571 440.18359 16.134766 C 440.18375 16.133633 440.18333 16.131793 440.18359 16.130859 L 440.18555 16.128906 L 440.18555 16.126953 L 440.1875 16.125 L 440.18945 16.125 C 440.2871 16.062995 441.58651 15.901426 442.02148 15.898438 z M 444.60742 16.052734 C 444.95072 16.049634 445.29794 16.230697 445.49805 16.595703 C 445.61237 16.804184 445.66071 16.825311 446.05078 16.853516 C 446.40919 16.879446 446.51476 16.920997 446.70312 17.109375 C 447.0131 17.419345 447.06911 17.947613 446.83398 18.328125 L 446.67188 18.591797 L 446.83594 18.765625 C 447.03044 18.972666 447.11335 19.565905 446.98242 19.810547 C 446.84707 20.063445 446.4713 20.251676 446.10352 20.251953 C 445.79175 20.252203 445.76864 20.267212 445.68164 20.507812 C 445.62814 20.656195 445.47909 20.838129 445.32422 20.943359 C 444.81541 21.289107 444.15409 21.11061 443.88672 20.554688 C 443.78023 20.333248 443.749 20.316204 443.5293 20.357422 C 442.71589 20.510019 442.09771 19.566872 442.54102 18.849609 L 442.69922 18.59375 L 442.51562 18.324219 C 442.06376 17.658339 442.46445 16.912488 443.27539 16.912109 C 443.58661 16.911849 443.60983 16.897204 443.74805 16.611328 C 443.92621 16.242827 444.26413 16.055912 444.60742 16.052734 z M 394.7793 16.144531 C 394.78746 16.143905 394.79774 16.144181 394.80859 16.144531 C 394.95957 16.150131 395.36174 16.258256 395.86719 16.429688 C 396.39657 16.609223 397.07556 16.809495 397.375 16.875 C 397.90519 16.990972 398.17383 17.136436 398.17383 17.308594 C 398.17383 17.355184 397.9791 17.696899 397.74219 18.066406 C 397.50525 18.435916 397.21186 19.014328 397.08984 19.351562 C 396.96779 19.6888 396.81506 20.045233 396.75 20.144531 C 396.6826 20.247498 396.5611 20.324219 396.46875 20.324219 C 396.02223 20.324219 395.73041 19.4198 395.91797 18.619141 C 395.98747 18.32225 395.86362 18.100055 395.41602 17.71875 C 394.76271 17.16214 394.38849 16.266274 394.75977 16.148438 C 394.76507 16.146687 394.77113 16.145158 394.7793 16.144531 z M 403.74219 16.898438 C 403.91183 16.865597 405.81066 16.972759 405.85547 17.017578 L 405.85742 17.019531 L 405.85938 17.021484 L 405.86133 17.023438 L 405.86133 17.025391 C 405.86169 17.026296 405.86299 17.030282 405.86328 17.03125 C 405.86922 17.057942 405.85436 17.10513 405.82227 17.146484 C 405.78307 17.197374 405.64057 17.515936 405.50781 17.855469 C 405.37503 18.195004 405.20703 18.5963 405.13281 18.746094 C 404.91421 19.18731 404.79788 19.116045 404.38477 18.291016 C 404.27483 18.071317 404.05765 17.724901 403.90234 17.521484 C 403.59779 17.122653 403.55033 16.935599 403.74219 16.898438 z M 401.43164 17.21875 C 401.45584 17.219513 401.47951 17.221809 401.50391 17.224609 C 401.88461 17.266349 402.16497 17.456219 402.3125 17.771484 C 402.4124 17.984941 402.44312 17.999278 402.68164 17.960938 C 403.00827 17.908427 403.49772 18.096068 403.65234 18.332031 C 403.82016 18.588176 403.79504 19.026601 403.5957 19.320312 L 403.42578 19.570312 L 403.5957 19.818359 C 404.06265 20.499822 403.56239 21.414063 402.72266 21.414062 C 402.49894 21.414062 402.44895 21.448268 402.34375 21.669922 C 402.27715 21.810519 402.12655 21.994971 402.00977 22.078125 C 401.50344 22.438659 400.7105 22.219707 400.49414 21.660156 C 400.44454 21.531992 400.36051 21.499152 399.99414 21.472656 C 399.63177 21.446426 399.51489 21.40386 399.33594 21.232422 C 399.14805 21.052389 399.11719 20.971985 399.11719 20.642578 C 399.11719 20.342589 399.1544 20.216742 399.29297 20.056641 L 399.4707 19.853516 L 399.2832 19.65625 C 399.14475 19.510729 399.09455 19.37815 399.08984 19.148438 C 399.07624 18.486078 399.45633 18.074219 400.08203 18.074219 C 400.38913 18.074219 400.41971 18.054767 400.55078 17.800781 C 400.74773 17.419131 401.06974 17.208313 401.43164 17.21875 z M 447.80078 17.449219 L 447.80273 17.449219 L 447.80469 17.449219 C 447.80897 17.449031 447.81393 17.449117 447.81836 17.449219 C 447.83586 17.449602 447.85656 17.453481 447.88086 17.462891 C 448.20028 17.585464 448.68508 19.175936 448.71484 20.195312 C 448.73034 20.727059 448.72428 20.74939 448.52148 20.894531 C 448.22749 21.103872 447.23034 21.591578 446.80664 21.734375 C 446.42796 21.862006 445.69408 21.946312 445.54492 21.878906 C 445.34724 21.789576 445.48426 21.656034 446.04492 21.390625 C 447.37625 20.760334 447.97189 19.64714 447.78906 18.134766 C 447.72812 17.629695 447.72331 17.465877 447.80078 17.449219 z M 398.22656 18.800781 C 398.23132 18.800091 398.23562 18.800781 398.24023 18.800781 L 398.24219 18.800781 L 398.24414 18.800781 L 398.24414 18.802734 L 398.24609 18.802734 L 398.24609 18.804688 C 398.27843 18.854302 398.31564 19.26658 398.33008 19.763672 C 398.35548 20.630078 398.3777 20.769088 398.55273 21.126953 C 398.89261 21.821628 399.44667 22.295316 400.37109 22.683594 C 400.62387 22.789767 400.83414 22.904764 400.85938 22.947266 L 400.85938 22.949219 L 400.86133 22.951172 L 400.86133 22.953125 L 400.85938 22.955078 C 400.85906 22.957289 400.85636 22.962469 400.85547 22.964844 C 400.83843 23.00036 400.76379 23.051728 400.67383 23.085938 C 400.57137 23.124878 400.40023 23.156197 400.29297 23.154297 C 399.90457 23.147397 398.70625 22.780285 398.10156 22.482422 L 397.48242 22.177734 L 397.45703 21.814453 C 397.42323 21.338349 397.57024 20.193609 397.74219 19.595703 C 397.8644 19.17088 398.07903 18.822166 398.22656 18.800781 z M 438.11328 19.976562 C 438.20818 19.973962 438.39732 20.023506 438.80664 20.134766 C 439.28157 20.263897 440.46205 20.294391 440.87891 20.1875 C 441.57454 20.00915 441.4998 19.985205 442.06445 20.564453 C 442.67417 21.189945 442.98633 21.406096 443.66211 21.673828 C 443.93677 21.782641 444.07635 21.861747 444.0918 21.914062 L 444.0918 21.916016 L 444.0918 21.917969 L 444.0918 21.919922 C 444.09182 21.920874 444.09187 21.924847 444.0918 21.925781 C 444.09164 21.926697 444.0901 21.930742 444.08984 21.931641 L 444.08984 21.933594 C 444.08941 21.934457 444.08646 21.938607 444.08594 21.939453 L 444.08594 21.941406 L 444.08398 21.941406 L 444.08203 21.943359 C 444.04123 21.984299 443.76981 22.029809 443.47852 22.042969 C 442.48554 22.087899 440.49275 21.54596 439.03711 20.835938 C 438.14466 20.400631 437.93364 20.245283 438 20.072266 C 438.023 20.012326 438.03937 19.978503 438.11328 19.976562 z M 408.10547 20.771484 C 408.3256 20.767184 408.34414 20.883571 408.10547 21.103516 C 407.34822 21.801331 405.02883 22.779126 403.48438 23.050781 C 402.68477 23.191425 402.16797 23.180041 402.16797 23.021484 L 402.16797 23.019531 L 402.16797 23.017578 L 402.16992 23.015625 L 402.16992 23.013672 C 402.19887 22.973174 402.44022 22.832386 402.73047 22.6875 C 403.16705 22.469544 403.43131 22.266696 403.91016 21.777344 C 404.69109 20.979252 404.75876 20.940584 405.23438 21.054688 C 405.76031 21.180858 406.95814 21.107036 407.50391 20.914062 C 407.76862 20.820463 407.9734 20.77408 408.10547 20.771484 z M 437.02539 21.162109 C 437.02979 21.161566 437.03469 21.161979 437.03906 21.162109 C 437.16188 21.165209 437.30276 21.370958 437.75 22.140625 C 438.5178 23.462022 439.11086 25.238442 439.18555 26.443359 C 439.2125 26.87814 439.20558 27.0973 439.16602 27.144531 L 439.16406 27.146484 C 439.16331 27.147114 439.15898 27.149868 439.1582 27.150391 L 439.15625 27.150391 L 439.1543 27.152344 L 439.15234 27.152344 C 439.15109 27.152305 439.14887 27.152292 439.14844 27.152344 C 439.06434 27.152344 439.03325 27.103129 438.66797 26.392578 C 438.54488 26.153093 438.27057 25.796084 438.05469 25.59375 C 436.97659 24.583303 437.07563 24.715878 437.14648 24.373047 C 437.18148 24.203629 437.20868 23.6727 437.20508 23.193359 C 437.20008 22.499982 437.16594 22.230405 437.04102 21.871094 C 436.85705 21.341681 436.84821 21.226863 436.98633 21.173828 C 436.99945 21.168728 437.0122 21.163738 437.02539 21.162109 z M 438.08008 21.269531 C 438.09776 21.268666 438.11598 21.269531 438.13672 21.269531 C 438.29827 21.269531 441.0903 22.598273 441.62891 22.931641 L 441.90625 23.103516 L 442.41211 22.900391 C 442.81184 22.739442 442.95914 22.711425 443.11328 22.765625 C 443.4039 22.867835 443.47266 23.146258 443.32422 23.617188 C 443.15036 24.168692 443.16666 24.40589 443.39062 24.615234 C 443.49415 24.712064 443.75564 25.05621 443.9707 25.378906 C 444.54556 26.241423 444.66242 26.934447 444.27344 27.179688 C 444.18424 27.235948 444.04471 27.298699 443.96484 27.318359 C 443.602 27.407789 442.68711 27.01611 441.9707 26.464844 C 441.49546 26.099157 441.42755 26.084554 441.03906 26.253906 C 440.89055 26.318656 440.64221 26.396874 440.48633 26.427734 C 440.24318 26.475894 440.17954 26.458836 440.0332 26.3125 C 439.82624 26.105533 439.81892 25.908652 440.00781 25.492188 C 440.08681 25.318055 440.15234 25.112546 440.15234 25.035156 C 440.15234 24.957776 439.93608 24.559921 439.67188 24.152344 C 437.93322 21.470235 437.81481 21.282504 438.08008 21.269531 z M 409.28711 21.875 C 409.29173 21.874656 409.29629 21.874731 409.30078 21.875 C 409.32728 21.8765 409.3526 21.887766 409.375 21.910156 C 409.4412 21.976216 409.43738 22.076688 409.36328 22.341797 C 409.11084 23.243346 409.07495 24.001525 409.24805 24.71875 C 409.30595 24.958424 409.35401 25.21623 409.35547 25.291016 C 409.35646 25.365786 409.10191 25.69291 408.78906 26.017578 C 408.11841 26.713547 408.00083 26.882477 407.73047 27.533203 C 407.6254 27.78598 407.5121 27.996262 407.47266 28.021484 L 407.4707 28.023438 L 407.46875 28.023438 L 407.4668 28.023438 L 407.46484 28.023438 C 407.46413 28.023274 407.45969 28.021728 407.45898 28.021484 L 407.45703 28.021484 L 407.45508 28.019531 C 407.36984 27.961075 407.31028 27.328298 407.35742 26.923828 C 407.50648 25.643617 407.97742 24.09902 408.58984 22.878906 C 408.93506 22.191133 409.14379 21.885652 409.28711 21.875 z M 408.24805 22.001953 C 408.33255 22.000053 408.34049 22.06425 408.30859 22.191406 C 408.27009 22.344915 406.93481 24.749816 406.38281 25.660156 C 406.28561 25.82049 406.29177 25.872287 406.44727 26.222656 C 406.69605 26.783236 406.71734 27.032559 406.5332 27.216797 C 406.3432 27.406803 406.05421 27.41188 405.63086 27.230469 C 405.45147 27.153589 405.24348 27.101306 405.16992 27.115234 C 405.09642 27.129164 405.01756 27.143464 404.99414 27.146484 C 404.97084 27.149584 404.74555 27.317751 404.49414 27.519531 C 404.24273 27.721307 403.85339 27.977536 403.62891 28.089844 C 403.09972 28.354582 402.77528 28.408974 402.47656 28.279297 C 401.8458 28.005462 402.00472 27.070841 402.88477 25.888672 C 403.08316 25.622176 403.24779 25.373393 403.25781 25.326172 L 403.25781 25.324219 C 403.25781 25.288949 403.17614 25.060216 403.07617 24.814453 C 402.97637 24.56869 402.89453 24.3061 402.89453 24.230469 C 402.89453 23.800079 403.26732 23.654705 403.79492 23.880859 C 404.22416 24.064849 404.49471 24.06923 404.71875 23.894531 C 404.9436 23.719226 407.16008 22.471897 407.72461 22.203125 C 408.00245 22.070846 408.16353 22.00371 408.24805 22.001953 z M 447.26367 22.441406 C 447.67824 22.447606 447.72046 22.599642 447.59961 22.951172 C 447.45624 23.368228 447.07443 23.698289 446.52344 23.878906 C 446.17848 23.991985 446.08053 24.142271 445.90234 24.84375 C 445.74761 25.452837 445.45777 26.017285 445.23828 26.134766 C 445.07548 26.221926 445.07594 26.221084 444.98047 26.152344 C 444.86189 26.066924 444.74353 25.745564 444.68945 25.363281 C 444.61845 24.862277 444.39796 23.929564 444.22266 23.384766 C 444.04325 22.82721 444.04458 22.834303 444.19336 22.685547 C 444.29296 22.586017 444.41347 22.574652 444.9375 22.613281 C 445.29954 22.639971 445.77808 22.623942 446.07227 22.576172 C 446.63353 22.485052 447.01493 22.437618 447.26367 22.441406 z M 433.1875 23.632812 C 433.18916 23.632487 433.19153 23.633007 433.19336 23.632812 L 433.19531 23.632812 L 433.19727 23.632812 C 433.19855 23.632851 433.19972 23.632838 433.20117 23.632812 C 433.42958 23.629004 435.06425 24.349491 435.14062 24.492188 L 435.14062 24.494141 L 435.14062 24.496094 L 435.14062 24.498047 L 435.14062 24.5 C 435.14062 24.628096 434.93845 24.781525 434.52344 24.96875 C 434.32374 25.05886 433.97438 25.275051 433.74805 25.451172 C 433.52176 25.627294 433.2652 25.771484 433.17578 25.771484 L 433.01172 25.771484 L 433.0625 24.738281 C 433.08866 24.187677 433.14109 23.701542 433.17773 23.638672 L 433.17969 23.636719 L 433.18164 23.636719 L 433.18359 23.634766 C 433.18489 23.634309 433.18584 23.633138 433.1875 23.632812 z M 398.95898 23.679688 C 399.03548 23.678923 399.13681 23.691431 399.28906 23.712891 C 399.84289 23.791081 401.22087 23.79421 401.66016 23.71875 C 401.90237 23.67714 402.02632 23.689155 402.13086 23.765625 C 402.2712 23.868244 402.2709 23.875464 402.11523 24.511719 C 401.95213 25.17832 401.85556 25.691429 401.74023 26.498047 C 401.70323 26.757693 401.6384 27.060078 401.5957 27.169922 C 401.48948 27.443579 401.28764 27.425018 401.01562 27.115234 C 400.71699 26.775095 400.60302 26.54344 400.42969 25.917969 C 400.34979 25.629254 400.24837 25.350993 400.20508 25.298828 C 400.16188 25.246668 399.96273 25.165406 399.76172 25.117188 C 399.48494 25.050787 399.30224 24.938464 399.00781 24.65625 C 398.53846 24.206382 398.46827 24.023929 398.68555 23.806641 C 398.77515 23.716981 398.83161 23.680763 398.95898 23.679688 z M 413.30664 24.050781 C 413.31019 24.050409 413.31363 24.050686 413.31641 24.050781 C 413.31703 24.050806 413.31914 24.050811 413.32031 24.050781 L 413.32227 24.050781 L 413.32422 24.050781 L 413.32617 24.052734 L 413.32812 24.054688 L 413.33008 24.056641 L 413.33203 24.058594 C 413.39183 24.14878 413.51268 25.244916 413.52344 25.800781 C 413.52812 26.071986 413.50341 26.288208 413.46484 26.326172 L 413.46289 26.328125 L 413.46094 26.328125 L 413.45898 26.330078 L 413.45703 26.330078 L 413.45508 26.330078 C 413.40593 26.337519 413.21554 26.245664 413.02344 26.121094 C 412.82514 25.992493 412.36928 25.740052 412.00977 25.558594 C 411.64169 25.372821 411.37889 25.194612 411.35547 25.123047 C 411.35522 25.121947 411.3556 25.120185 411.35547 25.119141 L 411.35547 25.117188 L 411.35547 25.115234 L 411.35742 25.113281 C 411.35784 25.112258 411.36072 25.108539 411.36133 25.107422 C 411.46287 24.95503 413.08997 24.073475 413.30664 24.050781 z M 436.49805 25.626953 C 437.11502 25.626953 437.45749 25.96794 437.48633 26.611328 C 437.49973 26.902221 437.52674 26.948532 437.75391 27.0625 C 438.48301 27.42831 438.52719 28.421785 437.83203 28.8125 C 437.56538 28.962364 437.55148 28.988112 437.54883 29.332031 C 437.54183 30.155187 436.864 30.544116 436.20898 30.099609 C 435.97485 29.940727 435.93941 29.933538 435.85352 30.037109 C 435.80112 30.100329 435.65392 30.196271 435.52539 30.25 C 435.20897 30.382266 435.00336 30.373406 434.70312 30.212891 C 434.37403 30.036929 434.17193 29.68711 434.17773 29.302734 C 434.18173 29.026329 434.15966 28.984887 433.91992 28.855469 C 433.30063 28.521042 433.13816 27.758407 433.58594 27.291016 C 433.70039 27.171577 433.8701 27.055013 433.96484 27.03125 C 434.109 26.99508 434.13256 26.952074 434.10547 26.767578 C 434.05897 26.45124 434.18484 26.026079 434.37891 25.84375 C 434.5953 25.640465 435.12138 25.631047 435.45117 25.824219 C 435.68401 25.960599 435.68622 25.9614 435.93164 25.794922 C 436.09682 25.68288 436.28405 25.626953 436.49805 25.626953 z M 429.34961 25.847656 C 429.35289 25.847255 429.35986 25.847791 429.36328 25.847656 C 429.45694 25.846595 429.60236 25.94177 429.74805 26.123047 C 430.07559 26.53064 431.01933 27.141639 431.72656 27.402344 L 432.3457 27.628906 L 432.50781 28.099609 C 432.59711 28.357911 432.66953 28.607817 432.66992 28.65625 C 432.67292 28.89627 433.00025 29.563126 433.32227 29.984375 C 433.52075 30.244022 433.68404 30.481767 433.68555 30.511719 C 433.68577 30.516761 433.68472 30.523244 433.68359 30.527344 C 433.68323 30.528311 433.68209 30.532294 433.68164 30.533203 L 433.67969 30.535156 C 433.67908 30.535952 433.67647 30.540276 433.67578 30.541016 C 433.67502 30.541699 433.67076 30.544294 433.66992 30.544922 C 433.56357 30.611326 432.94497 30.307291 432.45312 29.933594 C 431.19115 28.974736 429.25781 26.590485 429.25781 25.994141 C 429.25781 25.90175 429.29227 25.854686 429.34961 25.847656 z M 417.27148 26.210938 C 417.32158 26.210535 417.34766 26.246503 417.34766 26.322266 C 417.34766 26.468775 416.93807 27.285794 416.59961 27.814453 C 415.95974 28.813939 414.60382 30.293681 413.875 30.789062 C 413.70316 30.905846 413.46738 31.052381 413.34961 31.113281 C 413.03402 31.276477 413.06429 31.110042 413.45898 30.521484 C 413.799 30.014506 414.01372 29.452854 414.15625 28.699219 C 414.20315 28.451371 414.2943 28.200524 414.35938 28.142578 C 414.42437 28.084638 414.6829 27.954785 414.93359 27.853516 C 415.55944 27.600706 416.30099 27.093753 416.75 26.611328 C 416.99461 26.348511 417.17603 26.211848 417.27148 26.210938 z M 411.62305 26.232422 C 411.74602 26.229822 411.87077 26.253948 411.99219 26.304688 C 412.36006 26.458399 412.51916 26.735128 412.50781 27.199219 C 412.49981 27.558165 412.50956 27.583554 412.69922 27.625 C 413.06391 27.70509 413.35156 28.132774 413.35156 28.59375 C 413.35156 28.915271 413.13289 29.238136 412.76562 29.455078 C 412.57686 29.566589 412.55309 29.619621 412.55078 29.945312 C 412.54778 30.366221 412.45964 30.556954 412.15625 30.794922 C 411.86079 31.026838 411.34597 31.028445 411.03516 30.798828 L 410.81055 30.632812 L 410.65039 30.78125 C 410.56289 30.86278 410.3763 30.962515 410.23438 31.001953 C 409.90807 31.092593 409.9465 31.096266 409.6543 30.947266 C 409.27541 30.754065 409.11082 30.484692 409.11719 30.0625 C 409.12219 29.72424 409.11108 29.69911 408.91602 29.65625 C 408.68221 29.60489 408.36485 29.265076 408.29688 28.994141 C 408.18201 28.536285 408.41767 28.015625 408.83398 27.810547 C 409.04562 27.706287 409.06467 27.66856 409.06641 27.333984 C 409.07041 26.460733 409.89776 26.018409 410.62891 26.498047 C 410.83597 26.633859 410.83726 26.634025 411.04297 26.460938 C 411.21684 26.314639 411.4182 26.2366 411.62305 26.232422 z M 427.80859 26.322266 C 427.81149 26.321997 427.81348 26.322196 427.81641 26.322266 C 427.85291 26.32307 427.89116 26.350107 427.93164 26.404297 C 428.06244 26.579321 428.04985 28.300885 427.91016 29.242188 C 427.77152 30.175916 427.36567 31.540624 427.05469 32.123047 C 426.90685 32.399884 426.81094 32.552135 426.75195 32.564453 C 426.74982 32.564717 426.74423 32.564575 426.74219 32.564453 C 426.74169 32.564375 426.73755 32.562937 426.73633 32.5625 C 426.73538 32.562148 426.7314 32.560996 426.73047 32.560547 L 426.72852 32.558594 C 426.67114 32.516722 426.6606 32.269275 426.66602 31.787109 C 426.67302 31.039127 426.65361 30.904023 426.44141 30.283203 C 426.313 29.908423 426.20703 29.563416 426.20703 29.515625 L 426.20703 29.513672 C 426.21248 29.459889 426.38902 29.194035 426.60352 28.917969 C 427.05593 28.335721 427.46665 27.461031 427.58203 26.830078 C 427.6419 26.502058 427.71883 26.33058 427.80859 26.322266 z M 423.31641 26.501953 L 423.31836 26.501953 L 423.32031 26.501953 L 423.32227 26.501953 L 423.32422 26.501953 C 423.32523 26.502165 423.32895 26.503514 423.33008 26.503906 C 423.48726 26.575714 424.56776 28.047896 424.59766 28.238281 C 424.60353 28.27558 424.60177 28.307225 424.58789 28.328125 C 424.54523 28.382466 424.38335 28.386446 423.87109 28.386719 C 423.45888 28.387021 422.90465 28.408624 422.64062 28.433594 C 422.11025 28.483684 422.00485 28.423155 422.14844 28.152344 C 422.378 27.719445 423.20482 26.554176 423.31641 26.501953 z M 418.78125 26.570312 C 418.78727 26.569691 418.79443 26.570312 418.80078 26.570312 C 418.89468 26.570312 418.95624 26.637892 418.98633 26.771484 C 419.11819 27.357062 419.19791 27.588104 419.39844 27.986328 C 419.65494 28.495739 419.9492 28.937856 420.25391 29.271484 C 420.5145 29.556786 420.52983 29.822972 420.32617 30.472656 C 420.16098 30.999547 420.1243 31.569125 420.20898 32.253906 C 420.27838 32.814867 420.21259 32.875422 419.9375 32.507812 C 419.32795 31.69481 418.77407 29.76083 418.64453 27.988281 C 418.56616 26.915723 418.59448 26.589591 418.78125 26.570312 z M 428.94141 26.875 C 428.9457 26.874313 428.95256 26.874987 428.95703 26.875 C 428.96719 26.875491 428.9787 26.877173 428.99023 26.880859 C 429.12852 26.926399 430.96915 29.955764 431.05273 30.275391 C 431.09193 30.425171 431.4185 30.566406 431.72656 30.566406 C 432.55047 30.566406 432.76049 31.228439 432.08398 31.697266 C 431.64609 32.000715 431.58886 32.152427 431.70117 32.732422 C 431.88993 33.707271 431.79325 34.71644 431.47656 35.066406 C 431.03792 35.551097 430.24952 34.976194 429.68555 33.761719 C 429.52765 33.421667 429.37221 33.095072 429.33984 33.035156 C 429.24864 32.866296 428.95997 32.747613 428.64062 32.746094 C 428.48086 32.745291 428.24505 32.678757 428.11523 32.599609 C 427.92797 32.485428 427.87891 32.407313 427.87891 32.222656 C 427.87891 32.033386 427.95334 31.921829 428.28125 31.619141 L 428.68359 31.246094 L 428.71875 29.191406 C 428.74936 27.376759 428.78946 26.899326 428.94141 26.875 z M 440.09375 27.175781 C 440.236 27.171881 440.45329 27.211812 440.78125 27.285156 C 441.17477 27.373176 441.75659 27.478748 442.07617 27.517578 C 442.39573 27.556418 442.82932 27.623007 443.03906 27.666016 C 443.37291 27.734476 443.41992 27.765445 443.41992 27.919922 C 443.41992 28.265456 442.86617 28.645339 441.95312 28.923828 L 441.32422 29.115234 L 441.21289 29.5 C 441.07875 29.961471 440.74271 30.445 440.42188 30.640625 C 439.86381 30.980891 439.68359 30.650896 439.8457 29.589844 C 439.9081 29.18152 439.92533 28.752236 439.89453 28.458984 C 439.86703 28.199342 439.84164 27.827854 439.83594 27.632812 C 439.82794 27.313202 439.85669 27.182088 440.09375 27.175781 z M 417.91992 27.242188 C 417.92526 27.241192 417.93052 27.242053 417.93555 27.242188 C 418.07918 27.246088 418.09962 27.724564 418.11914 29.455078 L 418.14258 31.546875 L 418.34375 31.689453 C 418.73154 31.964919 419.01678 32.293815 419.01562 32.464844 C 419.01263 32.784171 418.84958 32.897863 418.20117 33.03125 C 417.74417 33.12525 417.56338 33.289748 417.41406 33.742188 C 417.18466 34.437303 416.60388 35.318024 416.19141 35.595703 C 415.81774 35.847271 415.43318 35.686674 415.25 35.203125 C 415.11355 34.842924 415.0812 34.163559 415.16602 33.453125 C 415.21272 33.063636 415.23324 32.687275 415.21094 32.617188 C 415.18864 32.547097 414.98943 32.349477 414.76953 32.177734 C 414.32308 31.829051 414.22243 31.59962 414.39648 31.333984 C 414.48128 31.20464 414.62043 31.136172 414.92969 31.076172 C 415.51702 30.96223 415.66617 30.888384 415.76367 30.658203 C 415.91926 30.290876 417.63304 27.467921 417.7832 27.332031 C 417.83772 27.282716 417.88257 27.249154 417.91992 27.242188 z M 406.49609 28.029297 C 406.61506 28.031897 406.69178 28.07281 406.73438 28.152344 C 406.77337 28.225254 406.78657 28.604343 406.76367 29.021484 C 406.73397 29.562201 406.75802 29.96843 406.85352 30.527344 C 406.95588 31.124291 406.96691 31.330835 406.90234 31.472656 C 406.78721 31.725335 406.48546 31.712125 406.10938 31.435547 C 405.81678 31.220367 405.43555 30.601367 405.43555 30.341797 C 405.43555 30.152564 405.28492 30.070068 404.73828 29.955078 C 404.09106 29.818933 403.89915 29.743247 403.50586 29.472656 C 403.16684 29.239402 403.0852 28.995362 403.28906 28.826172 C 403.34646 28.778542 403.66597 28.692277 403.99805 28.634766 C 404.67579 28.517386 405.53082 28.305806 406.00781 28.136719 C 406.21599 28.062929 406.37708 28.026576 406.49609 28.029297 z M 439.03516 28.515625 L 439.03711 28.515625 L 439.03906 28.515625 L 439.04102 28.515625 C 439.06362 28.514525 439.08347 28.536356 439.10938 28.572266 C 439.38659 28.951382 439.10992 30.108506 438.39453 31.556641 C 438.21856 31.912761 438.13758 31.93295 437.10156 31.863281 C 435.92213 31.783971 434.93022 31.448463 434.92383 31.126953 L 434.92383 31.125 L 434.92578 31.123047 L 434.92773 31.121094 L 434.92969 31.119141 C 434.98038 31.091987 435.32596 31.074603 435.74023 31.078125 C 436.62247 31.085625 436.98359 31.000487 437.48438 30.669922 C 438.10784 30.258383 438.42987 29.845464 438.77539 29.011719 C 438.92203 28.657854 438.98293 28.525642 439.03516 28.515625 z M 423.31641 29.060547 C 423.54911 29.054547 423.79437 29.153757 424.00586 29.365234 C 424.1385 29.4979 424.24609 29.655584 424.24609 29.714844 C 424.24609 29.795924 424.36245 29.83097 424.7168 29.853516 C 425.11576 29.878916 425.22113 29.914528 425.4082 30.09375 C 425.52956 30.210069 425.6654 30.424858 425.70898 30.570312 C 425.78448 30.822641 425.72162 31.053659 425.42773 31.591797 L 425.42578 31.59375 C 425.42544 31.594619 425.42408 31.598665 425.42383 31.599609 L 425.42383 31.601562 C 425.42173 31.63185 425.45527 31.689649 425.50391 31.738281 C 425.7953 32.029671 425.84904 32.450506 425.65039 32.869141 C 425.48937 33.208466 425.16505 33.398165 424.74414 33.398438 C 424.45635 33.39864 424.4015 33.422999 424.36328 33.5625 C 424.30998 33.757346 424.13101 33.973302 423.88477 34.144531 C 423.50593 34.407958 422.87801 34.190964 422.64844 33.716797 C 422.54714 33.507542 422.51414 33.491121 422.16992 33.496094 C 421.7436 33.502094 421.48199 33.364243 421.26172 33.013672 C 421.07417 32.715181 421.1084 32.174241 421.33398 31.869141 C 421.40231 31.776833 421.44338 31.693646 421.44141 31.664062 L 421.43945 31.662109 L 421.43945 31.660156 L 421.4375 31.658203 L 421.43555 31.65625 L 421.43359 31.65625 L 421.43164 31.654297 L 421.42969 31.654297 C 421.32565 31.654297 421.05078 31.10215 421.05078 30.892578 C 421.05078 30.597227 421.33279 30.150049 421.59961 30.023438 C 421.72894 29.962077 421.96678 29.912109 422.12695 29.912109 C 422.39933 29.912109 422.42735 29.891161 422.57227 29.591797 C 422.73728 29.2509 423.01723 29.068425 423.31641 29.060547 z M 407.60742 29.330078 C 407.61001 29.32979 407.61257 29.330078 407.61523 29.330078 L 407.61719 29.332031 L 407.61914 29.332031 L 407.62109 29.333984 C 407.6656 29.367788 407.82339 29.649546 407.98438 29.988281 C 408.41899 30.902786 409.02113 31.438568 409.9043 31.695312 C 410.24436 31.794162 410.47785 31.805942 411.1543 31.763672 L 411.98633 31.712891 L 411.86719 31.894531 C 411.66397 32.204712 410.7743 32.511747 409.625 32.667969 C 408.74308 32.787846 408.66237 32.775616 408.45898 32.507812 C 408.23192 32.208855 407.71146 31.028858 407.57422 30.501953 C 407.42615 29.933439 407.4444 29.348214 407.60742 29.330078 z M 433.48438 31.263672 C 433.62092 31.267172 433.78355 31.361794 433.97852 31.544922 C 434.22211 31.773719 434.9155 32.111088 435.55664 32.314453 C 435.84494 32.405893 436.17202 32.554723 436.2832 32.644531 C 436.47675 32.800908 436.4805 32.815886 436.375 33.011719 C 436.15277 33.424955 435.35955 33.623249 434.65234 33.441406 C 434.42885 33.383956 434.39091 33.408328 433.83594 33.951172 C 433.51556 34.264545 433.14545 34.577222 433.01562 34.646484 C 432.72523 34.801403 432.31801 34.817399 432.26367 34.675781 C 432.21657 34.553409 432.35699 34.027681 432.66211 33.179688 C 432.78427 32.840153 432.93413 32.317169 432.99609 32.017578 C 433.10217 31.504441 433.25678 31.257974 433.48438 31.263672 z M 413.44531 31.806641 C 413.52061 31.802341 413.57782 31.831305 413.625 31.890625 C 413.6647 31.940555 413.80312 32.324716 413.93164 32.744141 C 414.06019 33.163568 414.27613 33.761337 414.41211 34.072266 C 414.54808 34.383196 414.6784 34.765305 414.70312 34.919922 C 414.73973 35.148947 414.72368 35.213119 414.61328 35.269531 C 414.3226 35.418331 413.7582 35.128587 413.12305 34.505859 C 412.64728 34.039404 412.63256 34.033008 412.35938 34.09375 C 412.20637 34.1278 411.8367 34.156683 411.53711 34.158203 C 411.08108 34.160503 410.95346 34.133034 410.75586 33.992188 C 410.29513 33.663823 410.48237 33.335257 411.31836 33.005859 C 411.80421 32.814422 412.39107 32.478489 412.86914 32.119141 C 413.14224 31.913852 413.31976 31.813955 413.44531 31.806641 z M 427.40625 33.054688 C 427.41575 33.054004 427.42594 33.053998 427.43555 33.054688 C 427.55082 33.062987 427.68388 33.175305 428.05859 33.53125 C 428.36113 33.818628 428.80762 34.202372 429.05273 34.382812 C 429.65208 34.824025 429.95416 35.093171 430.05273 35.277344 C 430.12493 35.412074 430.10594 35.448432 429.89648 35.576172 C 429.58265 35.767517 429.11522 35.764762 428.30859 35.564453 L 427.66992 35.404297 L 427.3457 35.703125 C 427.16808 35.866859 426.91953 36.053701 426.79297 36.119141 C 426.66643 36.184581 426.40549 36.256484 426.21289 36.279297 C 425.91713 36.314327 425.83854 36.297511 425.70508 36.164062 C 425.49893 35.957901 425.54326 35.817618 426.02344 35.177734 C 426.57392 34.444157 426.65537 34.308066 426.9043 33.695312 C 427.07811 33.267477 427.17111 33.12829 427.31836 33.076172 C 427.35068 33.064727 427.37775 33.056736 427.40625 33.054688 z M 419.54297 33.28125 C 419.57187 33.280849 419.60025 33.286605 419.62695 33.296875 C 419.68815 33.320335 419.86955 33.605735 420.03125 33.931641 C 420.3178 34.509116 420.46898 34.72883 421.10547 35.503906 C 421.438 35.908811 421.4979 36.187629 421.28711 36.347656 C 420.98962 36.573467 420.14781 36.346362 419.78125 35.941406 C 419.51496 35.647149 419.42508 35.638586 418.78516 35.841797 C 418.07193 36.068288 417.37601 36.097064 417.09375 35.912109 C 416.99308 35.846149 416.9103 35.752137 416.91016 35.703125 L 416.91016 35.701172 L 416.91211 35.699219 L 416.91211 35.697266 C 416.92617 35.637656 417.15725 35.392157 417.4375 35.140625 C 417.7268 34.880978 418.24733 34.384369 418.5957 34.037109 C 419.17313 33.461531 419.3869 33.283604 419.54297 33.28125 z M 425.93555 33.765625 C 426.01985 33.766427 425.99998 33.887957 425.89648 34.134766 C 425.74015 34.507186 424.82964 35.436166 424.20898 35.855469 C 423.90322 36.062055 423.59585 36.230469 423.52734 36.230469 C 423.45884 36.230469 423.20803 36.113512 422.9707 35.970703 C 421.90001 35.326436 420.97852 34.423871 420.97852 34.019531 C 420.97852 33.981599 420.98638 33.950734 421 33.933594 C 421.05175 33.879005 421.20429 33.955934 421.5625 34.199219 C 422.30493 34.703389 422.59368 34.798023 423.41211 34.806641 C 424.06722 34.813541 424.17737 34.79476 424.54688 34.613281 C 424.77218 34.502645 425.18106 34.247395 425.45508 34.044922 C 425.70517 33.860133 425.86129 33.764984 425.93555 33.765625 z " /><path
       style="baseline-shift:baseline;display:inline;overflow:visible;vector-effect:none;fill:#782fa9;fill-opacity:1;enable-background:accumulate;stop-color:#000000"
       d="M 440.33268,12.691196 V 14.02518 H 734.66666 V 12.691196 Z"
       id="path19" /><path
       style="baseline-shift:baseline;display:inline;overflow:visible;vector-effect:none;fill:#782fa9;fill-opacity:1;enable-background:accumulate;stop-color:#000000"
       d="M 110.66666,12.691196 V 14.02518 H 405.00065 V 12.691196 Z"
       id="path20" /><path
       id="path27"
       d="m 0,0 c 1.91,-5.978 7.515,-10.322 14.119,-10.322 6.604,0 12.208,4.344 14.119,10.322 H 27.174 C 25.301,-5.416 20.164,-9.322 14.119,-9.322 8.074,-9.322 2.936,-5.416 1.064,0 Z"
       style="fill:#782fa9;fill-opacity:1;fill-rule:nonzero;stroke:none"
       transform="matrix(1.3333333,0,0,-1.3333333,403.84145,12.691872)"
       clip-path="url(#clipPath28)" /></g></svg>
