<?xml version="1.0" encoding="UTF-8" standalone="no"?>
<!-- Created with Inkscape (http://www.inkscape.org/) -->

<svg
   version="1.1"
   id="svg1"
   width="845.33331"
   height="60"
   viewBox="0 0 845.33331 60"
   sodipodi:docname="footerscroll.svg"
   inkscape:version="1.4 (86a8ad7, 2024-10-11)"
   inkscape:export-filename="footerscroll.pdf"
   inkscape:export-xdpi="600"
   inkscape:export-ydpi="600"
   xml:space="preserve"
   xmlns:inkscape="http://www.inkscape.org/namespaces/inkscape"
   xmlns:sodipodi="http://sodipodi.sourceforge.net/DTD/sodipodi-0.dtd"
   xmlns="http://www.w3.org/2000/svg"
   xmlns:svg="http://www.w3.org/2000/svg"><defs
     id="defs1"><clipPath
       clipPathUnits="userSpaceOnUse"
       id="clipPath28"><path
         d="M 0,0 H 612 V 792 H 0 Z"
         transform="translate(-291.80121,-47.486799)"
         id="path28" /></clipPath><clipPath
       clipPathUnits="userSpaceOnUse"
       id="clipPath26"><path
         d="M 0,0 H 612 V 792 H 0 Z"
         transform="translate(-322.72751,-36.398101)"
         id="path26" /></clipPath></defs><sodipodi:namedview
     id="namedview1"
     pagecolor="#ffffff"
     bordercolor="#000000"
     borderopacity="0.25"
     inkscape:showpageshadow="2"
     inkscape:pageopacity="0.0"
     inkscape:pagecheckerboard="0"
     inkscape:deskcolor="#d1d1d1"
     inkscape:zoom="4.0335201"
     inkscape:cx="421.34413"
     inkscape:cy="10.784625"
     inkscape:window-width="1920"
     inkscape:window-height="991"
     inkscape:window-x="-9"
     inkscape:window-y="-9"
     inkscape:window-maximized="1"
     inkscape:current-layer="g1"><inkscape:page
       x="0"
       y="0"
       inkscape:label="1"
       id="page1"
       width="845.33331"
       height="60"
       margin="0"
       bleed="0" /></sodipodi:namedview><g
     id="g1"
     inkscape:groupmode="layer"
     inkscape:label="1"><path
       style="baseline-shift:baseline;display:inline;overflow:visible;vector-effect:none;fill:#2e55a6;fill-opacity:1;enable-background:accumulate;stop-color:#000000"
       d="M 440.33268,12.691196 V 14.02518 H 734.66666 V 12.691196 Z"
       id="path19" /><path
       style="baseline-shift:baseline;display:inline;overflow:visible;vector-effect:none;fill:#2e55a6;fill-opacity:1;enable-background:accumulate;stop-color:#000000"
       d="M 110.66666,12.691196 V 14.02518 H 405.00065 V 12.691196 Z"
       id="path20" /><path
       id="path27"
       d="m 0,0 c 1.91,-5.978 7.515,-10.322 14.119,-10.322 6.604,0 12.208,4.344 14.119,10.322 H 27.174 C 25.301,-5.416 20.164,-9.322 14.119,-9.322 8.074,-9.322 2.936,-5.416 1.064,0 Z"
       style="fill:#2e55a6;fill-opacity:1;fill-rule:nonzero;stroke:none"
       transform="matrix(1.3333333,0,0,-1.3333333,403.84145,12.691872)"
       clip-path="url(#clipPath28)" /><path
       id="path1"
       style="fill:#2e55a6;fill-opacity:1;stroke-width:1.12053"
       d="M 390.05078 12.691406 C 390.40045 14.495764 390.87406 16.242471 391.44141 17.796875 C 395.3376 28.471634 404.40774 36.440873 415.44531 38.886719 C 424.75596 40.949911 434.34928 38.972825 442.11523 33.392578 C 444.86164 31.419145 447.48768 28.802622 449.54297 25.992188 C 452.3699 22.126554 454.39565 17.419847 455.29688 12.691406 L 454.66992 12.691406 C 453.638 17.999878 451.33712 22.911813 447.86719 27.181641 C 446.97282 28.282165 445.20697 30.08228 443.98828 31.134766 C 438.76197 35.648352 432.53115 38.292377 425.56641 38.953125 C 424.01475 39.100329 419.9736 39.025373 418.50195 38.822266 C 414.81992 38.314093 411.60727 37.340809 408.37305 35.751953 C 406.45979 34.812034 404.98719 33.925697 403.42578 32.775391 C 396.73496 27.846204 392.26959 20.767197 390.68945 12.691406 L 390.05078 12.691406 z M 391.57812 12.691406 C 393.53472 22.397072 399.79301 30.555285 408.75 34.947266 C 412.05924 36.569929 415.31652 37.528864 419.04883 37.978516 C 420.91526 38.203367 424.75851 38.195285 426.48633 37.962891 C 430.9178 37.366881 434.89006 36.046352 438.44531 33.988281 C 445.5882 29.85337 450.88682 23.113874 453.11719 15.328125 C 453.3668 14.456792 453.58007 13.577136 453.75391 12.691406 L 451.87305 12.691406 C 451.50407 14.471652 450.97582 16.200243 450.29297 17.832031 C 446.05672 27.955237 436.89666 34.879301 426.06641 36.142578 C 424.39864 36.336758 421.01186 36.344477 419.40039 36.158203 C 412.5171 35.362583 406.32121 32.374524 401.55469 27.550781 C 399.75853 25.733077 398.69426 24.416495 397.49219 22.527344 C 395.53931 19.45822 394.25317 16.326103 393.47852 12.691406 L 391.57812 12.691406 z M 394.36133 12.691406 L 394.44141 12.898438 L 394.66211 12.691406 L 394.36133 12.691406 z M 396.71484 12.691406 C 396.81417 13.839296 397.47038 15.382174 398.20508 16.130859 L 398.6543 16.587891 L 399.66211 16.644531 C 400.2165 16.675573 400.74976 16.730878 400.84766 16.767578 C 400.85533 16.770448 400.86234 16.771525 400.86719 16.771484 L 400.86914 16.771484 L 400.87109 16.771484 L 400.87305 16.771484 L 400.87305 16.769531 L 400.875 16.769531 L 400.87695 16.769531 L 400.87695 16.767578 L 400.87891 16.765625 L 400.87891 16.763672 C 400.87901 16.762796 400.88086 16.758791 400.88086 16.757812 C 400.87597 16.704882 400.74717 16.528176 400.54297 16.304688 C 399.90987 15.611716 399.39954 14.836964 399.11328 14.136719 C 398.91608 13.654341 398.81072 13.187317 398.80859 12.691406 L 396.71484 12.691406 z M 400.90039 12.691406 C 401.20014 13.333032 401.91137 15.598512 402.07031 16.4375 C 402.1525 16.871398 402.18527 16.895088 403.06641 17.166016 C 403.45802 17.28642 403.90033 17.446094 404.04883 17.521484 C 404.18804 17.592172 404.31989 17.635794 404.35352 17.623047 L 404.35547 17.623047 L 404.35547 17.621094 L 404.35742 17.621094 L 404.35742 17.619141 C 404.42141 17.554887 403.37443 13.847879 403.00781 12.841797 C 402.98932 12.79106 402.96977 12.740688 402.95117 12.691406 L 400.90039 12.691406 z M 442.39453 12.691406 C 442.32537 12.879891 442.25634 13.072669 442.19727 13.251953 C 441.80011 14.457064 440.98241 17.468968 441.03711 17.523438 L 441.03711 17.525391 L 441.03906 17.525391 L 441.04102 17.525391 C 441.09016 17.531534 441.36021 17.442624 441.66602 17.318359 C 441.99221 17.185789 442.47117 17.026994 442.73047 16.964844 C 443.17251 16.858842 443.20872 16.829282 443.29492 16.472656 C 443.62306 15.11634 444.18471 13.250204 444.41602 12.751953 C 444.42516 12.732256 444.43509 12.712034 444.44531 12.691406 L 442.39453 12.691406 z M 446.54102 12.691406 C 446.50778 13.811066 445.97463 14.935031 444.9043 16.152344 C 444.6734 16.414825 444.53239 16.615505 444.53516 16.666016 L 444.53516 16.667969 L 444.53516 16.669922 L 444.53711 16.669922 L 444.53711 16.671875 L 444.53711 16.673828 L 444.53906 16.673828 L 444.53906 16.675781 L 444.54102 16.675781 L 444.54297 16.677734 L 444.54492 16.677734 C 444.54977 16.677905 444.55855 16.676856 444.56641 16.673828 C 444.66543 16.635598 445.21169 16.576639 445.7793 16.542969 L 446.81055 16.482422 L 447.23438 16.007812 C 447.88187 15.28455 448.52222 13.75996 448.66211 12.691406 L 446.54102 12.691406 z M 450.82617 12.691406 L 450.95898 12.8125 L 450.99609 12.691406 L 450.82617 12.691406 z M 450.53125 14.283203 C 450.48634 14.295586 450.35334 14.474707 450.12109 14.832031 C 449.58173 15.661879 448.8226 16.509744 448.375 16.785156 C 448.15974 16.917584 447.68347 17.007233 446.56641 17.123047 C 443.69092 17.42122 442.59234 17.692764 440.76953 18.560547 C 439.01629 19.395194 437.41183 20.534954 435.95703 21.978516 C 435.20496 22.724765 434.0135 24.132979 434.02148 24.261719 L 434.02148 24.263672 L 434.02344 24.263672 L 434.02344 24.265625 L 434.02344 24.267578 L 434.02539 24.269531 L 434.02734 24.269531 L 434.0293 24.271484 C 434.07871 24.282624 434.35851 24.241603 434.67578 24.175781 C 435.01421 24.105587 435.92368 23.969627 436.69727 23.873047 L 438.10352 23.697266 L 437.48828 23.548828 C 436.19458 23.23634 436.24686 22.854555 437.72266 21.878906 C 439.38636 20.779043 441.4951 20.236106 445.22656 19.945312 C 445.7069 19.907953 446.12006 19.899271 446.18555 19.923828 L 446.1875 19.925781 L 446.18945 19.925781 L 446.19141 19.927734 L 446.19336 19.927734 L 446.19336 19.929688 L 446.19336 19.931641 L 446.19531 19.933594 C 446.19816 19.99029 446.0456 20.318172 445.84375 20.685547 C 445.28627 21.700191 444.32656 22.624804 443.2793 23.15625 L 442.44922 23.578125 L 442.14648 24.53125 C 441.97994 25.056405 441.82845 25.540029 441.81055 25.605469 C 441.8036 25.630939 441.80398 25.649945 441.81055 25.662109 L 441.81055 25.664062 L 441.8125 25.666016 L 441.81445 25.667969 L 441.81641 25.669922 L 441.81641 25.671875 C 441.84237 25.689198 441.91038 25.674419 442.0293 25.628906 C 442.39673 25.48836 442.7128 25.511484 442.7793 25.683594 C 442.94722 26.118416 442.04503 27.375619 440.50977 28.847656 C 439.95906 29.375689 439.53355 29.808419 439.56445 29.808594 C 439.71511 29.808267 441.27922 28.715619 442.03516 28.082031 C 444.89436 25.685561 447.63506 21.753657 449.44141 17.455078 C 449.82778 16.535637 450.41553 14.883362 450.53906 14.369141 C 450.54798 14.332045 450.5505 14.305953 450.54688 14.292969 L 450.54492 14.291016 L 450.54492 14.289062 L 450.54297 14.287109 L 450.54297 14.285156 L 450.54102 14.285156 L 450.53906 14.283203 L 450.53711 14.283203 L 450.53516 14.283203 L 450.5332 14.283203 L 450.53125 14.283203 z M 394.83398 14.380859 L 394.83398 14.382812 L 394.83203 14.382812 C 394.75693 14.458242 395.57684 16.722617 396.14453 18.009766 C 398.30458 22.907263 401.50303 27.021424 404.9043 29.275391 C 405.40588 29.607781 405.8421 29.878975 405.875 29.878906 C 405.90795 29.87884 405.40277 29.363077 404.75195 28.732422 C 402.64121 26.68706 401.99757 25.340263 403.29492 25.683594 C 403.48934 25.735295 403.58379 25.749864 403.61523 25.726562 L 403.61719 25.726562 L 403.61914 25.724609 C 403.61968 25.723922 403.62258 25.719482 403.62305 25.71875 L 403.625 25.716797 L 403.625 25.714844 C 403.62905 25.701864 403.62805 25.681348 403.61914 25.658203 C 403.59289 25.59021 403.43729 25.114666 403.27344 24.601562 L 402.97461 23.667969 L 402.15039 23.25 C 401.13809 22.734364 400.15368 21.801062 399.58008 20.816406 C 399.10967 20.008862 399.09105 19.900097 399.44336 19.966797 C 399.58692 19.993945 400.06814 20.041566 400.51172 20.072266 C 401.84885 20.164562 403.91953 20.477231 404.87695 20.730469 C 406.51984 21.16499 408.76751 22.458683 408.84961 23.017578 C 408.89028 23.294192 408.57031 23.48796 407.82422 23.640625 L 407.21875 23.763672 L 408.35156 23.886719 C 409.46578 24.00654 410.92819 24.228342 411.27734 24.332031 C 411.29743 24.337997 411.31283 24.340561 411.32422 24.337891 C 411.32527 24.337539 411.32911 24.336373 411.33008 24.335938 C 411.33096 24.335418 411.33514 24.332635 411.33594 24.332031 L 411.33789 24.330078 L 411.33984 24.328125 L 411.3418 24.326172 C 411.34272 24.324303 411.34512 24.318602 411.3457 24.316406 C 411.36803 24.190252 410.91368 23.597105 410.12891 22.744141 C 408.51284 20.987593 406.8882 19.753874 404.91992 18.787109 C 402.86706 17.778799 401.89082 17.525623 398.89258 17.228516 C 397.73597 17.113897 397.2505 17.027908 397.03516 16.896484 C 396.59825 16.629853 395.75441 15.70573 395.28711 14.982422 C 395.07712 14.657377 394.88616 14.402672 394.83984 14.382812 L 394.83789 14.380859 L 394.83594 14.380859 L 394.83398 14.380859 z M 442.26758 21.144531 L 441.8125 21.205078 C 441.56195 21.238888 441.06454 21.341634 440.70703 21.433594 L 440.05664 21.601562 L 439.5 23.300781 C 438.88443 25.178027 438.02981 27.037425 437.39258 27.886719 C 437.16443 28.190805 436.69579 28.675167 436.35156 28.962891 C 435.71628 29.493879 434.27309 30.390119 434.05273 30.390625 C 433.73792 30.391286 433.77483 29.070655 434.11523 28.130859 C 434.22766 27.820294 434.30018 27.542966 434.2832 27.494141 L 434.28125 27.492188 L 434.28125 27.490234 L 434.2793 27.490234 L 434.2793 27.488281 L 434.27734 27.488281 L 434.27539 27.486328 L 434.27344 27.486328 C 434.21026 27.467562 433.86973 27.5003 433.48633 27.564453 L 432.74219 27.6875 L 432.58398 28.210938 C 432.40804 28.788679 432.35002 29.338689 432.22656 31.580078 C 432.18057 32.415041 432.08136 33.300817 432.00586 33.548828 C 431.93725 33.773586 431.89062 33.961217 431.89453 33.994141 L 431.89453 33.996094 L 431.89453 33.998047 L 431.89648 33.998047 L 431.89648 34 C 431.9126 33.999969 432.38517 33.806387 432.94531 33.570312 C 434.69969 32.830909 436.25853 31.915353 437.56641 30.857422 C 439.77642 29.06978 441.0666 26.444481 442.20508 21.417969 L 442.26758 21.144531 z M 403.32812 21.261719 C 403.2191 21.261811 403.17202 21.28448 403.17188 21.326172 C 403.17228 21.515656 403.76397 23.773319 404.03516 24.619141 C 405.41655 28.927577 407.27145 31.079344 411.30078 33.044922 C 412.37723 33.57003 413.40386 34.006768 413.52734 33.996094 L 413.5293 33.996094 L 413.53125 33.994141 L 413.5332 33.994141 L 413.53516 33.994141 L 413.53516 33.992188 L 413.53711 33.992188 L 413.53906 33.990234 L 413.53906 33.988281 C 413.53897 33.970452 413.47754 33.684665 413.40234 33.355469 C 413.32713 33.026274 413.23707 32.095812 413.20117 31.287109 C 413.1284 29.644579 413.02215 28.795306 412.80859 28.144531 L 412.66406 27.705078 L 411.95117 27.601562 C 411.55978 27.544234 411.202 27.495658 411.1543 27.496094 L 411.15234 27.496094 L 411.15234 27.498047 L 411.15039 27.498047 L 411.14844 27.498047 L 411.14648 27.5 L 411.14453 27.501953 C 411.14413 27.502767 411.14292 27.506869 411.14258 27.507812 C 411.12647 27.567815 411.19649 27.828786 411.31641 28.136719 C 411.50726 28.626634 411.56817 28.957943 411.57617 29.550781 C 411.58169 29.963313 411.55577 30.334752 411.51758 30.394531 L 411.51562 30.396484 L 411.51367 30.398438 C 411.30959 30.604769 409.43276 29.408268 408.52539 28.492188 C 407.92639 27.887433 407.75504 27.627545 407.17188 26.443359 C 406.4821 25.042728 405.99989 23.807311 405.63867 22.515625 C 405.52402 22.105662 405.39998 21.738099 405.36328 21.699219 L 405.36133 21.697266 C 405.30339 21.655132 404.90002 21.543792 404.44727 21.447266 C 403.86135 21.322382 403.50984 21.261565 403.32812 21.261719 z M 438.39258 24.4375 C 438.34529 24.435264 438.2807 24.440785 438.20898 24.453125 C 438.06558 24.478198 437.20459 24.564927 436.29492 24.648438 C 432.91625 24.958773 431.66163 25.319572 429.9375 26.470703 C 428.32639 27.546376 426.61124 29.411115 425.22656 31.59375 C 424.64216 32.514965 423.40801 34.779401 423.4082 34.929688 C 423.40856 35.09649 423.81097 35.156764 425.32227 35.214844 C 426.20585 35.248744 427.05322 35.226011 427.64453 35.150391 C 429.30929 34.937252 430.89938 34.357382 431.03906 33.914062 C 431.2118 33.365753 430.36031 31.960925 429.13867 30.779297 L 428.59961 30.257812 L 428.23633 30.677734 C 427.61501 31.395059 427.58812 31.496353 427.92383 31.851562 C 428.27563 32.223827 428.71665 32.871917 428.7168 33.019531 C 428.71705 33.132835 428.18303 33.296689 427.51758 33.386719 C 427.04665 33.450433 426.0643 33.358366 425.97266 33.25 C 425.97203 33.249109 425.96926 33.245033 425.96875 33.244141 L 425.9668 33.242188 C 425.96654 33.241291 425.96498 33.237226 425.96484 33.236328 L 425.96484 33.234375 C 425.96474 33.186911 426.13926 32.797353 426.35156 32.369141 C 427.78997 29.467945 430.46243 27.422184 433.45508 26.931641 C 433.92018 26.855293 435.015 26.740481 435.88867 26.675781 C 436.76236 26.611093 437.52699 26.510295 437.58789 26.453125 C 437.68905 26.357901 438.47162 24.597231 438.4707 24.464844 L 438.46875 24.462891 L 438.46875 24.460938 L 438.46875 24.458984 L 438.4668 24.458984 L 438.4668 24.457031 L 438.46484 24.455078 C 438.45435 24.445693 438.42805 24.439177 438.39258 24.4375 z M 407.01758 24.482422 C 406.91947 24.500143 407.05045 24.888874 407.44141 25.734375 C 407.73118 26.361039 407.87025 26.559467 408.03906 26.591797 C 408.15973 26.614935 409.0737 26.698937 410.07031 26.779297 C 412.27883 26.95727 413.37283 27.212817 414.57422 27.830078 C 416.06433 28.595691 417.14242 29.479383 418.05273 30.683594 C 418.55883 31.353071 419.50772 33.009805 419.51172 33.230469 C 419.51697 33.501335 417.37313 33.450875 416.8418 33.167969 C 416.66976 33.076256 416.6691 33.062877 416.83008 32.789062 C 416.92197 32.632734 417.1834 32.289924 417.41211 32.027344 C 417.88731 31.48182 417.88481 31.454715 417.22656 30.708984 L 416.84961 30.283203 L 416.03906 31.125 C 415.5937 31.58832 415.08648 32.188522 414.91016 32.457031 C 414.56283 32.986057 414.32527 33.722685 414.42188 33.972656 C 414.6695 34.61388 417.29774 35.262813 419.62891 35.257812 C 420.58191 35.25585 421.93898 35.119473 422.06055 35.013672 C 422.11803 34.963641 421.13538 33.106124 420.51172 32.085938 C 418.66625 29.067217 416.32785 26.732551 414.14258 25.728516 C 412.90577 25.16026 411.87243 24.969445 407.92188 24.576172 C 407.47828 24.532062 407.078 24.489022 407.0332 24.482422 C 407.02727 24.481509 407.0224 24.48155 407.01758 24.482422 z M 422.87109 27.503906 C 421.8373 27.496968 420.70805 27.771604 419.66211 28.300781 C 418.92926 28.671609 418.92158 28.536801 419.73047 29.544922 C 420.16025 30.08053 420.20872 30.115664 420.43945 30.027344 C 420.94942 29.832182 422.00731 29.655797 422.68164 29.654297 C 423.37742 29.652813 424.54924 29.834078 425.02344 30.015625 C 425.26111 30.106629 425.30367 30.071849 425.85352 29.359375 L 426.43359 28.607422 L 425.95898 28.369141 C 425.21369 27.993466 424.53636 27.745594 423.86719 27.605469 L 423.86523 27.605469 C 423.54864 27.539177 423.21569 27.506219 422.87109 27.503906 z " /></g></svg>
