<?xml version="1.0" encoding="UTF-8" standalone="no"?>
<!-- Created with Inkscape (http://www.inkscape.org/) -->

<svg
   version="1.1"
   id="svg1"
   width="845.33331"
   height="60"
   viewBox="0 0 845.33331 60"
   sodipodi:docname="footerscroll.svg"
   inkscape:version="1.4 (86a8ad7, 2024-10-11)"
   xml:space="preserve"
   inkscape:export-filename="footerscroll.pdf"
   inkscape:export-xdpi="600"
   inkscape:export-ydpi="600"
   xmlns:inkscape="http://www.inkscape.org/namespaces/inkscape"
   xmlns:sodipodi="http://sodipodi.sourceforge.net/DTD/sodipodi-0.dtd"
   xmlns="http://www.w3.org/2000/svg"
   xmlns:svg="http://www.w3.org/2000/svg"><defs
     id="defs1"><clipPath
       clipPathUnits="userSpaceOnUse"
       id="clipPath3"><path
         d="M 0,0 H 634 V 45 H 0 Z"
         id="path3" /></clipPath><clipPath
       clipPathUnits="userSpaceOnUse"
       id="clipPath7"><path
         d="m 11.078,0 h 612 v 45 h -612 z"
         id="path7" /></clipPath></defs><sodipodi:namedview
     id="namedview1"
     pagecolor="#ffffff"
     bordercolor="#000000"
     borderopacity="0.25"
     inkscape:showpageshadow="2"
     inkscape:pageopacity="0.0"
     inkscape:pagecheckerboard="0"
     inkscape:deskcolor="#d1d1d1"
     showgrid="false"
     inkscape:zoom="5.6758676"
     inkscape:cx="331.31499"
     inkscape:cy="-21.934973"
     inkscape:window-width="1920"
     inkscape:window-height="991"
     inkscape:window-x="-9"
     inkscape:window-y="-9"
     inkscape:window-maximized="1"
     inkscape:current-layer="g1"><inkscape:page
       x="0"
       y="0"
       id="page1"
       width="845.33331"
       height="60"
       margin="0"
       bleed="0" /></sodipodi:namedview><g
     id="g1"
     inkscape:groupmode="layer"
     inkscape:label=""><path
       id="path1"
       d="M 330.25,9.52 H 551 v 1 H 330.25 Z"
       style="fill:#285e79;fill-opacity:1;fill-rule:nonzero;stroke:none"
       transform="scale(1.3333333)" /><path
       id="path2"
       d="m 83,9.52 h 220.75 v 1 H 83 Z"
       style="fill:#285e79;fill-opacity:1;fill-rule:nonzero;stroke:none"
       transform="scale(1.3333333)" /><path
       d="m 302.883,9.52 c 1.91,5.976 7.512,10.32 14.117,10.32 6.605,0 12.207,-4.344 14.117,-10.32 h -1.062 c -1.871,5.414 -7.008,9.32 -13.055,9.32 -6.043,0 -11.184,-3.906 -13.055,-9.32 z"
       style="fill:#285e79;fill-opacity:1;fill-rule:nonzero;stroke:none"
       transform="scale(1.3333333)"
       clip-path="url(#clipPath3)"
       id="path4" /><path
       id="path1-2"
       style="fill:#285e79;fill-opacity:1;stroke-width:0.329391"
       d="m 392.78126,12.693333 c 0.0229,0.44505 0.0943,0.83543 0.20117,1.03516 0.22558,0.42324 0.22711,0.63086 0.004,0.63086 -0.55891,0 -1.40507,1.57575 -1.19727,2.23047 0.10744,0.33851 0.73107,0.87186 1.38477,1.18359 1.11309,0.53081 1.15552,0.60262 0.65625,1.1543 -0.63545,0.7021 -0.69583,1.80552 -0.12305,2.27929 0.22646,0.18733 0.85689,0.39177 1.40039,0.45313 0.88404,0.0998 0.97828,0.21753 0.88868,1.11523 -0.11232,1.12551 0.90242,2.3307 1.70312,2.02344 0.26079,-0.10009 0.5421,-0.11411 0.625,-0.0312 0.3333,0.3333 -0.82483,4.219717 -1.61133,5.408204 -0.92913,1.404018 -0.84639,2.396692 0.24805,2.982422 0.52934,0.283298 1.0907,0.124421 2.92383,-0.824219 2.81481,-1.456666 4.07566,-1.529786 4.67969,-0.269531 0.35082,0.731956 0.65405,0.90625 1.58203,0.90625 1.01642,0 1.16673,0.112147 1.3125,0.976562 0.10298,0.610644 0.49656,1.161451 1.04883,1.470703 0.79896,0.447376 0.9426,0.441201 1.50781,-0.07031 0.77036,-0.697205 1.39648,-0.730034 1.39648,-0.07227 0,0.271738 0.29587,0.791956 0.65821,1.154297 0.84102,0.841027 1.47329,0.833339 2.33593,-0.0293 l 0.68946,-0.689453 0.73242,0.689453 c 0.44683,0.419772 1.17319,0.688606 1.86328,0.691406 0.91962,0.0033 1.26529,0.210975 1.8457,1.107422 0.39283,0.60673 0.90122,1.753775 1.12891,2.548828 0.22767,0.795068 0.55494,1.630958 0.72656,1.857422 0.17164,0.22645 0.72158,0.41211 1.2207,0.41211 1.09634,0 1.49238,-0.449745 1.77149,-2.001954 0.11642,-0.64739 0.65363,-1.871581 1.19336,-2.722656 0.86221,-1.359561 1.08472,-1.522038 1.83398,-1.333984 0.60831,0.152675 1.13757,0.0045 1.84375,-0.517578 l 0.99024,-0.732422 0.79101,0.74414 c 0.68894,0.647233 0.90445,0.692334 1.65235,0.351563 0.47281,-0.215417 0.93579,-0.684999 1.02929,-1.042969 0.21115,-0.806869 0.34602,-0.80492 1.57617,0.0098 0.54349,0.359935 1.16149,0.65495 1.375,0.65625 0.76941,0.0043 1.46468,-1.06537 1.36133,-2.09375 -0.10173,-1.011267 -0.0903,-1.018908 1.31446,-0.917969 1.6371,0.117667 2.37109,-0.35011 2.37109,-1.509765 0,-0.726434 0.10231,-0.79308 0.89648,-0.59375 0.49235,0.123575 1.65483,0.583876 2.58399,1.023437 1.87499,0.887009 2.77958,0.995807 3.37109,0.404297 0.47408,-0.474042 0.5266,-2.120051 0.0762,-2.398438 -0.31471,-0.194517 -1.38429,-2.414506 -1.8125,-3.763672 -0.18171,-0.572447 -0.0804,-0.689457 0.60352,-0.689457 1.39578,0 1.95746,-0.87243 1.71875,-2.67187 l -0.20703,-1.56836 1.23633,-0.10352 c 1.00684,-0.0836 1.29805,-0.26937 1.55273,-0.99804 0.24272,-0.69444 0.18739,-1.03315 -0.24219,-1.50781 -0.73129,-0.80807 -0.7028,-0.9474 0.2461,-1.18555 0.96658,-0.2426 1.83593,-1.05679 1.83593,-1.7207 0,-0.26704 -0.37343,-0.85781 -0.83007,-1.31446 l -0.83204,-0.83008 0.67969,-0.86328 c 0.11332,-0.14404 0.20955,-0.2878 0.28711,-0.43164 h -2.49609 l -0.90821,0.9668 c -0.53284,0.56756 -1.45125,1.20667 -2.04101,1.41992 -1.49869,0.54194 -1.0617,0.92774 1.05273,0.92774 0.98571,0 1.79297,0.13853 1.79297,0.30859 0,0.38039 -2.72424,0.81953 -3.625,0.58398 -1.28282,-0.33547 -0.90438,0.2874 0.84766,1.39649 0.92437,0.58516 1.63629,1.12406 1.65039,1.24219 v 0.002 c -4e-5,4.3e-4 -3e-5,0.003 0,0.004 v 0.002 0.002 l -0.002,0.002 v 0.002 l -0.002,0.002 -0.002,0.002 c -0.0921,0.0613 -0.84164,-0.18506 -1.68164,-0.55664 -0.85333,-0.37746 -1.65699,-0.6875 -1.78711,-0.6875 -0.001,0 -0.003,-1e-4 -0.004,0 -9e-4,2.1e-4 -0.005,0.002 -0.006,0.002 l -0.002,0.002 h -0.002 l -0.002,0.002 -0.002,0.002 c -5.9e-4,7.9e-4 -0.003,0.005 -0.004,0.006 -0.0572,0.11678 0.24549,0.90347 0.7207,1.84571 0.51547,1.02194 0.93369,2.24412 0.92969,2.71679 -0.006,0.69351 -0.22307,0.45872 -1.125,-1.21484 -0.61475,-1.14066 -1.31495,-2.3141 -1.55664,-2.60742 -0.38628,-0.46879 -0.45874,-0.38536 -0.60352,0.68555 -0.21221,1.56909 -0.77631,1.5687 -0.98828,-0.002 -0.15464,-1.14581 -0.9742,-2.00873 -1,-1.05273 -0.007,0.24154 -0.35219,0.85374 -0.76758,1.36133 l -0.75586,0.92382 -1.0293,-0.59179 c -0.83308,-0.47813 -1.11081,-0.51027 -1.44921,-0.17188 -0.33839,0.33841 -0.13583,0.66609 1.05664,1.71289 0.8111,0.71203 1.64997,1.3015 1.86328,1.3086 0.21331,0.008 0.69203,-0.37419 1.06445,-0.84766 0.37724,-0.47958 0.88059,-0.78182 1.13672,-0.68359 0.25288,0.097 0.77962,1.26229 1.16992,2.58984 0.3903,1.32754 1.0741,3.303633 1.52149,4.390626 0.99203,2.410317 1.00263,2.593431 0.10546,2.113281 -0.38917,-0.208284 -2.18038,-0.867525 -3.97851,-1.464844 -1.79814,-0.597333 -3.55742,-1.346784 -3.91016,-1.666016 -0.63244,-0.572347 -0.62911,-0.593604 0.26172,-1.523437 0.64345,-0.67159 0.81201,-1.06709 0.58399,-1.375 -0.17608,-0.23778 -0.69162,-0.97165 -1.14454,-1.63086 -0.8835,-1.28594 -1.34893,-1.46893 -1.9375,-0.75976 -0.28428,0.34253 -0.20347,0.66083 0.33985,1.35156 0.77112,0.98033 0.76411,0.99001 -1.11914,2.00976 -1.21298,0.656817 -1.14488,0.924841 0.41211,1.626956 1.62433,0.732469 1.68898,1.103584 0.16406,0.935547 -0.63408,-0.06993 -1.14858,-0.01314 -1.14258,0.126953 0.0128,0.314064 1.23048,1.213587 3.05664,2.257813 2.0824,1.190736 0.42134,1.03721 -1.88086,-0.173828 -0.94431,-0.496746 -1.7315,-0.847482 -1.83593,-0.826172 h -0.002 -0.002 v 0.002 h -0.002 v 0.002 h -0.002 v 0.002 0.002 0.002 c 0,0.08432 0.44512,0.987963 0.99024,2.009766 0.52808,0.989624 0.91757,1.851483 0.88672,1.958984 l -0.002,0.002 v 0.002 l -0.002,0.002 v 0.002 c -0.19315,0.193136 -1.81588,-1.662788 -2.3457,-2.683594 l -0.51172,-0.988281 -0.0254,1.482422 c -0.0138,0.815241 -0.1462,1.778299 -0.29297,2.140625 -0.22119,0.546052 -0.30567,0.433901 -0.4961,-0.658203 -0.3723,-2.135106 -0.53248,-2.41407 -0.87304,-1.529297 -0.33338,0.866164 -1.57097,2.684818 -1.77539,2.623047 h -0.002 l -0.002,-0.002 h -0.002 l -0.002,-0.002 -0.002,-0.002 -0.002,-0.002 -0.002,-0.002 -0.002,-0.002 v -0.002 c -0.0384,-0.103853 0.1909,-0.942859 0.52344,-1.90625 0.93332,-2.704036 0.81664,-4.318592 -0.23633,-3.265625 -0.19532,0.195357 -0.78246,0.307557 -1.30273,0.248047 -0.72454,-0.08279 -1.01453,-0.340431 -1.23828,-1.097657 l -0.29102,-0.988281 h -4.19531 -4.19727 l -0.34179,0.90625 c -0.42414,1.123397 -1.20718,1.447956 -2.4043,0.996094 -0.50627,-0.191151 -0.98601,-0.281612 -1.06641,-0.201172 -0.23619,0.236188 0.70328,3.131556 1.46289,4.507813 0.37991,0.688383 0.55283,1.003319 0.52149,1.08789 -10e-4,0.0022 -0.004,0.0079 -0.006,0.0098 l -0.002,0.002 c -8.6e-4,7.51e-4 -0.005,0.0032 -0.006,0.0039 -0.0525,0.02926 -0.21592,-0.05268 -0.48243,-0.195312 -0.37054,-0.198319 -1.12074,-1.288741 -1.66797,-2.421875 l -0.99414,-2.060547 -0.0195,1.894531 c -0.0171,1.82426 -0.38812,2.458588 -0.80469,1.373047 -0.10993,-0.286573 -0.20117,-1.12969 -0.20117,-1.875 v -1.355469 l -1.0039,1.583984 c -1.53765,2.424611 -1.56566,1.48281 -0.0469,-1.560546 0.002,-0.0046 0.003,-0.0098 0.004,-0.01367 1.1e-4,-9.1e-4 -2e-5,-0.005 0,-0.0059 v -0.002 -0.002 -0.002 l -0.002,-0.002 v -0.002 l -0.002,-0.002 -0.002,-0.002 -0.002,-0.002 h -0.002 c -0.0987,-0.04185 -0.74599,0.21413 -1.56836,0.63086 -2.49821,1.265935 -3.18061,0.903435 -0.90039,-0.478516 1.03325,-0.626219 1.87891,-1.272849 1.87891,-1.435547 0,-0.162546 -0.51828,-0.234186 -1.15235,-0.160156 -0.63408,0.07403 -1.15234,0.0076 -1.15234,-0.146484 0,-0.154028 0.51828,-0.496772 1.15234,-0.761719 1.01814,-0.425424 1.58083,-1.128513 0.90626,-1.132813 -0.13588,-9.11e-4 -0.67852,-0.346229 -1.20508,-0.767579 l -0.95703,-0.76562 0.61523,-1.04102 c 0.50442,-0.85394 0.53635,-1.11654 0.18359,-1.45703 -0.34811,-0.33602 -0.53372,-0.25662 -0.97461,0.41016 -0.29949,0.45291 -1.09302,1.41597 -1.76367,2.14062 -1.26874,1.3709 -1.86757,1.3949 -2.67969,0.10742 -0.48363,-0.76674 1.05205,-2.53239 3.40235,-3.91015 0.41982,-0.2461 0.39616,-0.36126 -0.16406,-0.77344 -0.58831,-0.43283 -0.72915,-0.41629 -1.33789,0.15234 -0.37401,0.34937 -0.77935,0.63477 -0.90235,0.63477 -0.12307,0 -0.65134,-0.58807 -1.17187,-1.30664 -0.94165,-1.29992 -1.36328,-1.39906 -1.36328,-0.32422 0,0.30995 -0.2441,0.76564 -0.54297,1.01367 -0.48951,0.40632 -0.5281,0.34436 -0.38672,-0.61914 0.2245,-1.52967 -0.35815,-1.33559 -1.70508,0.56641 -1.02323,1.44489 -1.64648,2.00583 -1.64648,1.48242 0,-0.0966 0.37215,-0.91074 0.82812,-1.81055 0.87638,-1.72946 0.85449,-1.85528 -0.23633,-1.27148 -1.04737,0.56051 -2.60907,0.95573 -2.39258,0.60547 0.10343,-0.16737 0.88515,-0.71254 1.73633,-1.21289 l 1.54688,-0.91016 -0.98828,-0.0879 c -2.08629,-0.18364 -3.14101,-0.4511 -2.95508,-0.75195 0.10631,-0.17208 0.84287,-0.3125 1.63672,-0.3125 1.65926,0 2.23367,-0.4884 0.90039,-0.76563 -0.90952,-0.18912 -3.53213,-2.14757 -3.25196,-2.42773 l 0.002,-0.002 c 0.0989,-0.0701 0.72894,0.23333 1.41406,0.6836 1.32728,0.87233 4.23092,1.79643 4.57227,1.45507 0.10961,-0.1096 0.0414,-0.77043 -0.15235,-1.46679 -0.0928,-0.33354 -0.15393,-0.58794 -0.17969,-0.79102 z m 9.44531,0 c -0.003,10e-4 -0.005,0.003 -0.008,0.004 -0.63875,0.34184 -0.6354,0.37984 0.1836,2.24023 0.45821,1.04087 1.12877,2.37412 1.49023,2.96289 0.64983,1.05852 1.5918,1.4517 1.5918,0.66407 0,-0.22385 -0.36543,-1.15018 -0.81055,-2.0586 -0.44512,-0.90842 -1.03248,-2.21568 -1.30664,-2.90429 -0.18555,-0.46604 -0.31834,-0.75408 -0.45313,-0.90821 z m 42.67383,0 c -0.0304,0.23094 -0.11061,0.5158 -0.22851,0.87305 -0.21214,0.64268 -0.30282,1.25186 -0.20117,1.35351 0.33196,0.33196 3.19084,-0.56038 4.59961,-1.43554 l 1.27148,-0.79102 z m -2.22265,0.10938 c -0.61579,0.0672 -3.42247,5.65051 -3.0918,6.18554 0.46987,0.76026 1.12989,0.14733 2.24023,-2.07617 1.35148,-2.70644 1.61941,-3.95825 0.87891,-4.10742 -0.004,-8.7e-4 -0.009,-0.002 -0.0137,-0.002 -0.005,-1.6e-4 -0.009,-5.3e-4 -0.0137,0 z m -40.08789,9.29883 c 0.14911,0.002 0.29021,0.0522 0.41797,0.1582 0.66912,0.55532 0.63775,0.76019 -0.32422,2.17773 -0.45291,0.66739 -0.82422,1.65716 -0.82422,2.199221 0,0.963646 0.0317,0.981723 1.35156,0.804688 0.75305,-0.100996 1.70473,-0.515151 2.1543,-0.9375 0.63371,-0.595339 0.92751,-0.682869 1.36914,-0.404299 0.84327,0.531917 0.685,1.099398 -0.5918,2.125002 -0.80344,0.645368 -1.78629,1.02608 -3.24414,1.257812 -1.15051,0.182886 -2.60428,0.634448 -3.23047,1.003907 -0.62618,0.369459 -1.20721,0.671875 -1.29101,0.671875 h -0.002 -0.002 -0.002 -0.002 l -0.002,-0.002 h -0.002 v -0.002 l -0.002,-0.002 v -0.002 c -0.0358,-0.07763 0.16695,-0.600272 0.48243,-1.226562 0.34219,-0.679365 0.72963,-1.973427 0.86132,-2.875 0.37796,-2.588441 1.83901,-4.962241 2.88282,-4.947261 z m 39.68554,1.67187 c -0.21518,0.0102 -0.54615,0.3068 -1.24804,0.99219 -0.70755,0.6909 -1.28711,1.433405 -1.28711,1.650388 0,0.216983 0.55499,0.542219 1.23437,0.722656 2.34933,0.62397 2.4751,0.567138 2.21485,-1.003904 -0.12755,-0.76994 -0.37745,-1.67462 -0.55469,-2.01172 -0.1203,-0.2288 -0.21214,-0.35657 -0.35938,-0.34961 z m -7.80664,0.0488 c -0.44667,0.0245 -1.33317,0.39437 -3.08398,1.24609 -3.08524,1.500887 -3.43146,1.769717 -2.93555,2.265627 0.3411,0.341099 1.57577,-0.03061 3.85938,-1.158203 2.38906,-1.179664 2.89003,-1.618004 2.52343,-2.210934 -0.0535,-0.0865 -0.14068,-0.13515 -0.27929,-0.14258 -0.026,-0.001 -0.0542,-0.002 -0.084,0 z m -23.85351,0.0859 c -0.12866,5.7e-4 -0.21071,0.0375 -0.25391,0.10742 -0.33622,0.5438 0.21028,1.0023 2.80469,2.35156 2.58267,1.34317 3.51758,1.478437 3.51758,0.509766 0,-0.362341 -0.20822,-0.658203 -0.46094,-0.658203 -0.25273,-1e-6 -1.61971,-0.583553 -3.03906,-1.296873 -1.38294,-0.69497 -2.18241,-1.01539 -2.56836,-1.01367 z m 12.0957,4.417964 c 3.4216,-0.03499 3.55418,-0.01027 3.45898,0.646485 -0.0651,0.448686 -0.46654,0.787428 -1.16992,0.988281 -0.58879,0.168122 -1.07031,0.509739 -1.07031,0.759766 0,0.548301 1.32851,1.097656 2.65625,1.097656 0.5317,0 0.96549,0.110276 0.96484,0.246094 -0.002,0.367936 -1.06701,2.049333 -2.74023,4.322265 -0.81806,1.111239 -1.58439,2.463037 -1.70313,3.003906 -0.23699,1.078978 -0.82421,1.67159 -0.82421,0.832032 0,-0.819042 -1.28702,-3.140184 -2.64649,-4.777344 -1.34799,-1.623322 -2.46154,-3.606869 -2.05664,-3.662109 0.14054,-0.01922 0.63293,-0.01132 1.09375,0.01758 1.12819,0.07081 2.62228,-0.526461 2.61328,-1.044922 -0.004,-0.230935 -0.48545,-0.642326 -1.07031,-0.914063 -0.58486,-0.271752 -1.06445,-0.717241 -1.06445,-0.988281 0,-0.404752 0.63613,-0.497444 3.55859,-0.527344 z m -0.11133,3.501953 c -0.2134,0.0019 -0.5393,0.28247 -1.23828,0.9375 l -1.27344,1.19336 1.17969,1.05664 c 0.64884,0.581245 1.23609,1.063213 1.30469,1.070313 h 0.002 c 0.0846,-0.0084 0.70512,-0.511724 1.39258,-1.132813 l 1.26953,-1.148437 -0.97266,-0.501953 c -0.53519,-0.276749 -1.12224,-0.779947 -1.30273,-1.117188 -0.12328,-0.230353 -0.21531,-0.358734 -0.36133,-0.357422 z" /></g></svg>
